<svg width="41" height="40" viewBox="0 0 41 40" fill="none" xmlns="http://www.w3.org/2000/svg">
<path d="M38.6636 18.1531V6.71658L36.0791 7.25538C33.0917 7.8782 30.9509 10.5113 30.9509 13.5629V16.3637H25.3235V11.5401H26.9313V9.37045C26.9313 7.84336 25.941 6.54842 24.5679 6.0905V3H22.4393V6.03019L20.5 8.41544L18.5607 6.03019V3H16.4321V6.09043C15.059 6.54835 14.0686 7.84329 14.0686 9.37038V11.5401H15.6764V16.3636H10.049V13.5628C10.049 10.5111 7.90824 7.87805 4.92083 7.25524L2.33643 6.71658V18.1531C2.33643 22.9367 6.21428 26.8146 10.998 26.8146H12.8455C11.5391 27.9177 10.7073 29.566 10.7073 31.4057V32.2084H7.9274L4.77411 26.6901L2.92603 27.7462L8.21355 36.9994L10.0616 35.9433L9.14372 34.337H12.8358V31.4058C12.8358 29.2662 14.5765 27.5257 16.716 27.5257V27.5076L18.0883 28.4225L15.926 33.9657C18.5581 36.2217 22.442 36.2217 25.0741 33.9657L22.9118 28.4225L24.2841 27.5076V27.5257C26.4236 27.5257 28.1642 29.2662 28.1642 31.4058V34.337H35.3289C37.1676 34.337 38.6636 32.841 38.6636 31.0023C38.6636 29.1635 37.1676 27.6676 35.3289 27.6676C33.4901 27.6676 31.9941 29.1635 31.9941 31.0023C31.9941 31.4276 32.075 31.8341 32.2208 32.2084H30.2928V31.4058C30.2928 29.5661 29.461 27.9177 28.1545 26.8146H30.0021C34.7857 26.8146 38.6636 22.9367 38.6636 18.1531Z" fill="#010101"/>
</svg>
