<svg width="41" height="40" viewBox="0 0 41 40" fill="none" xmlns="http://www.w3.org/2000/svg">
<path fill-rule="evenodd" clip-rule="evenodd" d="M10.0218 2.90008C10.0218 2.40298 9.61887 2 9.12175 2H8.86629C6.30829 2 4.23462 4.07367 4.23462 6.63167V30.2111C4.23462 32.7691 6.30829 34.8427 8.86629 34.8427H17.1176C17.4431 34.8427 17.6933 34.5583 17.6933 34.2328V33.5833C17.6933 33.2056 17.4575 32.8681 17.1027 32.7381L16.4482 32.4985C16.3617 32.4669 16.2769 32.4334 16.1939 32.3981C16.0722 32.3464 15.942 32.3162 15.8097 32.3162H8.86629C7.70356 32.3162 6.76098 31.3736 6.76098 30.2109C6.76098 29.0484 7.70356 28.1058 8.86629 28.1058H12.2606C12.7753 28.1058 13.1775 27.672 13.2465 27.162C13.474 25.4785 14.5412 23.8999 16.4482 23.2015L25.4282 19.9126C26.5276 19.5101 27.7339 19.5101 28.8332 19.9126L29.1308 20.0217C29.7182 20.2368 30.3405 19.8019 30.3405 19.1765V4.94743C30.3405 3.31962 29.0208 2 27.3929 2H13.6221C13.125 2 12.7221 2.40298 12.7221 2.90008V21.82C12.7221 22.5656 12.1176 23.1701 11.3719 23.1701C10.6263 23.1701 10.0218 22.5656 10.0218 21.82V2.90008Z" fill="#010101"/>
<path fill-rule="evenodd" clip-rule="evenodd" d="M27.1382 22.3125C27.3985 22.3131 27.6586 22.3588 27.9068 22.4497L36.8869 25.7387C38.5259 26.3389 38.8003 28.3693 37.7101 29.4483V32.3709C37.7101 33.1167 37.1056 33.721 36.36 33.721C35.6144 33.721 35.0099 33.1167 35.0099 32.3709V30.6521L33.872 31.0688V34.2346C33.872 35.0045 33.5152 35.6364 33.0763 36.0976C32.6441 36.5517 32.0826 36.8994 31.4918 37.1618C30.307 37.6884 28.7648 37.9796 27.1331 37.9796C25.5013 37.9796 23.9591 37.6884 22.7742 37.1618C22.1836 36.8994 21.6219 36.5517 21.1897 36.0976C20.7508 35.6364 20.3942 35.0045 20.3942 34.2346V31.0696L17.377 29.9646C15.4085 29.2437 15.4085 26.4597 17.377 25.7387L26.3571 22.4497C26.6093 22.3573 26.8737 22.3116 27.1382 22.3125ZM27.9068 33.2535L31.1718 32.0578V34.1755C31.1619 34.1894 31.1457 34.2096 31.1205 34.236C31.0072 34.355 30.7797 34.5235 30.3952 34.6943C29.6298 35.0346 28.4775 35.2794 27.1331 35.2794C25.7888 35.2794 24.6365 35.0346 23.8709 34.6943C23.4865 34.5235 23.259 34.355 23.1458 34.236C23.1206 34.2096 23.1044 34.1894 23.0945 34.1755V32.0586L26.3571 33.2535C26.6053 33.3444 26.8654 33.3901 27.1259 33.3909C27.3902 33.3916 27.6548 33.3458 27.9068 33.2535ZM23.0822 34.1568L23.0808 34.1543C23.0802 34.153 23.0801 34.1525 23.0801 34.1525C23.0802 34.1525 23.081 34.1539 23.0822 34.1568Z" fill="#010101"/>
</svg>
