<svg width="41" height="40" viewBox="0 0 41 40" fill="none" xmlns="http://www.w3.org/2000/svg">
<path d="M8.35759 14.1966C11.4073 15.4673 14.5852 16.2708 17.8414 16.5977L16.3063 13.9388L11.0717 14.253C10.4903 14.2879 9.9906 13.8449 9.95572 13.2634C9.92085 12.682 10.3639 12.1824 10.9453 12.1474L15.1271 11.8964L14.197 10.2854L8.96235 10.5996C8.38093 10.6345 7.88122 10.1914 7.84635 9.61001C7.81147 9.02859 8.25451 8.52895 8.83593 8.49401L13.0178 8.24299L11.8495 6.21947C10.6846 4.20164 8.10446 3.51033 6.08664 4.67527C4.06881 5.84027 3.37749 8.42039 4.5425 10.4382L6.19119 13.2939L8.35759 14.1966Z" fill="#010101"/>
<path d="M21.2032 16.7656C22.6027 16.7656 23.9911 16.6792 25.3647 16.5076C25.4017 16.2473 25.4219 15.9815 25.4219 15.7109C25.4219 12.6043 22.9035 10.0859 19.7969 10.0859C18.7623 10.0859 17.7938 10.3665 16.9609 10.8538L20.3682 16.7554C20.6461 16.7622 20.9244 16.7656 21.2032 16.7656Z" fill="#010101"/>
<path d="M26.7868 12.4018C27.5661 10.3408 27.7089 8.78987 27.7109 8.7661C27.7603 8.18574 28.271 7.7567 28.8512 7.80451C29.4315 7.85387 29.862 8.36441 29.8127 8.94477C29.7998 9.09622 29.5069 12.2795 27.5298 15.7829C27.5286 15.9115 27.5233 16.0392 27.5158 16.1664C29.7443 15.7377 31.9275 15.0803 34.0487 14.1965L35.3182 13.6675C35.1514 13.2586 34.9188 12.8776 34.6274 12.5414C36.0592 11.9065 37.0235 10.4809 37.0235 8.85547C37.0235 6.62614 35.2099 4.8125 32.9805 4.8125C32.6273 4.8125 32.2776 4.85989 31.9353 4.95376C31.4573 3.23138 29.8909 2 28.0587 2C26.2742 2 24.7293 3.16332 24.2088 4.83092C24.0845 4.81862 23.9619 4.8125 23.8399 4.8125C21.9121 4.8125 20.2961 6.16925 19.894 7.97783C22.9341 8.01545 25.5574 9.81573 26.7868 12.4018Z" fill="#010101"/>
<path d="M34.86 16.1432C30.5103 17.9556 25.9154 18.8745 21.2031 18.8745C16.4909 18.8745 11.896 17.9556 7.54626 16.1432C6.80636 15.8348 6.00656 16.432 6.09199 17.2291C6.44334 20.5084 7.71515 32.5061 7.99971 35.1716C8.17176 36.7838 9.52436 37.9995 11.1458 37.9995H31.2603C32.8819 37.9995 34.2344 36.7838 34.4066 35.1716C34.6911 32.5061 35.9629 20.5084 36.3143 17.229C36.3997 16.432 35.5999 15.8348 34.86 16.1432ZM29.2891 30.9683C29.2891 31.5507 28.8168 32.023 28.2344 32.023H14.1719C13.5894 32.023 13.1172 31.5507 13.1172 30.9683V25.3433C13.1172 24.7608 13.5894 24.2886 14.1719 24.2886H28.2344C28.8168 24.2886 29.2891 24.7608 29.2891 25.3433V30.9683Z" fill="#010101"/>
<path d="M15.2266 26.3984H27.1797V29.9141H15.2266V26.3984Z" fill="#010101"/>
</svg>
