<svg width="39" height="38" viewBox="0 0 39 38" fill="none" xmlns="http://www.w3.org/2000/svg">
<path d="M12 1.5V4H10.75C10.3252 4 9.89978 4.03723 9.5 4.12512V1.5C9.5 0.812744 10.0627 0.25 10.75 0.25C11.4373 0.25 12 0.812744 12 1.5Z" fill="#010101"/>
<path d="M20.75 1.5V4H18.25V1.5C18.25 0.812744 18.8127 0.25 19.5 0.25C20.1873 0.25 20.75 0.812744 20.75 1.5Z" fill="#010101"/>
<path d="M29.5 1.5V4.12512C29.1002 4.03723 28.6748 4 28.25 4H27V1.5C27 0.812744 27.5627 0.25 28.25 0.25C28.9373 0.25 29.5 0.812744 29.5 1.5Z" fill="#010101"/>
<path d="M12 34.0001V36.5001C12 37.1874 11.4373 37.7501 10.75 37.7501C10.0627 37.7501 9.5 37.1874 9.5 36.5001V33.875C9.89978 33.9629 10.3252 34.0001 10.75 34.0001H12Z" fill="#010101"/>
<path d="M20.75 34V36.5C20.75 37.1873 20.1873 37.75 19.5 37.75C18.8127 37.75 18.25 37.1873 18.25 36.5V34H20.75Z" fill="#010101"/>
<path d="M29.5 33.875V36.5001C29.5 37.1874 28.9373 37.7501 28.25 37.7501C27.5627 37.7501 27 37.1874 27 36.5001V34.0001H28.25C28.6748 34.0001 29.1002 33.9629 29.5 33.875Z" fill="#010101"/>
<path d="M4.62512 9C4.53723 9.39978 4.5 9.8252 4.5 10.25V11.5H2C1.31274 11.5 0.75 10.9373 0.75 10.25C0.75 9.56274 1.31274 9 2 9H4.62512Z" fill="#010101"/>
<path d="M4.5 17.75V20.25H2C1.31274 20.25 0.75 19.6873 0.75 19C0.75 18.3127 1.31274 17.75 2 17.75H4.5Z" fill="#010101"/>
<path d="M4.62512 29H2C1.31274 29 0.75 28.4373 0.75 27.75C0.75 27.0627 1.31274 26.5 2 26.5H4.5V27.75C4.5 28.1748 4.53723 28.6002 4.62512 29Z" fill="#010101"/>
<path d="M38.2501 10.25C38.2501 10.9373 37.6874 11.5 37.0001 11.5H34.5001V10.25C34.5001 9.8252 34.4629 9.39978 34.375 9H37.0001C37.6874 9 38.2501 9.56274 38.2501 10.25Z" fill="#010101"/>
<path d="M38.25 19C38.25 19.6873 37.6873 20.25 37 20.25H34.5V17.75H37C37.6873 17.75 38.25 18.3127 38.25 19Z" fill="#010101"/>
<path d="M38.2501 27.75C38.2501 28.4373 37.6874 29 37.0001 29H34.375C34.4629 28.6002 34.5001 28.1748 34.5001 27.75V26.5H37.0001C37.6874 26.5 38.2501 27.0627 38.2501 27.75Z" fill="#010101"/>
<path d="M18.25 17.75H20.75V20.25H18.25V17.75Z" fill="#010101"/>
<path d="M28.25 6.5H10.75C8.68762 6.5 7 8.18762 7 10.25V27.75C7 29.8124 8.68762 31.5 10.75 31.5H28.25C30.3124 31.5 32 29.8124 32 27.75V10.25C32 8.18762 30.3124 6.5 28.25 6.5ZM17 27.75H13.875C12.152 27.75 10.75 26.348 10.75 24.625V21.5C10.75 20.8097 11.3097 20.25 12 20.25C12.6903 20.25 13.25 20.8097 13.25 21.5V24.625C13.25 24.9637 13.5363 25.25 13.875 25.25H17C17.6903 25.25 18.25 25.8097 18.25 26.5C18.25 27.1903 17.6903 27.75 17 27.75ZM23.25 21.5C23.25 22.1903 22.6903 22.75 22 22.75H17C16.3097 22.75 15.75 22.1903 15.75 21.5V16.5C15.75 15.8097 16.3097 15.25 17 15.25H22C22.6903 15.25 23.25 15.8097 23.25 16.5V21.5ZM28.25 16.5C28.25 17.1903 27.6903 17.75 27 17.75C26.3097 17.75 25.75 17.1903 25.75 16.5V13.375C25.75 13.0363 25.4637 12.75 25.125 12.75H22C21.3097 12.75 20.75 12.1903 20.75 11.5C20.75 10.8097 21.3097 10.25 22 10.25H25.125C26.848 10.25 28.25 11.652 28.25 13.375V16.5Z" fill="#010101"/>
</svg>
