<svg width="41" height="40" viewBox="0 0 41 40" fill="none" xmlns="http://www.w3.org/2000/svg">
<path d="M29.9922 31.6016H32.1016V38H29.9922V31.6016Z" fill="#010101"/>
<path d="M21.5547 31.6016H23.6641V38H21.5547V31.6016Z" fill="#010101"/>
<path d="M37.9654 19.082C37.6348 18.8946 37.229 18.9007 36.9025 19.0954L27.8828 24.4646V19.9997C27.8828 19.6197 27.6789 19.2695 27.3482 19.082C27.0176 18.8946 26.6118 18.9007 26.2853 19.0954L15.7384 25.4235C15.4212 25.614 15.2266 25.957 15.2266 26.3278L15.2342 37.9997H19.4453V30.5466C19.4453 29.9636 19.917 29.4919 20.5 29.4919H24.7188C25.3017 29.4919 25.7734 29.9636 25.7734 30.5466V37.9997H27.8828V30.5466C27.8828 29.9636 28.3546 29.4919 28.9375 29.4919H33.1563C33.7392 29.4919 34.211 29.9636 34.211 30.5466V37.9997H37.4453C38.0283 37.9997 38.5 37.528 38.5 36.9451V19.9997C38.5 19.6197 38.2961 19.2695 37.9654 19.082Z" fill="#010101"/>
<path d="M20.108 20.3418L19.4351 15.6319C19.3609 15.1128 18.916 14.7266 18.3907 14.7266H14.1719C13.7884 14.7266 13.4515 14.9355 13.2666 15.2488L14.035 24.1065C14.2184 23.9201 14.4235 23.7527 14.6519 23.6153L20.108 20.3418Z" fill="#010101"/>
<path d="M11.3683 6.21875H9.95313C7.04549 6.21875 4.60938 8.65487 4.60938 11.5625C4.60938 11.8304 4.60938 15.0012 4.60938 14.7266H11.0078V13.6719C11.0078 13.09 11.4806 12.6172 12.0625 12.6172H19.4453C21.772 12.6172 23.6641 10.7252 23.6641 8.39844V8.11002C23.6641 5.17658 20.9939 2 17.3359 2C14.6343 2 12.2489 3.72934 11.3683 6.21875Z" fill="#010101"/>
<path d="M4.31716 16.8359L2.50415 36.8496L2.51905 36.851C2.51596 36.8837 2.5 36.9119 2.5 36.9453C2.5 37.5278 2.97222 38 3.55469 38H13.1172L11.2865 16.8359H4.31716Z" fill="#010101"/>
</svg>
