<svg width="41" height="40" viewBox="0 0 41 40" fill="none" xmlns="http://www.w3.org/2000/svg">
<path d="M30.9228 18.8542C30.5386 19.2383 30.5356 19.8605 30.9228 20.2476C32.1324 21.4587 32.1318 23.4137 30.9228 24.6241C30.5372 25.0097 30.5372 25.6321 30.9228 26.0176C32.1325 27.2273 32.1318 29.1837 30.9228 30.3941L30.8939 30.423C29.6867 31.6294 27.7237 31.6294 26.5172 30.423C26.1316 30.0374 25.5092 30.0374 25.1237 30.423C23.9126 31.6325 21.9574 31.632 20.7469 30.423C20.3596 30.0356 19.7374 30.039 19.3534 30.423C18.1438 31.6325 16.1864 31.632 14.9773 30.423C14.5908 30.0364 13.9671 30.0383 13.5838 30.423C12.36 31.6453 10.403 31.6182 9.20778 30.423C8.82057 30.0372 8.19908 30.0375 7.81355 30.423C6.60495 31.6315 4.64801 31.6327 3.43751 30.4237L3.40798 30.3941C2.20078 29.187 2.20078 27.224 3.40728 26.0176C3.79287 25.632 3.79287 25.0097 3.40728 24.6241C2.19769 23.4131 2.19818 21.458 3.40728 20.2476C3.79287 19.862 3.79287 19.2397 3.40728 18.8542C2.20008 17.647 2.19572 15.6898 3.40728 14.4783C3.79378 14.0918 3.79196 13.4681 3.40728 13.0849C2.19832 11.8745 2.19748 9.91807 3.40728 8.70834C3.79287 8.32275 3.79287 7.70041 3.40728 7.31489C2.82284 6.72989 2.50081 5.95293 2.50081 5.1269C2.50081 2.41171 5.83636 0.931773 7.81341 2.90875C8.19901 3.29434 8.82141 3.29427 9.20694 2.90875C10.4167 1.69909 12.3732 1.69973 13.5837 2.90875C13.9662 3.2928 14.5901 3.29589 14.9772 2.90875C16.1868 1.69923 18.1442 1.69973 19.3532 2.90875C19.7388 3.29434 20.3612 3.29427 20.7468 2.90875C21.9579 1.69916 23.913 1.69973 25.1235 2.90875C25.5091 3.29434 26.1315 3.29427 26.517 2.90875C27.7266 1.69923 29.6841 1.69973 30.8931 2.90875L30.9233 2.93898C32.1291 4.14541 32.1284 6.10839 30.9226 7.31482C30.7363 7.50114 30.6336 7.74857 30.6336 8.01154C30.6336 8.46119 30.9101 8.68914 30.995 8.78421C32.1189 9.98444 32.1194 11.8867 30.9226 13.0849C30.5386 13.4674 30.5355 14.0913 30.9226 14.4783C32.1323 15.6878 32.1318 17.6451 30.9228 18.8542Z" fill="#010101"/>
<path d="M37.5966 19.8653C37.2172 20.2446 37.2161 20.86 37.5966 21.2404C38.8012 22.445 38.8013 24.3948 37.5966 25.5994C37.2157 25.9804 37.2176 26.5957 37.5966 26.9746C38.7989 28.1768 38.8037 30.1258 37.5966 31.3328C37.2156 31.7153 37.2177 32.3298 37.5966 32.7087C38.1788 33.2908 38.4993 34.0649 38.4993 34.8882C38.4993 36.5953 37.0912 37.9985 35.3889 37.9985C34.5655 37.9985 33.7914 37.6779 33.2092 37.0958C32.8307 36.7172 32.2161 36.7145 31.8333 37.0958C30.6262 38.3029 28.677 38.298 27.4748 37.0958C27.0954 36.7164 26.4801 36.7153 26.0996 37.0958C24.895 38.3003 22.9451 38.3004 21.7404 37.0958C21.3595 36.7148 20.7442 36.7169 20.3652 37.0958C19.1629 38.298 17.2138 38.3028 16.0067 37.0958C15.6242 36.7148 15.0097 36.7169 14.6308 37.0958C14.6216 37.1049 14.6125 37.1141 14.6034 37.1225C14.0247 37.6877 13.2619 37.9985 12.4512 37.9985C10.0251 37.9985 8.4908 35.2677 9.842 33.2015C11.2882 33.6536 12.9348 33.466 14.2806 32.5667C16.0179 33.7287 18.3121 33.7292 20.0503 32.5667C21.7915 33.7303 24.0849 33.7275 25.8206 32.5667C27.8124 33.8984 30.5795 33.7187 32.3854 31.9142L32.4149 31.8847C34.2169 30.0802 34.4045 27.3192 33.0674 25.3202C34.2295 23.5815 34.23 21.2897 33.0674 19.5501C34.2295 17.8129 34.23 15.5189 33.0674 13.7808C33.9622 12.4421 34.1568 10.7956 33.7023 9.34167C34.8862 8.56479 36.5082 8.6834 37.568 9.74308L37.5771 9.75222L37.6017 9.77754C38.8018 10.9833 38.7996 12.9282 37.5968 14.1309C37.219 14.5087 37.2147 15.1233 37.5968 15.5067C38.8037 16.7141 38.7989 18.6631 37.5966 19.8653Z" fill="#010101"/>
</svg>
