<svg width="41" height="40" viewBox="0 0 41 40" fill="none" xmlns="http://www.w3.org/2000/svg">
<path d="M35.186 12.168H26.1485C24.315 12.168 22.8345 13.652 22.8345 15.4821V34.6867C22.8345 36.5201 24.3183 38.0009 26.1485 38.0009H35.186C37.0195 38.0008 38.5001 36.5169 38.5001 34.6867V15.4821C38.5001 13.6486 37.016 12.168 35.186 12.168ZM31.797 16.6867H29.5376C28.9551 16.6867 28.4829 16.2145 28.4829 15.632C28.4829 15.0495 28.9551 14.5773 29.5376 14.5773H31.797C32.3795 14.5773 32.8517 15.0495 32.8517 15.632C32.8517 16.2145 32.3795 16.6867 31.797 16.6867Z" fill="#010101"/>
<path d="M13.7968 31.3719H11.4624C10.8799 31.3719 10.4077 31.8441 10.4077 32.4266C10.4077 33.009 10.8799 33.4813 11.4624 33.4813H20.7249V28.8125H13.7967V31.3719H13.7968Z" fill="#010101"/>
<path d="M35.1859 10.0578C35.5467 10.0578 35.8993 10.094 36.2406 10.1616V5.31404C36.2406 3.48669 34.7539 2 32.9265 2H5.81404C3.98669 2 2.5 3.48676 2.5 5.31411V23.3891C2.5 25.2164 3.98669 26.7031 5.81404 26.7031H20.725V15.4813C20.725 12.4908 23.158 10.0577 26.1484 10.0577L35.1859 10.0578Z" fill="#010101"/>
</svg>
