<svg width="41" height="40" viewBox="0 0 41 40" fill="none" xmlns="http://www.w3.org/2000/svg">
<path d="M8.6875 4.10938H10.9375V17.75C10.9375 18.9926 11.9449 20 13.1875 20C14.4301 20 15.4375 18.9926 15.4375 17.75V4.10938H17.6875C18.27 4.10938 18.7422 3.63716 18.7422 3.05469C18.7422 2.47222 18.27 2 17.6875 2H8.6875C8.10503 2 7.63281 2.47222 7.63281 3.05469C7.63281 3.63716 8.10503 4.10938 8.6875 4.10938Z" fill="#010101"/>
<path d="M37.4453 32.1641H25.9141C25.3316 32.1641 24.8594 32.6363 24.8594 33.2188V34.6953C24.8594 36.5175 26.3418 38 28.1641 38H35.1953C37.0175 38 38.5 36.5175 38.5 34.6953V33.2188C38.5 32.6363 38.0278 32.1641 37.4453 32.1641Z" fill="#010101"/>
<path d="M21.625 7.13281C21.0425 7.13281 20.5703 7.60503 20.5703 8.1875V8.25781H17.5469V17.75C17.5469 20.1537 15.5912 22.1094 13.1875 22.1094C10.7838 22.1094 8.82812 20.1537 8.82812 17.75V8.80077C5.14516 10.1068 2.5 13.625 2.5 17.75C2.5 22.9841 6.75819 27.2422 11.9922 27.2422H20.5703V27.3125C20.5703 27.895 21.0425 28.3672 21.625 28.3672C22.2075 28.3672 22.6797 27.895 22.6797 27.3125V8.1875C22.6797 7.60503 22.2075 7.13281 21.625 7.13281Z" fill="#010101"/>
<path d="M27.7829 30.0546H35.8523C35.4915 27.2336 34.1909 24.6165 32.1646 22.652C30.127 20.6767 27.5249 19.5377 24.7891 19.4121V25.5185C26.2949 25.9688 27.6606 27.0066 27.7829 30.0546Z" fill="#010101"/>
</svg>
