<svg width="41" height="40" viewBox="0 0 41 40" fill="none" xmlns="http://www.w3.org/2000/svg">
<path d="M37.017 14.5845H32.9431L31.8596 11.7674C30.7327 8.86361 27.9156 7 24.7952 7H16.2139C13.0934 7 10.3197 8.86361 9.14948 11.7674L8.02265 14.5845H3.9487C3.5153 14.5845 3.12524 14.9312 3.12524 15.4079C3.12524 15.4513 3.12524 15.5379 3.16858 15.5813L3.55864 17.2282C3.64532 17.5749 3.99204 17.835 4.33876 17.835H5.76897C4.8155 18.6584 4.25208 19.8286 4.25208 21.0854V24.3359C4.25208 25.3761 4.64214 26.3729 5.33558 27.1964V30.8369C5.33558 32.0504 6.28905 33.0039 7.50257 33.0039H9.66956C10.8831 33.0039 11.8366 32.0504 11.8366 30.8369V28.6699H29.1725V30.8369C29.1725 32.0504 30.126 33.0039 31.3395 33.0039H33.5065C34.72 33.0039 35.6735 32.0504 35.6735 30.8369V27.153C36.3669 26.3729 36.757 25.3761 36.757 24.2926V21.0421C36.757 19.7853 36.1935 18.6151 35.2401 17.7916H36.5836C36.9737 17.7916 37.277 17.5316 37.3637 17.1849L37.7538 15.5379C37.8405 15.1046 37.5804 14.6712 37.147 14.5411C37.147 14.5845 37.1037 14.5845 37.017 14.5845ZM13.1801 13.371C13.6568 12.1141 14.8703 11.334 16.2139 11.334H24.7952C26.1387 11.334 27.3522 12.1574 27.829 13.371L29.1725 16.7515H11.8366L13.1801 13.371ZM9.66956 24.3359C8.54273 24.4226 7.58925 23.5558 7.50257 22.429C7.50257 22.3423 7.50257 22.2556 7.50257 22.1689C7.41589 21.0421 8.28269 20.0886 9.40952 20.002H9.66956C10.9698 20.002 12.92 21.9522 12.92 23.2524C12.92 24.5526 10.9698 24.3359 9.66956 24.3359ZM31.3395 24.3359C30.0393 24.3359 28.089 24.5526 28.089 23.2524C28.089 21.9522 30.0393 20.002 31.3395 20.002C32.4663 19.9153 33.4198 20.7821 33.5065 21.9089V22.1689C33.5932 23.2958 32.7264 24.2493 31.5995 24.3359C31.5128 24.3359 31.4262 24.3359 31.3395 24.3359Z" fill="#010101"/>
</svg>
