<svg width="41" height="40" viewBox="0 0 41 40" fill="none" xmlns="http://www.w3.org/2000/svg">
<path d="M30.9411 18.6816L20.1284 26.516C25.5115 29.4886 32.103 24.8613 30.9411 18.6816Z" fill="#010101"/>
<path d="M28.9704 14.9004L17.7661 23.0185V24.455C17.9553 24.7095 18.1606 24.9507 18.3806 25.1785L30.2135 16.6048C29.8817 15.9776 29.4619 15.4038 28.9704 14.9004Z" fill="#010101"/>
<path d="M16.3445 19.2642V19.5117C16.7875 19.8049 17.1524 20.2064 17.4013 20.6781L27.2155 13.5669C22.6169 11.0518 16.8983 14.0465 16.3445 19.2642Z" fill="#010101"/>
<path d="M13.376 13.6791V5.15212C13.376 4.7166 13.1083 4.32587 12.7022 4.16866L7.28811 2.07194C6.59968 1.80531 5.85254 2.31248 5.85254 3.0554V13.6791C6.02804 13.6683 13.2267 13.6699 13.376 13.6791Z" fill="#010101"/>
<path d="M14.2349 16.8359C14.2349 16.2535 13.7627 15.7812 13.1802 15.7812H6.04858C5.46612 15.7812 4.9939 16.2535 4.9939 16.8359V18.9869H14.235L14.2349 16.8359Z" fill="#010101"/>
<path d="M14.6022 21.0977H4.65796C4.07549 21.0977 3.60327 21.5699 3.60327 22.1523V36.9463C3.60327 37.5288 4.07549 38.001 4.65796 38.001H14.6022C15.1847 38.001 15.6569 37.5288 15.6569 36.9463V22.1523C15.6569 21.5699 15.1847 21.0977 14.6022 21.0977Z" fill="#010101"/>
<path d="M23.6857 10.5566C28.9198 10.5566 33.1779 14.8146 33.1779 20.0485C33.1779 24.9598 29.4282 29.0116 24.6413 29.492H33.6163C35.9576 27.0313 37.3966 23.7057 37.3966 20.0485C37.3966 12.4887 31.2457 6.33789 23.6857 6.33789C20.613 6.33789 17.7738 7.35391 15.4851 9.06665V14.6718C15.5603 14.752 15.6321 14.8364 15.6989 14.9242C17.3892 12.2989 20.3374 10.5566 23.6857 10.5566Z" fill="#010101"/>
<path d="M17.7664 29.492H22.7422C20.8716 29.3067 19.1586 28.5774 17.7664 27.4629V29.492Z" fill="#010101"/>
<path d="M17.7661 36.9452C17.7661 37.315 17.7021 37.6701 17.5847 37.9999H32.1232C35.0307 37.9999 37.3967 35.6339 37.3967 32.7266V31.6016H17.7661V36.9452Z" fill="#010101"/>
</svg>
