<svg width="41" height="40" viewBox="0 0 41 40" fill="none" xmlns="http://www.w3.org/2000/svg">
<path fill-rule="evenodd" clip-rule="evenodd" d="M20.1501 7.26285C20.2309 6.71907 19.8097 6.23047 19.26 6.23047H18.6381C14.6244 6.23047 11.2932 9.33247 11.0075 13.336L10.1338 25.5793C9.81782 30.0076 13.325 33.774 17.7645 33.774H29.9757C33.9894 33.774 37.3207 30.672 37.6064 26.6684L38.4801 14.4251C38.7962 9.99688 35.2889 6.23047 30.8495 6.23047C30.6135 6.23047 30.413 6.40331 30.3782 6.63677L29.0705 15.4306C28.7791 17.39 26.2808 18.0439 25.0669 16.4786L24.5712 15.8392C24.3795 15.592 24.0184 15.5589 23.7849 15.7671L22.7735 16.6692C21.2031 18.0702 18.7407 16.7407 19.0501 14.6592L20.1501 7.26285ZM17.0127 27.0928C17.0127 26.3472 17.6171 25.7428 18.3627 25.7428H21.6807C22.4263 25.7428 23.0307 26.3471 23.0307 27.0928C23.0307 27.8384 22.4263 28.4428 21.6807 28.4428H18.3627C17.6171 28.4428 17.0127 27.8384 17.0127 27.0928Z" fill="#010101"/>
<path d="M27.5553 7.26285C27.6361 6.71907 27.2149 6.23047 26.665 6.23047H23.8093C23.3634 6.23047 22.9847 6.55701 22.9192 6.99809L22.076 12.6669C22.0177 13.0597 22.4825 13.3107 22.779 13.0463C23.7517 12.1786 25.2558 12.3164 26.0546 13.3465C26.2427 13.5889 26.6296 13.4876 26.6748 13.1842L27.5553 7.26285Z" fill="#010101"/>
<path d="M3.85002 25.8535C3.10443 25.8535 2.5 26.458 2.5 27.2035C2.5 27.9491 3.10443 28.5536 3.85002 28.5536H6.21738C6.96296 28.5536 7.56739 27.9491 7.56739 27.2035C7.56739 26.458 6.96296 25.8535 6.21738 25.8535H3.85002Z" fill="#010101"/>
<path d="M2.5 20.0024C2.5 19.2568 3.10443 18.6523 3.85002 18.6523H6.78395C7.52954 18.6523 8.13397 19.2568 8.13397 20.0024C8.13397 20.7481 7.52954 21.3524 6.78395 21.3524H3.85002C3.10443 21.3524 2.5 20.7481 2.5 20.0024Z" fill="#010101"/>
<path d="M3.85002 11.4512C3.10443 11.4512 2.5 12.0556 2.5 12.8012C2.5 13.5468 3.10443 14.1512 3.85002 14.1512H7.40525C8.15084 14.1512 8.75527 13.5468 8.75527 12.8012C8.75527 12.0556 8.15084 11.4512 7.40525 11.4512H3.85002Z" fill="#010101"/>
</svg>
