<svg width="238" height="43" viewBox="0 0 238 43" fill="none" xmlns="http://www.w3.org/2000/svg">
<path d="M49.9624 10.4747V0.10928H51.6565V9.0294H54.6282V0.10928H56.3223V9.0294H57.4009V12.6814H56.2146L56.012 10.4747H49.9624ZM63.8587 6.86947H59.5541C59.5541 7.90553 59.695 8.59958 59.9752 8.94378C60.255 9.29104 60.6042 9.46444 61.0275 9.46444C61.7336 9.46444 62.1775 8.98788 62.3646 8.03482L63.7966 8.22393C63.4199 9.84792 62.4827 10.6612 60.9813 10.6612C60.0623 10.6612 59.3282 10.3297 58.7816 9.66665C58.235 9.00361 57.9604 8.03482 57.9604 6.75284C57.9604 5.43941 58.235 4.4217 58.7867 3.70404C59.3385 2.98683 60.0778 2.6269 60.9994 2.6269C61.646 2.6269 62.19 2.80555 62.6314 3.16547C63.0733 3.52277 63.3841 3.99451 63.566 4.57718C63.7458 5.15985 63.8432 5.9238 63.8587 6.86947ZM62.2569 5.79714C62.2569 4.45008 61.818 3.77657 60.9425 3.77657C60.1239 3.77657 59.6722 4.45008 59.5924 5.79714H62.2569ZM65.1497 10.4747V2.81343H66.7205V5.85916H68.9845V2.81343H70.5553V10.4747H68.9845V7.056H66.7205V10.4747H65.1497ZM73.099 10.4747V4.00983H71.3584V2.81348H76.3484V4.00983H74.6698V10.4747H73.099ZM77.1519 2.81343H78.599V4.07706C78.9917 3.15238 79.6155 2.68896 80.4677 2.68896C81.2324 2.68896 81.8484 3.02572 82.3161 3.70146C82.7856 4.3776 83.0187 5.33855 83.0187 6.58689C83.0187 7.70595 82.8058 8.65638 82.3825 9.43868C81.9562 10.2236 81.2967 10.6145 80.4013 10.6145C79.6849 10.6145 79.1254 10.304 78.7228 9.68198V13.0702H77.1519V2.81343H77.1519ZM78.7227 7.2735C78.7227 7.76271 78.7585 8.14619 78.8305 8.42093C78.9021 8.69523 79.0512 8.93112 79.2745 9.12549C79.4952 9.31943 79.749 9.41814 80.0314 9.41814C80.9143 9.41814 81.3561 8.47248 81.3561 6.58163C81.3561 4.75324 80.925 3.83903 80.062 3.83903C79.6801 3.83903 79.3616 4.02556 79.1046 4.40116C78.8507 4.77374 78.7227 5.30749 78.7227 5.99896V7.2735ZM88.786 4.97337L87.2768 4.78425C87.3772 4.1033 87.6876 3.57217 88.2113 3.1939C88.7346 2.81562 89.3765 2.62695 90.1387 2.62695C90.8189 2.62695 91.3633 2.76412 91.7711 3.041C92.1794 3.31574 92.4358 3.64466 92.541 4.02289C92.6462 4.40335 92.6979 4.97595 92.6979 5.74516V8.35585C92.6979 9.41552 92.744 10.12 92.8337 10.4747H91.3452C91.281 10.1978 91.2478 9.77014 91.2478 9.2006C90.7728 10.1742 90.0645 10.6612 89.1201 10.6612C88.4804 10.6612 87.9674 10.4616 87.5799 10.0655C87.1923 9.66927 86.9996 9.12768 86.9996 8.4441C86.9996 7.61025 87.282 6.9494 87.8493 6.46281C88.4166 5.97842 89.3994 5.73469 90.7986 5.73469C90.8676 5.73469 90.978 5.73732 91.1271 5.74257V5.43201C91.1271 4.88516 91.0447 4.47369 90.8831 4.19369C90.7214 3.91677 90.4313 3.77657 90.0128 3.77657C89.3304 3.77657 88.9196 4.17578 88.786 4.97337ZM91.1271 6.745C90.9267 6.72446 90.7753 6.71399 90.6702 6.71399C89.3123 6.71399 88.6321 7.24993 88.6321 8.32488C88.6321 9.10456 88.9683 9.49593 89.6438 9.49593C90.0386 9.49593 90.3852 9.2832 90.6801 8.86127C90.9779 8.43626 91.1271 7.85621 91.1271 7.11543V6.74504V6.745ZM94.4532 10.4747V2.81343H99.5967V10.4747H98.0259V3.88576H96.024V10.4747H94.4532ZM101.44 10.4747V2.81343H106.583V10.4747H105.013V3.88576H103.011V10.4747H101.44ZM109.843 4.97337L108.334 4.78425C108.434 4.1033 108.744 3.57217 109.268 3.1939C109.791 2.81562 110.433 2.62695 111.196 2.62695C111.876 2.62695 112.42 2.76412 112.828 3.041C113.236 3.31574 113.493 3.64466 113.598 4.02289C113.703 4.40335 113.755 4.97595 113.755 5.74516V8.35585C113.755 9.41552 113.801 10.12 113.89 10.4747H112.402C112.338 10.1978 112.305 9.77014 112.305 9.2006C111.83 10.1742 111.121 10.6612 110.177 10.6612C109.538 10.6612 109.024 10.4616 108.637 10.0655C108.25 9.66927 108.057 9.12768 108.057 8.4441C108.057 7.61025 108.339 6.9494 108.906 6.46281C109.473 5.97842 110.457 5.73469 111.855 5.73469C111.925 5.73469 112.035 5.73732 112.184 5.74257V5.43201C112.184 4.88516 112.102 4.47369 111.94 4.19369C111.778 3.91677 111.489 3.77657 111.07 3.77657C110.387 3.77657 109.976 4.17578 109.843 4.97337ZM112.184 6.745C111.983 6.72446 111.833 6.71399 111.727 6.71399C110.37 6.71399 109.689 7.24993 109.689 8.32488C109.689 9.10456 110.026 9.49593 110.701 9.49593C111.096 9.49593 111.442 9.2832 111.737 8.86127C112.035 8.43626 112.184 7.85621 112.184 7.11543V6.74504V6.745ZM115.51 2.81343H116.958V4.07706C117.35 3.15238 117.974 2.68896 118.826 2.68896C119.591 2.68896 120.207 3.02572 120.675 3.70146C121.144 4.3776 121.378 5.33855 121.378 6.58689C121.378 7.70595 121.165 8.65638 120.741 9.43868C120.315 10.2236 119.655 10.6145 118.76 10.6145C118.043 10.6145 117.484 10.304 117.081 9.68198V13.0702H115.51V2.81343H115.51ZM117.081 7.2735C117.081 7.76271 117.117 8.14619 117.189 8.42093C117.261 8.69523 117.41 8.93112 117.633 9.12549C117.854 9.31943 118.108 9.41814 118.39 9.41814C119.273 9.41814 119.715 8.47248 119.715 6.58163C119.715 4.75324 119.283 3.83903 118.42 3.83903C118.039 3.83903 117.72 4.02556 117.463 4.40116C117.209 4.77374 117.081 5.30749 117.081 5.99896V7.2735ZM124.273 4.97337L122.764 4.78425C122.864 4.1033 123.174 3.57217 123.698 3.1939C124.221 2.81562 124.863 2.62695 125.625 2.62695C126.306 2.62695 126.85 2.76412 127.258 3.041C127.666 3.31574 127.923 3.64466 128.028 4.02289C128.133 4.40335 128.184 4.97595 128.184 5.74516V8.35585C128.184 9.41552 128.231 10.12 128.32 10.4747H126.832C126.768 10.1978 126.734 9.77014 126.734 9.2006C126.259 10.1742 125.551 10.6612 124.606 10.6612C123.967 10.6612 123.454 10.4616 123.067 10.0655C122.679 9.66927 122.486 9.12768 122.486 8.4441C122.486 7.61025 122.769 6.9494 123.336 6.46281C123.903 5.97842 124.886 5.73469 126.285 5.73469C126.354 5.73469 126.465 5.73732 126.613 5.74257V5.43201C126.613 4.88516 126.531 4.47369 126.37 4.19369C126.208 3.91677 125.918 3.77657 125.499 3.77657C124.817 3.77657 124.406 4.17578 124.273 4.97337H124.273ZM126.613 6.745C126.413 6.72446 126.262 6.71399 126.157 6.71399C124.799 6.71399 124.119 7.24993 124.119 8.32488C124.119 9.10456 124.455 9.49593 125.13 9.49593C125.525 9.49593 125.872 9.2832 126.167 8.86127C126.465 8.43626 126.613 7.85621 126.613 7.11543V6.74504V6.745ZM130.754 10.4747V4.00983H129.013V2.81348H134.003V4.00983H132.325V10.4747H130.754ZM134.806 10.4747V2.81343H136.377V5.85916H138.641V2.81343H140.212V10.4747H138.641V7.056H136.377V10.4747H134.806ZM147.668 6.56372C147.668 9.2963 146.667 10.6612 144.663 10.6612C143.741 10.6612 143.015 10.3323 142.486 9.6719C141.958 9.01149 141.693 8.00118 141.693 6.63883C141.693 3.96306 142.694 2.6269 144.699 2.6269C145.612 2.6269 146.333 2.95319 146.867 3.60576C147.401 4.25834 147.668 5.24548 147.668 6.56372H147.668ZM146.005 6.64409C146.005 5.56651 145.887 4.82836 145.648 4.42696C145.409 4.02556 145.086 3.8233 144.681 3.8233C143.797 3.8233 143.356 4.76371 143.356 6.64409C143.356 7.60504 143.459 8.31481 143.664 8.77564C143.869 9.23428 144.208 9.46448 144.681 9.46448C145.148 9.46448 145.484 9.23166 145.692 8.76255C145.9 8.2965 146.005 7.58931 146.005 6.64413V6.64409ZM150.717 9.69244V10.4747H149.147V2.81343H150.717V6.13653C150.717 6.9494 150.699 7.4779 150.663 7.72163C150.887 7.23986 151.154 6.75021 151.464 6.25009L153.012 3.80802V2.81343H154.583V10.4747H153.012V7.35605C153.012 6.51699 153.03 5.99108 153.066 5.77879C152.848 6.32258 152.555 6.8795 152.18 7.45214L150.717 9.69244H150.717ZM149.562 0.000488281H150.61C150.766 0.570067 151.182 0.855273 151.864 0.855273C152.534 0.855273 152.95 0.570067 153.105 0.000488281H154.167C153.913 1.22308 153.145 1.83413 151.87 1.83413C150.586 1.83413 149.819 1.22308 149.562 0.000488281H149.562ZM159.298 2.81343H160.869V6.22955L163.314 2.81343H164.872L162.906 5.45251L165.088 10.4747H163.389L161.872 6.64142L160.869 8.04003V10.4747H159.298V2.81339L159.298 2.81343ZM171.415 6.56372C171.415 9.2963 170.414 10.6612 168.409 10.6612C167.488 10.6612 166.762 10.3323 166.233 9.6719C165.704 9.01149 165.44 8.00118 165.44 6.63883C165.44 3.96306 166.441 2.6269 168.445 2.6269C169.359 2.6269 170.08 2.95319 170.614 3.60576C171.148 4.25834 171.415 5.24548 171.415 6.56372H171.415ZM169.752 6.64409C169.752 5.56651 169.633 4.82836 169.395 4.42696C169.156 4.02556 168.832 3.8233 168.427 3.8233C167.544 3.8233 167.103 4.76371 167.103 6.64409C167.103 7.60504 167.206 8.31481 167.411 8.77564C167.616 9.23428 167.955 9.46448 168.427 9.46448C168.894 9.46448 169.23 9.23166 169.439 8.76255C169.646 8.2965 169.752 7.58931 169.752 6.64413V6.64409ZM178.16 5.38002L176.651 5.5482C176.576 4.88516 176.448 4.44224 176.268 4.21949C176.086 3.99674 175.832 3.8858 175.501 3.8858C175.036 3.8858 174.697 4.10071 174.487 4.53312C174.276 4.96553 174.171 5.7247 174.171 6.80969C174.171 8.50616 174.615 9.35573 175.501 9.35573C176.183 9.35573 176.566 8.80144 176.651 7.69289L178.16 7.8305C177.954 9.71833 177.031 10.6613 175.388 10.6613C174.415 10.6613 173.694 10.3067 173.227 9.59946C172.757 8.89232 172.524 7.91302 172.524 6.66205C172.524 5.34906 172.778 4.34663 173.283 3.6578C173.789 2.97115 174.526 2.62699 175.493 2.62699C177.051 2.62699 177.939 3.54379 178.16 5.38007V5.38002ZM179.156 10.4747V2.81343H181.456L183.029 9.23687L184.576 2.81343H186.717V10.4747H185.285V4.2173L183.653 10.4747H182.03L180.434 4.2173V10.4747H179.156H179.156ZM194.099 6.86947H189.794C189.794 7.90553 189.935 8.59958 190.216 8.94378C190.495 9.29104 190.845 9.46444 191.268 9.46444C191.974 9.46444 192.418 8.98788 192.605 8.03482L194.037 8.22393C193.66 9.84792 192.723 10.6612 191.222 10.6612C190.303 10.6612 189.569 10.3297 189.022 9.66665C188.475 9.00361 188.201 8.03482 188.201 6.75284C188.201 5.43941 188.475 4.4217 189.027 3.70404C189.579 2.98683 190.318 2.6269 191.24 2.6269C191.886 2.6269 192.43 2.80555 192.872 3.16547C193.314 3.52277 193.624 3.99451 193.806 4.57718C193.986 5.15985 194.084 5.9238 194.099 6.86947ZM192.497 5.79714C192.497 4.45008 192.058 3.77657 191.183 3.77657C190.364 3.77657 189.913 4.45008 189.833 5.79714H192.497ZM196.083 10.4747V4.00983H194.343V2.81348H199.333V4.00983H197.654V10.4747H196.083ZM205.831 6.56372C205.831 9.2963 204.831 10.6612 202.826 10.6612C201.904 10.6612 201.178 10.3323 200.649 9.6719C200.121 9.01149 199.856 8.00118 199.856 6.63883C199.856 3.96306 200.857 2.6269 202.862 2.6269C203.776 2.6269 204.497 2.95319 205.031 3.60576C205.565 4.25834 205.831 5.24548 205.831 6.56372H205.831ZM204.168 6.64409C204.168 5.56651 204.05 4.82836 203.811 4.42696C203.573 4.02556 203.249 3.8233 202.844 3.8233C201.961 3.8233 201.519 4.76371 201.519 6.64409C201.519 7.60504 201.622 8.31481 201.828 8.77564C202.033 9.23428 202.372 9.46448 202.844 9.46448C203.311 9.46448 203.647 9.23166 203.855 8.76255C204.063 8.2965 204.168 7.58931 204.168 6.64413V6.64409ZM206.201 10.4747L208.306 2.81343H210.128L212.084 10.4747H210.436L209.089 4.36231L207.605 10.4747H206.201H206.201ZM218.426 6.56372C218.426 9.2963 217.425 10.6612 215.421 10.6612C214.499 10.6612 213.773 10.3323 213.244 9.6719C212.715 9.01149 212.451 8.00118 212.451 6.63883C212.451 3.96306 213.451 2.6269 215.456 2.6269C216.37 2.6269 217.091 2.95319 217.625 3.60576C218.159 4.25834 218.426 5.24548 218.426 6.56372H218.426ZM216.763 6.64409C216.763 5.56651 216.645 4.82836 216.406 4.42696C216.167 4.02556 215.844 3.8233 215.438 3.8233C214.555 3.8233 214.114 4.76371 214.114 6.64409C214.114 7.60504 214.217 8.31481 214.422 8.77564C214.627 9.23428 214.966 9.46448 215.438 9.46448C215.905 9.46448 216.242 9.23166 216.45 8.76255C216.658 8.2965 216.763 7.58931 216.763 6.64413V6.64409ZM223.908 2.81343V4.00979H221.475V10.4747H219.904V2.81339H223.908V2.81343ZM226.408 9.69244V10.4747H224.838V2.81343H226.408V6.13653C226.408 6.9494 226.39 7.4779 226.354 7.72163C226.577 7.23986 226.845 6.75021 227.155 6.25009L228.703 3.80802V2.81343H230.273V10.4747H228.703V7.35605C228.703 6.51699 228.721 5.99108 228.757 5.77879C228.539 6.32258 228.246 6.8795 227.871 7.45214L226.408 9.69244H226.408ZM233.687 9.69244V10.4747H232.117V2.81343H233.687V6.13653C233.687 6.9494 233.669 7.4779 233.633 7.72163C233.856 7.23986 234.124 6.75021 234.434 6.25009L235.982 3.80802V2.81343H237.553V10.4747H235.982V7.35605C235.982 6.51699 236 5.99108 236.036 5.77879C235.818 6.32258 235.525 6.8795 235.15 7.45214L233.687 9.69244H233.687Z" fill="#010101"/>
<path fill-rule="evenodd" clip-rule="evenodd" d="M27.7284 22.1712C27.0542 23.2933 26.2705 24.3517 25.383 25.3401C24.4958 26.3286 23.5738 27.2362 22.6173 28.0613C22.9402 28.1661 23.2281 28.2535 23.4759 28.3172C23.7238 28.3871 23.9367 28.4452 24.1152 28.492C24.2997 28.5265 24.4842 28.5557 24.6743 28.5907C24.8644 28.6256 25.0605 28.6662 25.2623 28.713C25.6709 28.7881 26.0865 28.8754 26.524 28.9567C26.9559 29.0441 27.3827 29.1314 27.7978 29.2244C28.6388 29.4162 29.388 29.5791 30.0333 29.7071C30.6786 29.8407 31.2377 29.9455 31.7101 30.0211C33.8305 30.3173 35.4035 30.3059 36.441 29.9862C37.5071 29.6957 38.3942 29.2419 39.0917 28.6256C39.5063 28.3408 39.8814 28.1193 40.2155 27.9625C40.5435 27.8053 40.8147 27.7009 41.0164 27.6546C41.2177 27.6079 41.3393 27.6253 41.3793 27.6948C41.4194 27.7708 41.3504 27.8988 41.1836 28.0792C37.8295 30.9865 32.5226 32.0444 25.2622 31.2481C24.6919 31.1612 24.1384 31.0677 23.6026 30.9747C23.0663 30.8873 22.5422 30.7886 22.0236 30.6899C21.5163 30.5969 21.0731 30.5095 20.6925 30.4222C20.3062 30.3409 19.9782 30.2654 19.6954 30.213C18.6065 30.6663 17.5233 31.0446 16.446 31.3412C15.374 31.6434 14.2558 31.8758 13.0919 32.033C11.9336 32.2134 10.8215 32.3126 9.76149 32.3239C8.69548 32.3353 7.66953 32.2772 6.67851 32.1553C5.65862 31.9806 4.75379 31.7657 3.97012 31.498C3.18687 31.2306 2.495 30.8996 1.8846 30.4982C0.725879 29.7709 0.201714 28.9109 0.316817 27.9102C0.449598 26.9222 1.34276 26.1775 3.00192 25.6778C3.84334 25.4389 4.84041 25.3056 5.98708 25.2764C7.1337 25.2532 8.48208 25.3458 10.021 25.5611C10.9137 25.7066 11.8819 25.8752 12.9363 26.0726C13.9851 26.2648 15.1606 26.4915 16.4573 26.7531C17.097 26.8754 17.6789 26.9973 18.2091 27.1196C18.7393 27.2362 19.2403 27.3524 19.7131 27.4685C19.9606 27.5266 20.1972 27.5786 20.4218 27.631C20.6468 27.6778 20.8714 27.7359 21.096 27.794C21.5456 27.8927 21.8103 27.9451 21.8913 27.9451C22.6461 27.3 23.3548 26.5321 24.0177 25.6541C24.6799 24.7762 25.3312 23.7991 25.9709 22.7289C25.9709 22.7176 25.9765 22.7119 25.9882 22.7001C24.8993 23.2644 23.735 23.6016 22.4961 23.7003C21.0731 23.6829 19.9493 23.2701 19.1307 22.4673C18.3186 21.6649 17.8401 20.4729 17.7078 18.8799C17.6039 17.1528 17.8863 15.6175 18.5488 14.2631C19.2346 12.809 20.1338 11.5353 21.2343 10.4421C22.3348 9.3431 23.6716 8.46558 25.2445 7.80819C25.4812 7.70334 25.7631 7.58719 26.092 7.45922C26.4145 7.32555 26.7718 7.21505 27.152 7.12767C27.5383 7.03465 27.9357 6.97088 28.362 6.94202C28.7832 6.90707 29.2095 6.94202 29.647 7.0403C30.091 7.14515 30.5229 7.3255 30.9493 7.59328C31.376 7.86061 31.7912 8.23841 32.1942 8.72718C32.4304 8.17464 32.6438 7.7326 32.8223 7.41857C33.0585 6.98222 33.312 6.56944 33.5887 6.16278C33.8655 5.76138 34.1707 5.37785 34.5107 5.0171C34.7754 4.77862 35.0866 4.50564 35.4384 4.20291C35.7841 3.90676 36.1298 3.63859 36.4643 3.41233C36.0492 3.53418 35.6112 3.64516 35.1556 3.73205C34.7008 3.82508 34.2224 3.88884 33.7154 3.93558C33.2775 3.95261 32.7472 3.96483 32.1248 3.98187C31.5084 3.99934 30.7708 4.00504 29.9177 4.00504C29.0944 3.99369 28.4026 3.99369 27.8378 3.99934C27.2792 4.00504 26.8352 4.00504 26.5239 4.00504C25.6308 4.05177 24.8411 4.22083 24.144 4.51694C23.447 4.81353 22.7439 5.24944 22.0292 5.82511C21.684 6.14483 21.286 6.51132 20.8421 6.91841C20.3989 7.3255 19.9144 7.78502 19.3958 8.29648C18.86 8.81977 18.4225 9.23864 18.0992 9.5588C17.7711 9.87852 17.5289 10.1109 17.3732 10.2564C17.2814 10.3258 17.1892 10.3839 17.0969 10.425C16.9986 10.4713 16.9064 10.5005 16.8146 10.5123C16.6473 10.5704 16.7741 10.3839 17.1948 9.9598C17.6155 9.53523 18.3069 8.83768 19.2635 7.87196C19.8803 7.2906 20.4506 6.77301 20.9576 6.30214C21.4701 5.83698 21.9887 5.3779 22.5072 4.92407C23.8327 3.89454 25.1066 3.12757 26.3278 2.62701C27.5498 2.12733 28.6732 1.84208 29.6991 1.77266C30.2694 1.74906 30.9031 1.76697 31.595 1.83074C32.2864 1.89451 33.0412 1.99936 33.8477 2.14481C34.637 2.26665 35.3517 2.36537 35.9918 2.42957C36.6311 2.49947 37.2242 2.52829 37.7665 2.51695C37.8872 2.45887 37.9911 2.4121 38.0661 2.3715C38.1463 2.33046 38.2161 2.3016 38.2734 2.27804C38.3829 2.26669 38.4575 2.31343 38.4924 2.41779C38.4924 2.47022 38.4691 2.52264 38.4234 2.56894C38.3773 2.61567 38.3135 2.66809 38.2389 2.73755C38.1002 2.79563 37.9161 2.87731 37.6799 2.98785C37.6682 2.9992 37.6394 3.01711 37.5936 3.04028H37.576C37.3975 3.15647 37.1781 3.30192 36.919 3.48188C36.7634 3.60416 36.5966 3.74961 36.4237 3.90689C36.2509 4.06938 36.0836 4.22661 35.9219 4.39523C35.7668 4.55771 35.6344 4.70929 35.5189 4.84248C35.4094 4.98224 35.3288 5.08709 35.2827 5.16833C35.196 5.36007 35.0404 5.72087 34.8214 6.24981C34.6029 6.77874 34.3606 7.36667 34.1011 8.0118C35.3055 7.33128 36.5906 6.93597 37.9506 6.81978C39.3796 6.84339 40.4977 7.25613 41.3159 8.05853C42.1285 8.85481 42.6065 10.0529 42.7393 11.6402C42.8428 13.3673 42.5604 14.9083 41.8979 16.2575C41.212 17.7107 40.3133 18.9844 39.2071 20.0838C38.1002 21.1766 36.7578 22.0546 35.1849 22.7119C34.9482 22.8164 34.6434 22.9212 34.2801 23.0199C33.9171 23.1247 33.508 23.206 33.064 23.2702C32.6209 23.3282 32.1596 23.3571 31.6751 23.3514C31.1915 23.3457 30.719 23.2933 30.2638 23.1828C29.8082 23.078 29.3819 22.898 28.9844 22.6539C28.587 22.4093 28.2469 22.0725 27.9818 21.6422C27.9245 21.7467 27.8779 21.8392 27.8378 21.9327C27.7977 22.0201 27.7628 22.1013 27.7283 22.1712H27.7284ZM30.886 12.0005C30.9493 11.8149 31.0243 11.6227 31.1049 11.4192C31.1799 11.2156 31.2662 11.0007 31.3584 10.774C31.4451 10.3089 31.4679 9.89564 31.4161 9.53528C31.3644 9.18061 31.2782 8.87224 31.1511 8.61673C31.0304 8.36078 30.8804 8.1629 30.6958 8.01176C30.5174 7.86631 30.3445 7.76759 30.1772 7.72086C29.4341 7.49417 28.731 7.43609 28.0629 7.5352C27.3999 7.63962 26.7835 7.86061 26.2071 8.20959C25.6368 8.55248 25.0949 8.99452 24.5936 9.51776C24.0923 10.0471 23.6427 10.6167 23.2336 11.2335C22.8306 11.8436 22.4676 12.4774 22.1387 13.1348C21.8103 13.7856 21.5339 14.4081 21.2977 14.9955C20.8882 16.0303 20.6007 17.0017 20.4274 17.9028C20.2489 18.8039 20.1855 19.6592 20.2317 20.4672C20.3006 21.3513 20.5485 22.037 20.9804 22.5197C21.4184 23.0028 22.0409 23.2408 22.8478 23.2408C24.3113 23.1303 25.6307 22.4328 26.8179 21.1473C27.1869 20.3973 27.5611 19.6181 27.9473 18.8162C28.3275 18.0077 28.6965 17.2053 29.0538 16.4025C29.4052 15.6001 29.7392 14.8265 30.0505 14.0765C30.3561 13.3266 30.638 12.6343 30.8859 12.0005L30.886 12.0005ZM32.6551 11.6402C32.5283 11.9717 32.3438 12.443 32.096 13.065C31.8485 13.6813 31.5662 14.3614 31.2494 15.1004C30.9381 15.8386 30.598 16.5829 30.2411 17.3385C29.8777 18.095 29.5147 18.7638 29.1402 19.3395C29.0652 19.4557 28.9268 19.6994 28.7371 20.072C28.6099 20.4848 28.5754 20.8451 28.6156 21.1535C28.6617 21.4675 28.7656 21.7292 28.9324 21.9384C29.0945 22.1476 29.2958 22.3162 29.5376 22.4329C29.7799 22.5547 30.0333 22.6246 30.304 22.6478C30.9898 22.9099 31.6584 22.9968 32.2977 22.9099C32.9378 22.8282 33.5482 22.6185 34.1185 22.2874C34.6953 21.962 35.2367 21.5374 35.744 21.0198C36.2509 20.5023 36.7178 19.9384 37.1442 19.3273C37.5705 18.7114 37.9507 18.0772 38.2908 17.4259C38.6309 16.7751 38.9132 16.1526 39.1551 15.5595C39.9387 13.5127 40.2961 11.6926 40.2155 10.0935C40.1461 9.20378 39.8982 8.5237 39.4663 8.04106C39.034 7.55798 38.4115 7.31425 37.5994 7.31425C36.0777 7.43044 34.7065 8.18042 33.4792 9.58205C33.312 10.0005 33.1508 10.3901 33.0068 10.7562C32.8624 11.117 32.7417 11.4135 32.6551 11.6402V11.6402ZM18.8773 30.0557C17.5466 29.8176 16.2556 29.5735 15.0055 29.3232C13.7489 29.0733 12.4755 28.7999 11.1789 28.5094C9.88268 28.2242 8.70671 27.9744 7.65233 27.7651C6.5919 27.5559 5.58363 27.3751 4.62754 27.2296C3.94129 27.1134 3.35933 27.044 2.87566 27.0147C2.39113 26.9859 1.98808 27.0029 1.67687 27.0672C1.35962 27.1314 1.12383 27.2419 0.962612 27.3987C0.807009 27.5559 0.714728 27.7651 0.679847 28.015C0.541922 28.6606 0.956604 29.3293 1.91313 30.0212C2.38556 30.3527 3.04251 30.655 3.88397 30.9341C4.73101 31.2132 5.77982 31.4574 7.04155 31.6722C9.00076 31.9461 11.0638 31.9168 13.2364 31.5914C14.2964 31.4342 15.2874 31.225 16.2151 30.9747C17.1488 30.7248 18.0303 30.4221 18.8774 30.0557H18.8773ZM50.7611 17.2634C50.859 17.2634 50.9284 17.2866 50.9629 17.3329C50.9974 17.3796 51.009 17.4377 51.009 17.5015C51.0034 17.6181 50.7495 17.7867 50.2598 18.0134C49.7701 18.2405 49.1192 18.7346 48.3123 19.4963C47.2751 20.5892 46.4104 21.9559 45.719 23.5956C45.028 25.2353 44.6706 26.6951 44.6473 27.9801C44.6473 28.6951 44.7913 29.2477 45.0853 29.6316C45.3789 30.0212 45.8056 30.213 46.3703 30.213C47.7648 30.0736 49.0209 29.1546 50.1443 27.4511C51.2741 25.7472 52.0634 24.0608 52.5242 22.3922C52.2363 21.8803 52.0177 21.3684 51.8793 20.8508C51.7349 20.3336 51.6659 19.8392 51.6659 19.3627C51.6659 18.7577 51.7638 18.2807 51.9595 17.9204C52.1612 17.5657 52.438 17.3796 52.8014 17.3678C53.1699 17.3796 53.4756 17.6299 53.7113 18.1296C53.9536 18.6241 54.0743 19.281 54.0859 20.0952C53.9941 22.4617 53.1522 24.7701 51.5565 27.0091C49.9602 29.2477 48.1161 30.4571 46.0358 30.6257C45.028 30.6144 44.2443 30.2715 43.6908 29.5966C43.1433 28.9223 42.861 27.9338 42.8498 26.6426C42.8726 25.2475 43.155 23.9734 43.708 22.8224C44.2555 21.6711 44.912 20.7114 45.6788 19.9554C46.7677 18.9437 47.851 18.2405 48.9287 17.8448C50.0007 17.4434 50.6111 17.2516 50.7611 17.2634ZM58.4432 17.3564C59.0368 17.3678 59.4919 17.5364 59.7971 17.8561C60.1084 18.182 60.264 18.5834 60.264 19.0599C60.264 19.2984 60.2006 19.6125 60.0795 19.9964C59.9528 20.3799 59.7627 20.9032 59.4976 21.5606C59.2329 22.2236 58.8984 23.0487 58.4893 24.0494C58.0858 25.0496 57.5961 26.2818 57.0254 27.7473C56.8758 28.1081 56.7491 28.4335 56.6452 28.7187C56.5357 29.0035 56.4779 29.2538 56.4667 29.4687C57.8845 26.5496 59.129 24.2704 60.1946 22.6303C61.2666 20.9849 62.1887 19.7868 62.9668 19.0255C63.6522 18.3449 64.2169 17.8916 64.6604 17.6649C65.1044 17.4377 65.4385 17.3329 65.6635 17.3565C66.2278 17.391 66.6545 17.6526 66.9481 18.1414C67.2421 18.6298 67.3865 19.1237 67.3865 19.6182C67.3167 21.3571 66.5274 23.5607 65.0066 26.2238C63.4854 28.8874 61.6296 30.3528 59.4342 30.6258C58.9501 30.6026 58.4664 30.5096 57.9703 30.3353C57.475 30.1667 57.0547 29.9689 56.7202 29.7417C56.2016 30.7599 55.6999 31.975 55.2106 33.3763C54.7205 34.778 54.1902 36.7487 53.6312 39.2786C53.4699 39.86 53.3721 40.3719 53.332 40.8192C53.2975 41.273 53.1764 41.511 52.9691 41.5464C52.8014 41.4652 52.6289 41.1219 52.4561 40.5055C52.2828 39.8949 52.191 39.3948 52.1793 39.0113C52.191 38.5981 52.2431 38.1329 52.3466 37.6096C52.4505 37.0863 52.554 36.4233 52.6695 35.6152C53.1937 33.5505 53.7868 31.5212 54.4498 29.5268C55.1067 27.5324 55.7404 25.7066 56.3457 24.0433C56.9565 22.3805 57.4634 21.0142 57.8669 19.9554C58.2704 18.8914 58.4833 18.2807 58.5066 18.1239C58.5066 18.0309 58.4665 17.9553 58.3911 17.9029C58.3109 17.8449 58.2126 17.8156 58.0859 17.8156C57.8035 17.8042 57.366 17.9322 56.772 18.2052C56.1723 18.4786 55.4982 18.9844 54.7438 19.723C54.1903 20.3162 53.8101 20.7757 53.5972 21.1011C53.3838 21.4326 53.2342 21.6012 53.1588 21.613C53.1015 21.613 53.0553 21.6069 53.0208 21.5955C52.9864 21.5837 52.9691 21.5488 52.9691 21.4789C53.0264 21.1473 53.6028 20.4149 54.6921 19.2809C55.7866 18.147 57.0315 17.5015 58.4432 17.3564H58.4432ZM56.8409 29.3931C57.1582 29.5966 57.5272 29.794 57.9591 29.9862C58.3854 30.1841 58.8867 30.2828 59.4575 30.2946C59.8778 30.2828 60.2467 30.2011 60.5748 30.0386C60.8981 29.8814 61.186 29.6778 61.4339 29.428C62.471 28.2592 63.3987 26.5151 64.2168 24.2062C65.041 21.8917 65.473 20.072 65.5191 18.7459C65.5191 18.438 65.4958 18.2283 65.4441 18.1064C65.3924 17.9902 65.3118 17.9322 65.1967 17.9435C64.557 17.9553 63.4564 18.9437 61.8891 20.8975C60.3274 22.8574 58.6445 25.6891 56.8409 29.3931H56.8409ZM76.082 30.1784C75.9436 30.2536 75.7483 30.3173 75.4888 30.3527C75.2293 30.3933 74.9875 30.3759 74.7629 30.2946C74.5379 30.213 74.365 30.0557 74.2379 29.812C74.1172 29.5674 74.1172 29.2014 74.2379 28.713C74.2961 28.5733 74.4 28.3697 74.5435 28.0963C74.6935 27.8233 74.8603 27.5036 75.0621 27.1371C75.2582 26.765 75.4712 26.3636 75.7078 25.9333C75.9436 25.5026 76.1859 25.061 76.4282 24.6133C76.67 24.1656 76.9062 23.7236 77.1424 23.2933C77.3786 22.8631 77.592 22.4616 77.7877 22.0838C78.0356 21.5955 78.2718 21.136 78.4969 20.694C78.7214 20.2581 78.9344 19.8392 79.1361 19.4439C79.5512 18.659 79.7702 18.1702 79.7935 17.9789C79.7935 17.8562 79.7125 17.7924 79.5396 17.7924C79.24 17.8155 78.8654 18.0191 78.4274 18.403C77.9895 18.7926 77.4998 19.3045 76.9579 19.944C76.4161 20.5891 75.8286 21.3395 75.1949 22.1943C74.5612 23.0552 73.8982 23.962 73.2128 24.9273C72.884 25.3807 72.5443 25.8813 72.1985 26.4216C71.8468 26.9567 71.4722 27.4913 71.0687 28.015C70.6597 28.5326 70.2277 29.0092 69.7665 29.4455C69.3057 29.8757 68.7983 30.213 68.2456 30.4514C67.4732 30.4401 66.8568 30.2365 66.4072 29.8465C65.958 29.4511 65.7101 28.9454 65.664 28.3172C65.5545 27.6835 65.6062 27.1659 65.8252 26.7588C66.0442 26.3578 66.3265 26.0962 66.6783 25.9682C66.949 25.8983 67.2197 25.9507 67.4904 26.1193C67.7555 26.294 67.9456 26.5321 68.0439 26.8348C68.1012 27.224 68.09 27.5498 68.009 27.8176C67.9344 28.0849 67.7671 28.3754 67.5193 28.6951C67.4331 28.9109 67.3926 29.1022 67.4042 29.2708C67.4158 29.4455 67.4675 29.5792 67.5538 29.6836C67.5538 29.7596 67.6115 29.8408 67.7154 29.9107C67.8249 29.9863 67.9629 30.0212 68.1305 30.0212C68.4353 30.0099 68.7754 29.8351 69.1612 29.4866C69.5419 29.1372 69.9393 28.7073 70.3484 28.1836C70.7575 27.6603 71.1782 27.0903 71.5994 26.4684C72.0201 25.852 72.4171 25.2589 72.7861 24.6889C72.9818 24.398 73.259 23.9909 73.6275 23.4737C73.9905 22.9562 74.4 22.3923 74.8548 21.7873C75.31 21.1767 75.794 20.566 76.301 19.9441C76.8084 19.3273 77.3041 18.7752 77.7938 18.2864C78.283 17.7981 78.7443 17.4032 79.1711 17.1123C79.5974 16.8153 79.9603 16.6935 80.2483 16.7515C80.6807 16.7751 81.0091 16.9551 81.2454 17.2866C81.4816 17.6238 81.6027 18.089 81.6027 18.6764C81.6027 19.1883 81.4988 19.6536 81.2975 20.072C81.251 20.1768 81.1588 20.3511 81.0204 20.5953C80.8764 20.8394 80.6518 21.2291 80.3462 21.7584C80.0349 22.2931 79.6202 23.0085 79.1017 23.9096C78.5831 24.805 77.9322 25.9564 77.1425 27.3637L76.7911 28.0443C76.6756 28.2185 76.5894 28.3871 76.5261 28.5557C76.4683 28.73 76.4394 28.8523 76.4511 28.9222C76.4623 28.9977 76.5201 28.9977 76.6239 28.9165C76.7218 28.8348 76.883 28.6313 77.108 28.2997C77.6727 27.5729 78.1857 26.9155 78.6404 26.3285C79.0961 25.7358 79.5108 25.1889 79.897 24.6888C80.2772 24.1887 80.6402 23.7235 80.9743 23.2876C81.3144 22.8455 81.6545 22.421 81.9886 22.0082C82.3287 21.5954 82.6744 21.1709 83.0257 20.7402C83.3831 20.3043 83.7693 19.8448 84.184 19.3564C84.6685 18.7807 85.1177 18.3273 85.5324 17.9958C85.9531 17.6647 86.3855 17.4726 86.8347 17.4145L89.2323 17.2983C88.4886 18.8969 87.8261 20.3043 87.2494 21.5137C86.6678 22.7232 86.1605 23.7759 85.7225 24.6652C85.2789 25.5549 84.91 26.3053 84.5987 26.9042C84.2879 27.5091 84.0405 28.0088 83.8443 28.4046C83.6538 28.7999 83.5215 29.1078 83.4408 29.3231C83.3598 29.5385 83.3257 29.7071 83.3257 29.8176C83.3257 30.0556 83.4464 30.1784 83.6943 30.1784C84.0978 30.1666 84.5185 29.9805 84.9448 29.6315C85.3595 29.2769 85.7341 28.9397 86.0566 28.6081C86.4432 28.2124 86.7601 27.8521 87.0191 27.5267C87.2787 27.2008 87.4804 26.9278 87.63 26.7007C87.93 26.2473 88.1486 26.0088 88.2697 25.9857C88.3848 25.9857 88.4365 26.0324 88.4365 26.1193C88.4253 26.2591 88.1947 26.6252 87.7455 27.2297C87.5205 27.5267 87.2899 27.8115 87.0481 28.0906C86.8062 28.3697 86.5523 28.6427 86.2933 28.9166C86.1489 29.0734 85.9764 29.242 85.7691 29.4162C85.5674 29.5966 85.3367 29.777 85.0777 29.9688C84.5819 30.3352 84.034 30.5445 83.4236 30.6026C82.8762 30.5912 82.4554 30.4514 82.1671 30.1841C81.8791 29.9164 81.7351 29.4979 81.7351 28.9166C81.7123 28.4278 81.8679 27.7884 82.1904 26.9916C82.5188 26.1949 82.9857 25.1772 83.5909 23.9385C83.9883 23.1597 84.4552 22.2931 84.9966 21.3513C85.5324 20.4092 86.0915 19.3334 86.6679 18.1296C86.5873 18.0309 86.495 17.9846 86.3855 18.0016C86.2816 18.0191 86.1549 18.0833 86.017 18.1938C85.8726 18.2987 85.717 18.4498 85.5324 18.6354C85.354 18.8219 85.1578 19.0368 84.9449 19.2753C84.7432 19.5662 84.4837 19.903 84.1785 20.2813C83.8672 20.6534 83.5388 21.0373 83.1987 21.4388C82.8534 21.8336 82.5133 22.2293 82.1732 22.6303C81.8391 23.0261 81.5335 23.3921 81.2627 23.718C80.9687 24.084 80.6631 24.474 80.3463 24.8925C80.0238 25.3171 79.6954 25.7416 79.3669 26.1832C79.0328 26.6195 78.7043 27.0498 78.3759 27.4743C78.053 27.9045 77.7418 28.2942 77.4599 28.6493C77.1715 29.0092 76.9064 29.3233 76.6701 29.591C76.4339 29.8584 76.2378 30.0501 76.0822 30.1785L76.082 30.1784ZM92.5173 17.3329C92.9669 17.3447 93.3527 17.5657 93.6695 17.9902C93.9919 18.4148 94.1596 18.9905 94.1708 19.7055C94.1475 20.3393 93.923 21.1535 93.491 22.1419C93.0647 23.1247 92.569 24.1542 92.0099 25.2239C91.4452 26.2879 90.9555 27.2419 90.5408 28.0849C90.1257 28.9279 89.9128 29.5154 89.9128 29.8583C89.924 30.0269 89.9873 30.1492 90.1024 30.213C90.2119 30.2829 90.3391 30.3174 90.4714 30.3174C90.8404 30.2946 91.215 30.1317 91.5952 29.8233C91.9694 29.5154 92.2867 29.2245 92.5462 28.9511C93.7734 27.7071 95.2024 25.9682 96.8275 23.7472C98.4523 21.5313 99.7778 19.4264 100.804 17.4377H102.711L99.8411 25.6542C100.728 24.788 101.311 24.2001 101.581 23.8804C101.852 23.5606 102.043 23.4152 102.152 23.4387C102.221 23.4387 102.261 23.4501 102.273 23.4737C102.284 23.4969 102.29 23.52 102.29 23.5549C102.336 23.6244 102.175 23.8341 101.818 24.1774C101.455 24.5264 100.659 25.3283 99.4204 26.5902C98.0893 30.0557 96.9025 32.8939 95.8593 35.1032C94.8106 37.313 93.7618 38.9588 92.719 40.0398C92.1315 40.6216 91.5319 41.0868 90.9094 41.4358C90.293 41.7905 89.7283 41.9766 89.2209 41.9997C88.6622 41.9766 88.2531 41.7905 88.0053 41.4358C87.7574 41.0869 87.6307 40.6391 87.6307 40.1102C87.7346 38.7898 88.3394 37.4178 89.4575 35.9987C90.5748 34.5799 91.5663 33.4574 92.4306 32.6437C92.9841 32.0968 93.6639 31.4574 94.4648 30.7249C95.2713 29.9919 95.9455 29.3581 96.4813 28.8235L99.5872 20.4673C99.1496 21.0373 98.6656 21.6942 98.1353 22.4385C97.6107 23.1828 97.0521 23.9563 96.4641 24.7526C95.8826 25.555 95.2885 26.3342 94.6838 27.0903C94.0846 27.8463 93.5315 28.4976 93.0242 29.0558C92.6957 29.3992 92.2806 29.7416 91.7741 30.0967C91.2667 30.4457 90.771 30.6375 90.2869 30.6724C89.7339 30.6375 89.3248 30.3933 89.048 29.9338C88.7717 29.4743 88.6333 28.9043 88.6333 28.2186C88.6333 27.5961 88.835 26.8056 89.2385 25.852C89.6476 24.8981 90.1201 23.9097 90.6615 22.8863C91.1973 21.8685 91.6758 20.9439 92.0965 20.1301C92.5112 19.3103 92.7301 18.7289 92.7534 18.3912C92.7534 18.2051 92.7129 18.0715 92.6267 17.9724C92.54 17.8741 92.4189 17.8274 92.2633 17.8274C91.9693 17.8505 91.6645 17.9789 91.3529 18.217C91.0361 18.4554 90.7654 18.6996 90.5408 18.9381C89.7627 19.7637 89.1868 20.4617 88.8118 21.0255C88.4316 21.5838 88.1665 21.8803 88.0052 21.9039C87.9535 21.9039 87.9074 21.8917 87.8781 21.8685C87.8496 21.8454 87.838 21.8105 87.838 21.7641C87.8958 21.5025 88.2014 21.0312 88.7661 20.3393C89.3304 19.6536 89.8377 19.0835 90.2869 18.6297C90.7249 18.1995 91.1283 17.8741 91.4913 17.6587C91.8603 17.4434 92.2004 17.3329 92.5173 17.3329ZM96.1822 29.6255C94.4708 31.0909 92.8285 32.8123 91.2611 34.7835C89.6933 36.7609 88.8523 38.6447 88.7372 40.4242C88.7372 40.7671 88.7945 41.0344 88.9153 41.2266C89.0312 41.4184 89.2265 41.5232 89.4976 41.5346C89.7451 41.5232 89.9817 41.4358 90.2119 41.2847C90.4425 41.1331 90.6788 40.9357 90.915 40.6972C91.3762 40.1857 91.8314 39.5401 92.2806 38.7609C92.7302 37.9873 93.1686 37.1094 93.5833 36.1327C93.9984 35.1556 94.4187 34.1147 94.8511 33.0044C95.2774 31.8994 95.721 30.7711 96.1822 29.6254L96.1822 29.6255ZM103.322 28.6951C103.236 28.9109 103.195 29.1079 103.207 29.2769C103.218 29.4455 103.27 29.5848 103.356 29.6835C103.356 29.7652 103.415 29.8408 103.518 29.9164C103.628 29.9863 103.766 30.0269 103.933 30.0269C104.238 30.0155 104.578 29.8351 104.964 29.4922C105.345 29.1433 105.742 28.7073 106.151 28.1836C106.561 27.666 106.981 27.0903 107.402 26.474C107.823 25.852 108.22 25.2589 108.589 24.6945C108.785 24.3979 109.05 24.0088 109.396 23.52C109.736 23.0317 110.122 22.5023 110.542 21.944C110.963 21.3806 111.407 20.8163 111.873 20.258C112.34 19.6937 112.801 19.1883 113.262 18.7402C113.717 18.2925 114.144 17.9378 114.553 17.6762C114.956 17.4146 115.308 17.3098 115.596 17.3678C116.028 17.391 116.357 17.5714 116.593 17.9029C116.829 18.2405 116.95 18.7053 116.95 19.2928C116.95 19.8042 116.846 20.2694 116.645 20.6883C116.552 20.9032 116.426 21.1649 116.258 21.4675C116.086 21.7641 115.89 22.1131 115.665 22.5141C115.071 23.8279 114.553 24.9212 114.121 25.7939C113.689 26.6605 113.331 27.3694 113.049 27.9102C112.767 28.457 112.559 28.8698 112.433 29.149C112.305 29.4281 112.236 29.6198 112.236 29.736C112.236 29.8465 112.277 29.9514 112.357 30.0444C112.438 30.1318 112.548 30.1785 112.692 30.1785C112.951 30.1667 113.233 30.0444 113.539 29.8063C113.694 29.6897 113.833 29.5849 113.942 29.4866C114.057 29.3932 114.155 29.3001 114.248 29.2071C114.541 28.8874 114.818 28.5733 115.083 28.2649C115.348 27.9508 115.596 27.6368 115.832 27.3171C116.316 26.6719 116.627 26.3229 116.76 26.2762C116.817 26.2762 116.852 26.288 116.863 26.3111C116.875 26.3343 116.881 26.3696 116.881 26.416C116.835 26.6195 116.523 27.079 115.953 27.794C115.671 28.1374 115.406 28.4453 115.158 28.7244C114.91 29.0035 114.674 29.2538 114.449 29.4801C114.069 29.8871 113.735 30.1785 113.446 30.341C113.158 30.5096 112.847 30.5913 112.507 30.5913C111.966 30.5791 111.539 30.3584 111.228 29.9225C110.934 29.4687 110.785 28.9747 110.785 28.4396C110.755 28.0325 110.923 27.4276 111.292 26.637C111.482 26.2356 111.77 25.6599 112.144 24.9042C112.524 24.1543 113.003 23.2121 113.591 22.0896C113.839 21.6012 114.075 21.1361 114.3 20.7002C114.524 20.2638 114.738 19.8449 114.939 19.4439C115.354 18.6647 115.573 18.1759 115.596 17.9789C115.596 17.8562 115.515 17.7924 115.342 17.7924C115.043 17.8156 114.668 18.0191 114.23 18.4092C113.792 18.7926 113.302 19.3102 112.761 19.9497C112.219 20.5892 111.631 21.3396 110.998 22.2C110.364 23.0553 109.701 23.9677 109.016 24.9335C108.687 25.3864 108.347 25.8813 108.001 26.4216C107.649 26.9623 107.275 27.4913 106.872 28.015C106.462 28.5383 106.03 29.0152 105.57 29.4455C105.108 29.8757 104.601 30.213 104.048 30.4514C103.276 30.4401 102.659 30.2365 102.21 29.8465C101.761 29.4573 101.513 28.9454 101.467 28.3229C101.357 27.6835 101.409 27.1659 101.628 26.7649C101.847 26.3578 102.129 26.0962 102.481 25.9739C102.752 25.904 103.022 25.9564 103.293 26.125C103.558 26.2941 103.749 26.5321 103.847 26.8405C103.904 27.224 103.893 27.556 103.812 27.8176C103.737 28.0849 103.57 28.3811 103.322 28.6951L103.322 28.6951ZM131.339 17.5774C130.988 18.3737 130.532 19.3796 129.962 20.607C129.398 21.8279 128.821 23.0954 128.251 24.4158C127.674 25.7358 127.185 26.8868 126.781 27.8813C126.378 28.8697 126.176 29.5323 126.176 29.8757C126.176 29.963 126.188 30.0386 126.216 30.0849C126.246 30.1373 126.303 30.1666 126.395 30.1666C126.539 30.143 126.81 29.9687 127.213 29.6547C127.611 29.335 127.98 29.0034 128.32 28.6662C129.339 27.5847 129.974 26.7994 130.215 26.3172C130.458 25.8345 130.636 25.6017 130.752 25.6074C130.803 25.6074 130.856 25.6192 130.89 25.6423C130.93 25.666 130.953 25.7066 130.953 25.7646C130.919 25.9682 130.636 26.4216 130.118 27.1314C129.593 27.8346 129.046 28.4802 128.47 29.0733C128.118 29.428 127.72 29.7595 127.26 30.0735C126.804 30.3819 126.401 30.5562 126.038 30.5911C125.681 30.5789 125.353 30.4164 125.07 30.1024C124.782 29.794 124.632 29.3 124.62 28.6256C124.62 28.1604 124.724 27.6196 124.931 26.9972C125.139 26.3809 125.421 25.7122 125.767 25.0028C126.119 24.2935 126.481 23.5374 126.856 22.735C127.237 21.9326 127.611 21.1185 127.98 20.3043C127.565 20.8568 127.138 21.4443 126.712 22.0488C126.286 22.6594 125.836 23.2814 125.364 23.9213C124.891 24.5551 124.39 25.2007 123.86 25.8577C123.33 26.5089 122.771 27.1602 122.171 27.8053C121.486 28.5382 120.817 29.1602 120.155 29.6835C119.498 30.2072 118.852 30.4863 118.224 30.5208C117.683 30.4863 117.302 30.2421 117.083 29.7883C116.864 29.3349 116.76 28.7942 116.772 28.1661C116.853 25.9393 117.913 23.6243 119.953 21.2233C121.999 18.8218 124.574 17.525 127.692 17.3328C127.963 17.3328 128.228 17.3564 128.487 17.4031C128.746 17.449 128.982 17.5075 129.196 17.5774H131.339V17.5774ZM128.81 17.9321C128.735 17.9321 128.637 17.9142 128.522 17.8797C128.412 17.8447 128.257 17.8273 128.055 17.8273C125.352 18.147 123.076 19.7636 121.221 22.6769C119.371 25.5899 118.409 27.8988 118.328 29.614C118.328 29.777 118.345 29.8988 118.386 29.9805C118.426 30.0679 118.501 30.108 118.616 30.108C118.996 30.0678 119.474 29.7939 120.051 29.2943C120.621 28.7942 121.088 28.3578 121.451 27.98C122.598 26.8229 123.894 25.2876 125.335 23.3806C126.775 21.4731 127.934 19.6591 128.81 17.9321V17.9321ZM147.077 16.9961L144.968 21.9733C145.832 21.9965 146.547 21.9327 147.1 21.7698C147.659 21.613 148.2 21.264 148.731 20.7289C149.744 19.6068 150.586 18.5546 151.266 17.5774C151.94 16.6003 152.724 16.0771 153.611 16.0072C153.945 16.0072 154.193 16.071 154.343 16.2051C154.499 16.333 154.573 16.5134 154.573 16.7401C154.573 16.9201 154.533 17.2984 154.453 17.874C154.378 18.4498 154.268 18.7695 154.136 18.8389C153.963 18.7926 153.847 18.624 153.778 18.3331C153.709 18.0427 153.467 17.8797 153.052 17.8334C152.424 17.9553 151.687 18.5603 150.839 19.647C149.998 20.7346 148.857 21.5606 147.417 22.1306V22.2293C147.653 22.2638 147.93 22.3686 148.258 22.549C148.587 22.7233 148.892 22.9561 149.186 23.2352C149.82 24.0433 150.35 25.1658 150.793 26.6081C151.232 28.0443 151.617 28.8405 151.958 29.0035C152.257 28.8755 152.718 28.3933 153.34 27.5498C153.957 26.7125 154.36 26.2298 154.539 26.1019C154.619 26.1019 154.672 26.1136 154.706 26.1429C154.741 26.1717 154.758 26.2298 154.758 26.3054C154.677 26.4971 154.274 27.044 153.542 27.9451C152.81 28.8405 152.257 29.4865 151.889 29.87C151.733 30.0329 151.565 30.1605 151.398 30.2535C151.232 30.3527 151.036 30.4047 150.805 30.4164C150.246 30.4047 149.814 30.0443 149.514 29.341C149.22 28.6369 148.834 27.5497 148.362 26.0725C147.82 24.3808 147.353 23.3339 146.968 22.9385C146.581 22.5376 145.855 22.3747 144.795 22.4441L141.758 30.3465H139.499L144.714 17.048L147.077 16.996L147.077 16.9961ZM158.59 17.3564C159.184 17.3678 159.639 17.5364 159.944 17.8561C160.256 18.182 160.411 18.5834 160.411 19.0599C160.411 19.2984 160.348 19.6125 160.227 19.9964C160.1 20.3799 159.91 20.9032 159.645 21.5606C159.38 22.2236 159.045 23.0487 158.636 24.0494C158.233 25.0496 157.743 26.2818 157.173 27.7473C157.023 28.1081 156.897 28.4335 156.793 28.7187C156.683 29.0035 156.625 29.2538 156.614 29.4687C158.032 26.5496 159.276 24.2704 160.342 22.6303C161.414 20.9849 162.336 19.7868 163.114 19.0255C163.8 18.3449 164.364 17.8916 164.808 17.6649C165.251 17.4377 165.586 17.3329 165.811 17.3565C166.375 17.391 166.802 17.6526 167.095 18.1414C167.39 18.6298 167.534 19.1237 167.534 19.6182C167.464 21.3571 166.675 23.5607 165.154 26.2238C163.632 28.8874 161.777 30.3528 159.581 30.6258C159.098 30.6026 158.614 30.5096 158.118 30.3353C157.622 30.1667 157.202 29.9689 156.867 29.7417C156.349 30.7599 155.847 31.975 155.358 33.3763C154.868 34.778 154.338 36.7487 153.779 39.2786C153.617 39.86 153.519 40.3719 153.479 40.8192C153.445 41.273 153.324 41.511 153.116 41.5464C152.949 41.4652 152.776 41.1219 152.603 40.5055C152.43 39.8949 152.339 39.3948 152.326 39.0113C152.338 38.5981 152.39 38.1329 152.494 37.6096C152.598 37.0863 152.701 36.4233 152.817 35.6152C153.341 33.5505 153.934 31.5212 154.597 29.5268C155.254 27.5324 155.888 25.7066 156.493 24.0433C157.104 22.3805 157.61 21.0142 158.014 19.9554C158.417 18.8914 158.631 18.2807 158.654 18.1239C158.654 18.0309 158.614 17.9553 158.539 17.9029C158.458 17.8449 158.36 17.8156 158.233 17.8156C157.951 17.8042 157.513 17.9322 156.919 18.2052C156.32 18.4786 155.646 18.9844 154.891 19.723C154.338 20.3162 153.958 20.7757 153.744 21.1011C153.531 21.4326 153.381 21.6012 153.306 21.613C153.249 21.613 153.202 21.6069 153.168 21.5955C153.133 21.5837 153.116 21.5488 153.116 21.4789C153.174 21.1473 153.75 20.4149 154.839 19.2809C155.934 18.147 157.179 17.5015 158.59 17.3564ZM156.988 29.3931C157.306 29.5966 157.674 29.794 158.106 29.9862C158.533 30.1841 159.034 30.2828 159.605 30.2946C160.025 30.2828 160.394 30.2011 160.722 30.0386C161.045 29.8814 161.333 29.6778 161.581 29.428C162.618 28.2592 163.546 26.5151 164.364 24.2062C165.189 21.8917 165.621 20.072 165.667 18.7459C165.667 18.438 165.643 18.2283 165.592 18.1064C165.539 17.9902 165.459 17.9322 165.344 17.9435C164.704 17.9553 163.604 18.9437 162.036 20.8975C160.475 22.8574 158.792 25.6891 156.988 29.3931H156.988ZM180.638 17.5774C180.286 18.3737 179.831 19.3796 179.26 20.607C178.696 21.8279 178.119 23.0954 177.549 24.4158C176.973 25.7358 176.483 26.8868 176.08 27.8813C175.676 28.8697 175.474 29.5323 175.474 29.8757C175.474 29.963 175.486 30.0386 175.515 30.0849C175.544 30.1373 175.602 30.1666 175.694 30.1666C175.837 30.143 176.108 29.9687 176.511 29.6547C176.909 29.335 177.278 29.0034 177.618 28.6662C178.638 27.5847 179.272 26.7994 179.514 26.3172C179.756 25.8345 179.935 25.6017 180.05 25.6074C180.102 25.6074 180.154 25.6192 180.188 25.6423C180.229 25.666 180.252 25.7066 180.252 25.7646C180.217 25.9682 179.935 26.4216 179.416 27.1314C178.891 27.8346 178.344 28.4802 177.768 29.0733C177.417 29.428 177.019 29.7595 176.558 30.0735C176.103 30.3819 175.699 30.5562 175.336 30.5911C174.979 30.5789 174.651 30.4164 174.368 30.1024C174.08 29.794 173.931 29.3 173.919 28.6256C173.919 28.1604 174.023 27.6196 174.23 26.9972C174.437 26.3809 174.72 25.7122 175.066 25.0028C175.417 24.2935 175.78 23.5374 176.155 22.735C176.535 21.9326 176.909 21.1185 177.278 20.3043C176.863 20.8568 176.437 21.4443 176.011 22.0488C175.584 22.6594 175.135 23.2814 174.662 23.9213C174.19 24.5551 173.688 25.2007 173.158 25.8577C172.628 26.5089 172.069 27.1602 171.47 27.8053C170.784 28.5382 170.116 29.1602 169.453 29.6835C168.796 30.2072 168.151 30.4863 167.522 30.5208C166.981 30.4863 166.6 30.2421 166.382 29.7883C166.163 29.3349 166.059 28.7942 166.071 28.1661C166.151 25.9393 167.212 23.6243 169.251 21.2233C171.297 18.8218 173.873 17.525 176.99 17.3328C177.261 17.3328 177.526 17.3564 177.785 17.4031C178.045 17.449 178.281 17.5075 178.494 17.5774H180.638V17.5774ZM178.108 17.9321C178.033 17.9321 177.935 17.9142 177.82 17.8797C177.711 17.8447 177.555 17.8273 177.353 17.8273C174.651 18.147 172.375 19.7636 170.519 22.6769C168.669 25.5899 167.707 27.8988 167.626 29.614C167.626 29.777 167.644 29.8988 167.684 29.9805C167.724 30.0679 167.799 30.108 167.915 30.108C168.295 30.0678 168.773 29.7939 169.349 29.2943C169.92 28.7942 170.386 28.3578 170.749 27.98C171.896 26.8229 173.193 25.2876 174.633 23.3806C176.074 21.4731 177.232 19.6591 178.108 17.9321V17.9321ZM187.795 17.4032C188.567 17.4145 189.126 17.6006 189.455 17.9553C189.789 18.3156 189.95 18.7402 189.939 19.2285C189.939 19.7055 189.812 20.1126 189.564 20.4498C189.316 20.7814 188.988 20.9556 188.567 20.9674C188.268 20.9674 188.02 20.8744 187.824 20.6883C187.633 20.5022 187.536 20.2463 187.524 19.9265C187.57 19.4727 187.726 19.1067 188.003 18.8276C188.279 18.548 188.44 18.3275 188.486 18.1702C188.486 18.089 188.429 18.0134 188.325 17.9379C188.216 17.868 188.077 17.8274 187.911 17.8274C186.493 18.037 185.087 19.3103 183.692 21.6593C182.292 24.0088 181.549 26.2356 181.445 28.3409C181.445 28.9397 181.526 29.3993 181.687 29.7072C181.854 30.0099 182.114 30.1667 182.477 30.1667C182.926 30.1431 183.588 29.8409 184.459 29.2708C185.329 28.6951 186.228 27.9508 187.15 27.0441C187.68 26.4858 188.055 26.0556 188.274 25.7529C188.493 25.4507 188.659 25.3057 188.774 25.3057C188.826 25.3057 188.872 25.317 188.896 25.3459C188.924 25.3751 188.942 25.4276 188.942 25.5092C188.826 25.8167 188.02 26.6951 186.516 28.1431C185.018 29.5967 183.514 30.4223 182.021 30.6258C181.289 30.6145 180.679 30.3467 180.201 29.8178C179.716 29.2888 179.463 28.4803 179.44 27.3988C179.532 25.1485 180.402 22.9619 182.061 20.8339C183.721 18.7054 185.634 17.5601 187.795 17.4033L187.795 17.4032ZM196.434 17.2634C196.531 17.2634 196.601 17.2866 196.635 17.3329C196.67 17.3796 196.681 17.4377 196.681 17.5015C196.676 17.6181 196.422 17.7867 195.932 18.0134C195.443 18.2405 194.792 18.7346 193.985 19.4963C192.948 20.5892 192.083 21.9559 191.391 23.5956C190.7 25.2353 190.343 26.6951 190.32 27.9801C190.32 28.6951 190.464 29.2477 190.758 29.6316C191.051 30.0212 191.478 30.213 192.043 30.213C193.437 30.0736 194.693 29.1546 195.817 27.4511C196.947 25.7472 197.736 24.0608 198.197 22.3922C197.909 21.8803 197.69 21.3684 197.552 20.8508C197.407 20.3336 197.338 19.8392 197.338 19.3627C197.338 18.7577 197.436 18.2807 197.632 17.9204C197.834 17.5657 198.11 17.3796 198.474 17.3678C198.842 17.3796 199.148 17.6299 199.384 18.1296C199.626 18.6241 199.747 19.281 199.758 20.0952C199.667 22.4617 198.825 24.7701 197.229 27.0091C195.633 29.2477 193.789 30.4571 191.709 30.6257C190.7 30.6144 189.917 30.2715 189.363 29.5966C188.816 28.9223 188.533 27.9338 188.522 26.6426C188.545 25.2475 188.827 23.9734 189.381 22.8224C189.928 21.6711 190.585 20.7114 191.351 19.9554C192.44 18.9437 193.524 18.2405 194.601 17.8448C195.673 17.4434 196.284 17.2516 196.434 17.2634H196.434ZM204.006 17.3678C204.456 17.3678 204.847 17.5657 205.187 17.9553C205.521 18.3506 205.706 18.8971 205.723 19.6012C205.723 19.9323 205.66 20.2874 205.521 20.6709C205.389 21.0487 205.182 21.5082 204.899 22.0372C204.617 22.5665 204.271 23.2296 203.862 24.0315C203.447 24.8344 202.969 25.811 202.416 26.9742C202.992 26.1657 203.488 25.4682 203.902 24.8811C204.317 24.2993 204.721 23.7472 205.113 23.2353C205.499 22.7234 205.948 22.1944 206.449 21.648C206.956 21.1011 207.584 20.4673 208.328 19.7405C208.852 19.1823 209.434 18.6355 210.074 18.1065C210.708 17.5776 211.313 17.2985 211.889 17.2635C212.419 17.2867 212.794 17.4959 213.019 17.8973C213.243 18.2926 213.353 18.7346 213.341 19.2229C213.341 19.589 213.272 19.9611 213.128 20.3337C212.99 20.7116 212.782 21.1536 212.506 21.6651C212.229 22.177 211.883 22.8575 211.468 23.7005C211.048 24.5378 210.564 25.5962 210.016 26.8699C210.973 25.5093 211.883 24.2876 212.748 23.2122C213.618 22.1364 214.563 21.0894 215.583 20.0603C216.113 19.5082 216.758 18.9207 217.519 18.3158C218.28 17.7052 218.954 17.3797 219.553 17.333C220.037 17.3566 220.394 17.5658 220.625 17.9668C220.855 18.3626 220.97 18.8164 220.97 19.3274C221.017 19.6471 220.925 20.0778 220.694 20.6185C220.463 21.1593 219.806 22.4732 218.723 24.5671C218.164 25.6949 217.628 26.7825 217.121 27.8348C216.614 28.8874 216.343 29.5448 216.309 29.8064C216.309 29.9807 216.355 30.0969 216.436 30.1668C216.522 30.2367 216.632 30.2655 216.77 30.2655C216.995 30.2594 217.248 30.1432 217.536 29.9165C217.824 29.696 218.106 29.44 218.389 29.1434C219.219 28.265 219.795 27.585 220.118 27.0966C220.44 26.6083 220.665 26.3523 220.803 26.3406C220.866 26.3406 220.913 26.358 220.936 26.3925C220.959 26.4279 220.97 26.4629 220.97 26.4974C220.913 26.7009 220.596 27.1604 220.014 27.8698C219.438 28.5791 218.925 29.1605 218.487 29.603C218.084 29.9921 217.726 30.2595 217.427 30.411C217.121 30.5678 216.839 30.6495 216.58 30.6609C216.073 30.6377 215.658 30.4285 215.329 30.0389C215.006 29.6492 214.839 29.1548 214.828 28.5678C214.793 28.2013 214.914 27.678 215.197 26.9862C215.479 26.3 216.09 25.0556 217.035 23.2468C217.847 21.6014 218.469 20.3457 218.902 19.4848C219.334 18.6186 219.553 18.1242 219.553 17.9848C219.553 17.9267 219.53 17.8856 219.484 17.8564C219.437 17.8276 219.375 17.8158 219.282 17.8158C219.034 17.8276 218.573 18.0835 217.899 18.5893C217.225 19.0951 216.476 19.7582 215.652 20.5724C214.551 21.6652 213.353 23.0433 212.056 24.7066C210.759 26.3699 209.561 28.2537 208.46 30.353H206.011C206.374 29.527 206.87 28.4455 207.51 27.1255C208.143 25.7999 208.795 24.4563 209.463 23.0957C210.137 21.7351 210.707 20.5662 211.18 19.6013C211.653 18.6356 211.9 18.1123 211.924 18.0193C211.924 17.9145 211.9 17.845 211.855 17.8044C211.808 17.7695 211.722 17.7463 211.601 17.7463C211.399 17.7695 210.99 18.0137 210.379 18.4731C209.763 18.9327 209.112 19.5022 208.425 20.1828C207.314 21.2874 206.092 22.6773 204.773 24.3637C203.447 26.0497 202.168 28.0502 200.929 30.353H198.636C199.65 28.1026 200.508 26.2183 201.211 24.7066C201.915 23.1944 202.49 21.9736 202.94 21.0546C203.389 20.1303 203.718 19.4502 203.925 19.0078C204.139 18.5605 204.242 18.2927 204.242 18.2054C204.242 18.0774 204.213 17.9791 204.156 17.9031C204.098 17.8337 204.017 17.7926 203.902 17.7926C203.643 17.7695 203.251 17.9145 202.727 18.2285C202.208 18.5426 201.511 19.1301 200.646 19.9967C200.059 20.6016 199.673 21.0314 199.488 21.2935C199.304 21.5551 199.148 21.677 199.022 21.6652C198.993 21.6652 198.958 21.6538 198.929 21.6246C198.9 21.5958 198.889 21.5551 198.889 21.4971C198.993 21.1363 199.621 20.392 200.779 19.2694C201.937 18.1473 203.015 17.5135 204.006 17.3681L204.006 17.3678ZM222.297 30.0212C222.429 30.213 222.637 30.3174 222.913 30.3296C223.184 30.3409 223.495 30.2946 223.83 30.1841C224.169 30.0793 224.515 29.9225 224.878 29.719C225.235 29.5093 225.569 29.2888 225.875 29.0498C226.244 28.7012 226.59 28.3059 226.907 27.8757C227.218 27.4455 227.483 26.9742 227.696 26.4627C227.944 25.9508 228.111 25.4799 228.203 25.0379C228.295 24.6015 228.33 24.1944 228.307 23.8223C228.272 23.3921 228.134 23.0898 227.898 22.9269C227.661 22.7644 227.31 22.7002 226.838 22.7469C226.613 22.7936 226.376 22.8517 226.129 22.9269C225.881 23.0028 225.645 23.0955 225.42 23.206L225.5 22.7814C225.725 22.6945 225.979 22.6071 226.261 22.5377C226.544 22.4617 226.808 22.4093 227.056 22.3747C227.471 22.3398 227.834 22.3979 228.134 22.5547C228.439 22.7059 228.699 22.9212 228.906 23.1942C229.114 23.4619 229.275 23.7817 229.396 24.1363C229.511 24.4971 229.586 24.8632 229.621 25.2353C229.667 25.666 229.649 26.0726 229.563 26.4448C229.477 26.823 229.338 27.1895 229.148 27.5559C228.958 27.9861 228.664 28.3871 228.261 28.7536C227.863 29.1257 227.408 29.4455 226.907 29.7246C226.399 30.0037 225.863 30.2247 225.299 30.399C224.74 30.5676 224.193 30.6724 223.668 30.7016C223.149 30.7362 222.665 30.7016 222.227 30.5854C221.789 30.4688 221.444 30.2592 221.196 29.9574C221.11 29.794 221.023 29.6027 220.954 29.3756C220.879 29.1489 220.844 28.9222 220.844 28.695C220.844 28.1255 221.011 27.4856 221.352 26.7706C221.53 26.4045 221.749 25.98 221.997 25.4912C222.251 25.0029 222.55 24.4329 222.884 23.7877C223.236 23.0954 223.564 22.4442 223.875 21.8392C224.181 21.229 224.481 20.6651 224.757 20.1418C225.322 19.0778 225.622 18.3799 225.656 18.0658C225.656 17.9609 225.616 17.8854 225.547 17.8334C225.472 17.781 225.397 17.7574 225.316 17.7574C225.184 17.7461 224.953 17.8391 224.63 18.0308C224.313 18.2226 223.881 18.5834 223.34 19.118C222.63 19.8684 222.13 20.4786 221.841 20.9438C221.559 21.374 221.358 21.6011 221.23 21.6243C221.144 21.6243 221.098 21.5662 221.098 21.4557C221.185 21.1473 221.703 20.4323 222.648 19.3101C223.605 18.1701 224.55 17.525 225.483 17.3677C225.823 17.3564 226.163 17.5193 226.498 17.8622C226.838 18.1881 227.016 18.7227 227.039 19.4613C227.051 19.9732 226.901 20.5659 226.584 21.2464C226.428 21.5898 226.175 22.1012 225.829 22.7813C225.489 23.4618 225.045 24.3227 224.504 25.3575C223.818 26.6605 223.282 27.6948 222.896 28.4627C222.504 29.2305 222.308 29.7481 222.297 30.0211V30.0212ZM231.868 23.9271C232.162 23.3571 232.433 22.8164 232.692 22.2988C232.951 21.7812 233.199 21.2758 233.435 20.787C233.683 20.2987 233.937 19.7868 234.196 19.2465C234.455 18.7114 234.732 18.1296 235.026 17.5194H237.267C236.524 19.118 235.873 20.5197 235.302 21.7117C234.732 22.9037 234.236 23.9328 233.81 24.8107C233.383 25.6834 233.026 26.4159 232.738 27.0091C232.45 27.5961 232.219 28.0792 232.047 28.457C231.868 28.8292 231.747 29.1201 231.683 29.3232C231.614 29.5267 231.585 29.6897 231.597 29.8002C231.597 30.0387 231.718 30.1606 231.966 30.1606C232.398 30.1374 232.813 29.9575 233.217 29.6142C233.631 29.2595 234.006 28.9223 234.334 28.5908C234.714 28.1954 235.037 27.8347 235.296 27.5093C235.55 27.1896 235.758 26.91 235.902 26.6833C236.207 26.2299 236.42 25.9915 236.541 25.9683C236.656 25.9683 236.714 26.0146 236.714 26.1076C236.691 26.2648 236.46 26.6313 236.022 27.2127C235.792 27.5093 235.562 27.794 235.319 28.0736C235.077 28.3523 234.824 28.6257 234.57 28.8987C234.42 29.0559 234.248 29.2245 234.046 29.3993C233.845 29.5792 233.614 29.7596 233.354 29.9575C232.848 30.3296 232.294 30.5388 231.7 30.5856C231.147 30.5734 230.727 30.434 230.439 30.1667C230.151 29.899 230.012 29.4801 230.012 28.8987C229.989 28.4104 230.139 27.7709 230.468 26.9742C230.791 26.1775 231.257 25.1602 231.868 23.9272L231.868 23.9271Z" fill="#010101" stroke="#010101" stroke-width="0.0546853" stroke-miterlimit="22.9256"/>
</svg>
