<svg width="24" height="24" viewBox="0 0 24 24" fill="none" xmlns="http://www.w3.org/2000/svg">
<path d="M21.3888 5.50959C22.708 6.91001 23.4163 8.48173 23.4163 11.0295C23.4163 15.5105 20.2708 19.5276 15.6942 21.5131L14.5511 19.749C18.8219 17.4383 19.6566 14.441 19.9903 12.5511C19.3026 12.9067 18.4024 13.0317 17.5201 12.95C15.2095 12.7358 13.3885 10.839 13.3885 8.48173C13.3885 6.00653 15.3951 4 17.8703 4C19.2444 4 20.5583 4.62802 21.3888 5.50959ZM8.58387 5.50959C9.90305 6.91001 10.6114 8.48173 10.6114 11.0295C10.6114 15.5105 7.46587 19.5276 2.88928 21.5131L1.7462 19.749C6.01695 17.4383 6.85166 14.441 7.18529 12.5511C6.49766 12.9067 5.59754 13.0317 4.71511 12.95C2.40463 12.7358 0.583679 10.839 0.583679 8.48173C0.583679 6.00653 2.59021 4 5.06541 4C6.43944 4 7.7534 4.62802 8.58387 5.50959Z" fill="black"/>
</svg>
