<svg width="190" height="42" viewBox="0 0 190 42" fill="none" xmlns="http://www.w3.org/2000/svg">
<g clip-path="url(#clip0_1775_27524)">
<path fill-rule="evenodd" clip-rule="evenodd" d="M173.367 21.2245V7.46153H166.176V35H173.367V29.9742L182.611 20.4076V35H189.801V7.46289H182.611V11.6014L173.367 21.2245ZM137.795 35H144.606V22.4672C147.687 22.2978 148.263 23.7223 150.068 27.4613C151.659 30.7209 153.144 34.3056 157.691 34.3056C158.459 34.3056 158.986 34.1927 160.014 33.8124V28.1102C157.959 27.9407 158.191 27.0811 156.656 24.5269C154.523 20.7741 153.223 19.8014 151.802 19.5879C154.105 18.9404 155.116 17.5709 155.826 16.5404C156.921 14.9175 157.75 13.3938 159.511 13.3938C159.726 13.3938 158.986 13.3938 160.012 13.4503V7.53867C158.986 7.15706 158.759 7.00138 157.565 7.00138C153.515 7.00138 151.341 9.61208 148.983 13.3525C147.774 15.2564 146.661 16.9345 144.606 16.7664V7.46289H137.415V16.7664C135.361 16.9358 134.649 15.2427 133.455 13.3511C131.097 9.59831 128.939 7.00138 124.888 7.00138C123.681 7.00138 123.036 7.15706 122.007 7.53867V13.4655C122.007 13.4076 122.739 13.4076 122.967 13.4076C124.714 13.4076 125.841 14.9327 126.947 16.5556C127.659 17.5847 128.613 18.9529 130.901 19.603C129.479 19.8277 127.469 20.8016 125.337 24.5406C123.816 27.0949 124.062 27.9711 120.981 28.1253V33.8263C122.007 34.2064 123.398 34.3194 124.165 34.3194C128.698 34.3194 130.649 30.7361 132.241 27.4764C134.045 23.7223 133.306 22.3102 137.415 22.481V35H137.795ZM74.7575 13.5826V35H81.9481V13.5826H89.1386V7.46289H68.595V13.5826H74.7575ZM41.6582 29.4231C44.9543 32.7392 47.8966 34.3194 52.4441 34.3194C59.0663 34.3194 66.4989 30.8476 66.4989 20.3084C66.4989 9.28834 58.1285 7.00138 52.7133 7.00138C50.4682 7.00138 46.3188 7.8211 42.5388 11.0242L46.5879 15.3694C48.2803 13.577 50.2563 12.7036 52.5013 12.7036C57.2048 12.7036 57.6817 16.5129 57.7389 18.304L49.0778 17.8106V23.6796L57.7389 23.1865C57.6245 24.7102 57.0603 28.62 52.4126 28.62C49.2439 28.62 47.0991 26.884 45.7775 25.246L41.6582 29.4231ZM97.3087 15.5251C99.3819 14.0579 102.565 12.9695 104.854 12.9695C108.037 12.9695 108.79 13.9435 108.735 16.9923C99.7657 17.2031 93.314 19.5466 93.314 26.7712C93.314 30.6231 95.7165 34.3208 102.183 34.3208C105.791 34.3208 108.308 33.2902 110.779 31.385C112.429 34.1651 114.531 34.3194 115.895 34.3194C116.876 34.3194 117.9 34.1651 117.9 33.8263V28.1253C115.845 28.2949 115.845 26.5452 115.845 24.1603V16.287C115.845 13.3525 115.423 7.00138 105.461 7.00138C103.713 7.00138 99.097 7.15706 94.1645 10.6426L97.3087 15.5251ZM108.654 22.1559V26.2916C106.6 27.2643 105.361 28.3512 103.884 28.3512C102.293 28.3512 100.905 27.7011 100.905 26.1223C100.905 23.568 103.518 22.0993 108.654 22.1559ZM19.8015 35H0.80127L3.1738 16.7898L19.1472 7L33.0888 23.5515L33.2034 24.2155L19.1901 8.68766L19.2331 10.5117L33.315 24.9126L33.4295 25.6153L19.276 12.3096L19.3189 14.2976L33.4997 26.3895L33.6143 27.0949L19.3749 16.0886L19.4178 17.9512L33.7704 27.8705L33.8848 28.5773L19.4578 19.7573L19.5009 21.4657L33.9393 29.1972L34.0539 29.904L19.5581 23.2566L19.601 25.1193L34.2529 30.6934L34.3659 31.3987L19.6584 26.9117L19.7013 28.9011L34.4805 32.1895L34.595 32.8949L19.7427 30.6934L19.7858 32.5133L34.6925 33.6003L34.8069 34.639L19.8015 35Z" fill="#010101"/>
</g>
<defs>
<clipPath id="clip0_1775_27524">
<rect width="189" height="42" fill="white" transform="translate(0.80127)"/>
</clipPath>
</defs>
</svg>
