<svg width="111" height="42" viewBox="0 0 111 42" fill="none" xmlns="http://www.w3.org/2000/svg">
<path fill-rule="evenodd" clip-rule="evenodd" d="M1.61731 40.6004V1.40039L33.712 9.93847V34.4787L1.61731 40.6004ZM5.48803 37.0026C5.91811 36.7341 6.13315 36.3582 6.07939 35.9286V17.9396C6.07939 17.51 5.86435 17.2415 5.43427 17.0804C5.00419 16.973 4.57411 16.973 4.19779 17.1878C3.76771 17.4026 3.55267 17.7248 3.55267 18.1544V36.3582C3.49891 36.8415 3.66019 37.11 4.14403 37.2174C4.57411 37.3785 5.00419 37.2711 5.48803 37.0026ZM9.25123 36.3045L14.1434 35.3379C15.9712 34.962 17.369 34.2103 18.4442 32.9752C19.5194 31.7401 20.057 30.2903 20.057 28.6256L20.0032 20.9467C20.0032 19.282 19.4656 18.047 18.3904 17.1878C17.3152 16.2749 15.9175 15.9527 14.0896 16.1138L9.25123 16.5971C8.87491 16.6508 8.60611 16.7582 8.39107 16.973C8.17603 17.1878 8.06851 17.4563 8.06851 17.7785L8.12227 35.4453C8.12227 35.7675 8.22979 35.9823 8.44483 36.1434C8.60611 36.3582 8.87491 36.4119 9.25123 36.3045ZM10.434 34.0492L10.3802 18.5303L14.0359 18.1007C15.1111 17.9933 15.9712 18.2081 16.6701 18.7987C17.369 19.3894 17.7453 20.1949 17.7453 21.2689L17.7991 29.0015C17.7991 30.0755 17.4765 30.9883 16.7776 31.7938C16.0788 32.5993 15.2186 33.0826 14.1434 33.2974L10.434 34.0492ZM26.562 33.0826C28.0672 32.7604 29.3575 32.0086 30.3252 30.8272C31.3466 29.6459 31.8304 28.2497 31.8304 26.7461L31.7767 22.9872C31.7767 22.7724 31.6692 22.5577 31.5079 22.3966C31.3466 22.2355 31.1316 22.1818 30.8628 22.2355L27.5296 22.7188C27.3146 22.7188 27.1533 22.7724 27.0458 22.8798C26.7232 23.1483 26.6157 23.5242 26.7232 24.0075C26.8308 24.4908 27.0996 24.6519 27.5834 24.4908L29.8413 24.1149L29.8951 27.0146C29.8951 27.9812 29.5725 28.8941 28.9274 29.6996C28.2823 30.5051 27.4759 30.9883 26.5082 31.2031C25.4868 31.4179 24.6804 31.2031 23.9815 30.6124C23.3363 30.0218 22.96 29.2163 22.96 28.196L22.9063 20.6782C22.9063 19.6579 23.2288 18.6914 23.9815 17.8859C24.6804 17.0804 25.5405 16.5971 26.4544 16.4897C27.2608 16.3823 28.1748 16.5971 29.0887 17.0267C29.4112 17.1878 29.68 17.2415 29.8951 17.2415C30.1101 17.1878 30.3252 17.1341 30.4864 16.9193C30.6477 16.7582 30.7015 16.5434 30.7015 16.2749C30.7015 15.899 30.4864 15.6305 30.1101 15.4157C28.8736 14.7714 27.6372 14.5566 26.4544 14.664C25.0029 14.825 23.6589 15.4694 22.4762 16.7045C21.3472 17.8859 20.7559 19.3357 20.7559 21.0004L20.8096 28.6256C20.8096 30.2366 21.401 31.4716 22.53 32.3308C23.7127 33.1363 25.0029 33.4048 26.562 33.0826ZM64.624 32.3308C64.0864 31.7938 63.8176 31.1494 63.8176 30.344V26.7461C63.8176 25.9407 64.0864 25.2963 64.624 24.7593C65.1616 24.2223 65.8068 23.9538 66.5594 23.9538C67.312 23.9538 67.9572 24.2223 68.4948 24.7593C69.0324 25.2426 69.3012 25.9407 69.3012 26.7461V30.344C69.3012 31.1494 69.0324 31.7938 68.4948 32.3308C67.9572 32.8678 67.312 33.0826 66.5594 33.0826C65.8068 33.0826 65.1616 32.8141 64.624 32.3308ZM74.3546 32.3308C73.817 31.8475 73.5482 31.2031 73.5482 30.3977V26.7461C73.5482 25.9407 73.817 25.2963 74.3546 24.7593C74.946 24.2223 75.5911 23.9538 76.3437 23.9538C76.9351 23.9538 77.5802 24.1686 78.2253 24.5445C78.4404 24.6519 78.5479 24.813 78.5479 25.0278C78.5479 25.1352 78.4941 25.2426 78.4404 25.35C78.3328 25.4574 78.2791 25.4574 78.1178 25.4574C78.0103 25.4574 77.9028 25.4037 77.6877 25.2963C77.2039 25.0278 76.7738 24.8667 76.3437 24.8667C75.8599 24.8667 75.4298 25.0278 75.1072 25.4037C74.7847 25.7796 74.5696 26.2092 74.5696 26.6924V30.3977C74.5696 30.8809 74.7309 31.3105 75.0535 31.6327C75.376 31.9549 75.8061 32.1697 76.29 32.1697C76.7738 32.1697 77.1501 32.0086 77.5264 31.6327C77.849 31.2568 78.0103 30.8809 78.0103 30.3977V28.9478H76.8276C76.6125 29.0015 76.4512 28.8941 76.3975 28.6256C76.3437 28.3571 76.3975 28.196 76.5588 28.0886C76.6125 28.0349 76.72 28.0349 76.8276 28.0349H78.5479C78.6554 28.0349 78.7629 28.0886 78.8704 28.196C78.978 28.3034 79.0317 28.4108 79.0317 28.5182V30.3977C79.0317 31.1494 78.7629 31.7938 78.2253 32.3308C77.6877 32.8141 77.0426 33.0826 76.29 33.0826C75.5373 33.0826 74.8922 32.8678 74.3546 32.3308ZM89.0848 32.3308C88.5472 31.7938 88.2784 31.1494 88.2784 30.344V26.7461C88.2784 25.9407 88.5472 25.2963 89.0848 24.7593C89.6224 24.2223 90.2676 23.9538 91.0202 23.9538C91.7728 23.9538 92.418 24.2223 92.9556 24.7593C93.4932 25.2426 93.762 25.9407 93.762 26.7461V30.344C93.762 31.1494 93.4932 31.7938 92.9556 32.3308C92.418 32.8678 91.7728 33.0826 91.0202 33.0826C90.2676 33.0826 89.6224 32.8141 89.0848 32.3308ZM96.88 32.3308C96.3424 31.7938 96.0736 31.1494 96.0736 30.344V24.5445C96.0736 24.3297 96.1812 24.2223 96.3424 24.1149C96.5037 24.0612 96.665 24.0612 96.88 24.1149C97.0413 24.1686 97.1488 24.3297 97.1488 24.5445V30.344C97.1488 30.8809 97.3101 31.3105 97.6327 31.6327C97.9552 32.0086 98.3853 32.1697 98.8692 32.1697C99.353 32.1697 99.7831 32.0086 100.106 31.6327C100.428 31.2568 100.589 30.8272 100.589 30.344V24.5445C100.589 24.3297 100.697 24.2223 100.858 24.1149C101.02 24.0612 101.181 24.0612 101.396 24.1149C101.557 24.1686 101.665 24.3297 101.665 24.5445V30.344C101.665 31.1494 101.396 31.7938 100.858 32.3308C100.321 32.8678 99.6756 33.0826 98.9229 33.0826C98.1165 33.0826 97.4714 32.8141 96.88 32.3308ZM57.904 32.2771C57.3664 31.7938 57.0976 31.0957 57.0976 30.2903V26.7461C57.0976 25.9407 57.3664 25.2426 57.904 24.7593C58.4416 24.2223 59.0868 24.0075 59.8394 24.0075C60.4845 24.0075 61.0759 24.1686 61.5597 24.4908C61.7748 24.5982 61.8823 24.7593 61.8823 24.9741C61.8823 25.0815 61.8285 25.1889 61.7748 25.2963C61.6672 25.4037 61.5597 25.4037 61.4522 25.4037C61.3447 25.4037 61.2372 25.35 61.0759 25.2426C60.6458 25.0278 60.2695 24.9204 59.8394 24.9204C59.3556 24.9204 58.9255 25.0815 58.6029 25.4574C58.2804 25.8333 58.1191 26.2629 58.1191 26.7461V30.2903C58.1191 30.8272 58.2804 31.2568 58.6029 31.579C58.9255 31.9549 59.3556 32.116 59.8394 32.116C60.2157 32.116 60.592 32.0086 61.0759 31.7401C61.2372 31.6327 61.3447 31.6327 61.4522 31.6327C61.5597 31.6327 61.6672 31.6864 61.7748 31.7401C61.8823 31.8475 61.8823 31.9549 61.8823 32.0623C61.8823 32.2234 61.7748 32.3845 61.5597 32.5456C61.0221 32.8678 60.4308 33.0289 59.7856 33.0289C59.0868 33.0826 58.4416 32.8141 57.904 32.2771ZM81.3972 32.9752C81.2359 32.9215 81.1284 32.7604 81.1821 32.5456V24.5445C81.1821 24.3834 81.2359 24.276 81.3434 24.2223C81.4509 24.1149 81.5584 24.1149 81.7197 24.1149H83.5476C84.4077 24.1149 85.0528 24.3834 85.5367 24.8667C86.0205 25.35 86.2893 25.9944 86.2893 26.7461C86.2893 27.9275 85.7517 28.7867 84.6765 29.2163L86.4506 32.2771C86.5044 32.3845 86.5044 32.4919 86.5044 32.5456C86.5044 32.653 86.4506 32.8141 86.3431 32.8678C86.2356 32.9752 86.128 33.0289 85.9668 33.0289C85.7517 33.0289 85.5904 32.9215 85.4829 32.7067L83.6013 29.3774H82.2036V32.5456C82.2036 32.7604 82.1498 32.8678 81.9885 32.9752C81.7735 33.0289 81.6122 33.0289 81.3972 32.9752ZM104.299 32.9752C104.138 32.9215 104.03 32.7604 104.084 32.5456V24.5445C104.084 24.3834 104.138 24.276 104.245 24.2223C104.353 24.1149 104.46 24.1149 104.621 24.1149H106.342C107.202 24.1149 107.901 24.3834 108.385 24.8667C108.922 25.35 109.137 26.0481 109.137 26.8535C109.137 27.7127 108.869 28.3571 108.385 28.8404C107.847 29.3237 107.202 29.5922 106.288 29.5922H105.105V32.5456C105.105 32.7604 105.052 32.8678 104.89 32.9752C104.675 33.0289 104.514 33.0289 104.299 32.9752ZM42.8512 32.8678C42.7437 32.7604 42.69 32.653 42.69 32.5456V24.5445C42.69 24.3834 42.7437 24.276 42.8512 24.2223C42.9588 24.1149 43.0663 24.1149 43.2276 24.1149H45.3242C46.1306 24.1149 46.7757 24.3297 47.2596 24.813C47.7434 25.2963 48.0122 25.9407 48.0122 26.6924V30.3977C48.0122 31.2031 47.7434 31.7938 47.2596 32.3308C46.7757 32.8141 46.1306 33.0289 45.3242 33.0289H43.2276C43.0663 32.9752 42.9588 32.9215 42.8512 32.8678ZM50.6464 32.8678C50.5927 32.7604 50.5389 32.653 50.5389 32.5456V24.5445C50.5389 24.3834 50.5927 24.276 50.7002 24.2223C50.8077 24.1149 50.9152 24.1149 51.0765 24.1149H54.6247C54.786 24.1149 54.9472 24.1686 55.001 24.3297C55.0548 24.4908 55.0548 24.6519 55.001 24.813C54.9472 24.9741 54.786 25.0278 54.6247 25.0278H51.5604V28.0886H54.1946C54.3559 28.0886 54.5172 28.1423 54.5709 28.3034C54.6247 28.4645 54.6247 28.6256 54.5709 28.7867C54.5172 28.9478 54.3559 29.0015 54.1946 29.0015H51.5604V32.116H54.6247C54.786 32.116 54.9472 32.1697 55.001 32.3308C55.0548 32.4919 55.0548 32.653 55.001 32.8141C54.9472 32.9752 54.786 33.0289 54.6247 33.0289H51.0765C50.9152 32.9752 50.754 32.9215 50.6464 32.8678ZM67.7959 31.6327C68.1184 31.2568 68.2797 30.8272 68.2797 30.344V26.7461C68.2797 26.2092 68.1184 25.7796 67.7959 25.4574C67.4733 25.0815 67.0432 24.9204 66.5594 24.9204C66.0756 24.9204 65.6455 25.0815 65.3229 25.4574C65.0004 25.8333 64.8391 26.2629 64.8391 26.7461V30.344C64.8391 30.8809 65.0004 31.3105 65.3229 31.6327C65.6455 31.9549 66.0756 32.1697 66.5594 32.1697C67.097 32.1697 67.4733 32.0086 67.7959 31.6327ZM92.2567 31.6327C92.5792 31.2568 92.7405 30.8272 92.7405 30.344V26.7461C92.7405 26.2092 92.5792 25.7796 92.2567 25.4574C91.9341 25.0815 91.504 24.9204 91.0202 24.9204C90.5364 24.9204 90.1063 25.0815 89.7837 25.4574C89.4612 25.8333 89.2999 26.2629 89.2999 26.7461V30.344C89.2999 30.8809 89.4612 31.3105 89.7837 31.6327C90.1063 32.0086 90.5364 32.1697 91.0202 32.1697C91.504 32.1697 91.9341 32.0086 92.2567 31.6327ZM46.5069 31.579C46.8295 31.2568 46.9908 30.8809 46.9908 30.344V26.6924C46.9908 26.2092 46.8295 25.7796 46.5069 25.4574C46.1844 25.1352 45.808 24.9741 45.3242 24.9741H43.7652V32.0623H45.3242C45.808 32.0623 46.1844 31.9012 46.5069 31.579ZM107.632 28.1423C107.955 27.8201 108.116 27.3905 108.116 26.7998C108.116 26.2092 107.955 25.7796 107.632 25.4574C107.309 25.1352 106.879 24.9741 106.288 24.9741H105.105V28.6256H106.288C106.879 28.6256 107.309 28.4645 107.632 28.1423ZM84.784 27.9812C85.1066 27.659 85.2141 27.2294 85.2141 26.6924C85.2141 26.2092 85.0528 25.7796 84.7303 25.4574C84.4077 25.1352 83.9776 24.9741 83.4938 24.9741H82.1498V28.4108H83.4938C84.0852 28.4645 84.5152 28.3034 84.784 27.9812ZM42.9588 20.5171C42.7975 20.4634 42.69 20.3023 42.7437 20.0875V12.0864C42.7437 11.8716 42.8512 11.7642 43.0125 11.6568C43.1738 11.6031 43.3351 11.6031 43.4964 11.6568C43.6576 11.7105 43.7652 11.8716 43.7652 12.0864V20.0875C43.7652 20.3023 43.7114 20.4097 43.5501 20.5171C43.3351 20.5708 43.1738 20.5708 42.9588 20.5171ZM46.722 20.5171C46.5607 20.4634 46.4532 20.3023 46.5069 20.0875V12.0864C46.5069 11.9253 46.5607 11.8179 46.6682 11.7642C46.7757 11.6568 46.8832 11.6568 47.0445 11.6568C47.3133 11.6568 47.4746 11.7642 47.6359 12.0327L51.0228 18.4229V12.0864C51.0228 11.8716 51.1303 11.7642 51.2916 11.6568C51.4528 11.6031 51.6141 11.6031 51.7754 11.6568C51.9367 11.7105 52.0442 11.8716 52.0442 12.0864V20.0875C52.0442 20.4097 51.8829 20.5708 51.5066 20.5708C51.2378 20.5708 51.0228 20.4634 50.9152 20.1949L47.5284 13.8048V20.0875C47.5284 20.3023 47.4746 20.4097 47.3133 20.5171C47.0983 20.5708 46.937 20.5708 46.722 20.5171ZM56.4525 20.5171C56.2912 20.4634 56.1837 20.3023 56.2375 20.0875V12.5697H54.3021C54.1408 12.5697 53.9796 12.516 53.9258 12.3549C53.872 12.1938 53.872 12.0327 53.9258 11.8716C53.9796 11.7105 54.1408 11.6568 54.3021 11.6568H59.1943C59.3556 11.6568 59.5168 11.7105 59.5706 11.8716C59.6244 12.0327 59.6244 12.1938 59.5706 12.3549C59.5168 12.516 59.3556 12.5697 59.1943 12.5697H57.2589V20.0875C57.2589 20.3023 57.2052 20.4097 57.0439 20.5171C56.8288 20.5708 56.6676 20.5708 56.4525 20.5171ZM68.4948 20.5171C68.3335 20.4634 68.226 20.3023 68.2797 20.0875V12.0864C68.2797 11.9253 68.3335 11.8179 68.441 11.7642C68.5485 11.6568 68.656 11.6568 68.8173 11.6568H70.6451C71.5053 11.6568 72.1504 11.9253 72.6343 12.4086C73.1181 12.8919 73.3869 13.5363 73.3869 14.2881C73.3869 15.4694 72.8493 16.3286 71.7741 16.7582L73.5482 19.819C73.602 19.9264 73.602 20.0338 73.602 20.0875C73.602 20.1949 73.5482 20.356 73.4407 20.4097C73.3332 20.5171 73.2256 20.5708 73.0644 20.5708C72.8493 20.5708 72.688 20.4634 72.5805 20.2486L70.6989 16.9193H69.3012V20.0875C69.3012 20.3023 69.2474 20.4097 69.0861 20.5171C68.8173 20.5708 68.656 20.5708 68.4948 20.5171ZM75.9674 20.5171C75.8061 20.4634 75.6986 20.3023 75.7523 20.0875V12.0864C75.7523 11.9253 75.8061 11.8179 75.9136 11.7642C76.0212 11.6568 76.1287 11.6568 76.29 11.6568H78.1178C78.978 11.6568 79.6231 11.9253 80.1069 12.4086C80.5908 12.8919 80.8596 13.5363 80.8596 14.2881C80.8596 15.4694 80.322 16.3286 79.2467 16.7582L81.0208 19.819C81.0746 19.9264 81.0746 20.0338 81.0746 20.0875C81.0746 20.1949 81.0208 20.356 80.9133 20.4097C80.8058 20.5171 80.6983 20.5708 80.537 20.5708C80.322 20.5708 80.1607 20.4634 80.0532 20.2486L78.1716 16.9193H76.7738V20.0875C76.7738 20.3023 76.72 20.4097 76.5588 20.5171C76.29 20.5708 76.1287 20.5708 75.9674 20.5171ZM82.5799 20.4634C82.4724 20.356 82.4186 20.2486 82.4186 20.1412C82.4186 20.0875 82.4186 20.0338 82.4724 19.9264L84.784 12.1938C84.8916 11.8179 85.1604 11.6031 85.5367 11.6031C85.913 11.6031 86.1818 11.8179 86.2893 12.1938L88.601 19.8727C88.601 19.9801 88.6548 20.0338 88.6548 20.0875C88.6548 20.1949 88.601 20.3023 88.4935 20.4097C88.386 20.5171 88.2784 20.5171 88.1171 20.5171C87.8484 20.5171 87.7408 20.4097 87.6333 20.1412L87.042 17.9933H84.0314L83.44 20.1412C83.3863 20.356 83.225 20.4634 82.9562 20.4634C82.8487 20.5708 82.6874 20.5171 82.5799 20.4634ZM61.6135 20.4097C61.506 20.3023 61.4522 20.1949 61.4522 20.0875V12.0864C61.4522 11.9253 61.506 11.8179 61.6135 11.7642C61.721 11.6568 61.8285 11.6568 61.9898 11.6568H65.538C65.6992 11.6568 65.8605 11.7105 65.9143 11.8716C65.968 12.0327 65.968 12.1938 65.9143 12.3549C65.8605 12.516 65.6992 12.5697 65.538 12.5697H62.4736V15.6305H65.1079C65.2692 15.6305 65.4304 15.6842 65.4842 15.8453C65.538 16.0064 65.538 16.1675 65.4842 16.3286C65.4304 16.4897 65.2692 16.5434 65.1079 16.5434H62.4736V19.6579H65.538C65.6992 19.6579 65.8605 19.7116 65.9143 19.8727C65.968 20.0338 65.968 20.1949 65.9143 20.356C65.8605 20.5171 65.6992 20.5708 65.538 20.5708H61.9898C61.8285 20.5171 61.721 20.5171 61.6135 20.4097ZM86.7732 17.1878L85.8055 13.8585L85.4829 12.7308L85.1604 13.8585L84.1927 17.1878H86.7732ZM71.8816 15.5231C72.2042 15.2009 72.3117 14.7714 72.3117 14.2344C72.3117 13.7511 72.1504 13.3215 71.8279 12.9993C71.5053 12.6771 71.0752 12.516 70.5914 12.516H69.2474V15.9527H70.5914C71.129 16.0064 71.5591 15.8453 71.8816 15.5231ZM79.3543 15.5231C79.6768 15.2009 79.7844 14.7714 79.7844 14.2344C79.7844 13.7511 79.6231 13.3215 79.3005 12.9993C78.978 12.6771 78.5479 12.516 78.064 12.516H76.72V15.9527H78.064C78.6016 16.0064 79.0317 15.8453 79.3543 15.5231Z" fill="#010101"/>
</svg>
