<svg width="203" height="42" viewBox="0 0 203 42" fill="none" xmlns="http://www.w3.org/2000/svg">
<g clip-path="url(#clip0_1775_27539)">
<path d="M100.183 6.27178H101.614V17.047H100.183V8.74358L94.8389 17.047H93.4004V6.27178H94.8389V14.5752L100.183 6.27178Z" fill="#010101"/>
<path d="M109.791 9.16541C109.791 8.5931 109.58 8.1392 109.157 7.80371C108.74 7.46328 108.151 7.29307 107.391 7.29307C106.755 7.29307 106.221 7.46821 105.788 7.81851C105.361 8.16387 105.147 8.5931 105.147 9.10621H103.716C103.716 8.5339 103.873 8.02079 104.186 7.56689C104.504 7.11298 104.946 6.76022 105.512 6.5086C106.079 6.25205 106.705 6.12377 107.391 6.12377C108.603 6.12377 109.545 6.39513 110.216 6.93784C110.887 7.47561 111.222 8.22554 111.222 9.18761C111.222 9.68592 111.068 10.1398 110.76 10.5493C110.452 10.9588 110.022 11.282 109.47 11.5188C110.747 11.9431 111.386 12.7843 111.386 14.0424C111.386 15.0094 111.023 15.7766 110.298 16.344C109.572 16.9114 108.603 17.195 107.391 17.195C106.67 17.195 106.014 17.0692 105.423 16.8176C104.837 16.5611 104.38 16.1984 104.052 15.7297C103.724 15.261 103.56 14.7035 103.56 14.0572H104.991C104.991 14.6246 105.217 15.0982 105.669 15.4781C106.121 15.8531 106.695 16.0406 107.391 16.0406C108.171 16.0406 108.792 15.8605 109.254 15.5003C109.721 15.1402 109.955 14.664 109.955 14.072C109.955 12.809 109.167 12.1651 107.592 12.1404H106.25V10.9712H107.585C108.31 10.9564 108.859 10.7935 109.232 10.4827C109.605 10.1719 109.791 9.73279 109.791 9.16541Z" fill="#010101"/>
<path d="M115.135 6.27178L118.683 15.0637L122.231 6.27178H124.087V17.047H122.656V12.8509L122.79 8.32175L119.227 17.047H118.131L114.576 8.34395L114.718 12.8509V17.047H113.287V6.27178H115.135Z" fill="#010101"/>
<path d="M132.741 14.2348H128.194L127.173 17.047H125.697L129.841 6.27178H131.093L135.245 17.047H133.777L132.741 14.2348ZM128.626 13.0655H132.316L130.467 8.02572L128.626 13.0655Z" fill="#010101"/>
<path d="M143.548 6.27178H144.979V17.047H143.548V8.74358L138.204 17.047H136.765V6.27178H138.204V14.5752L143.548 6.27178ZM143.146 3.59277C143.146 4.18975 142.94 4.67079 142.527 5.03589C142.12 5.39605 141.583 5.57613 140.917 5.57613C140.251 5.57613 139.712 5.39358 139.3 5.02849C138.887 4.66339 138.681 4.18482 138.681 3.59277H139.807C139.807 3.93813 139.901 4.20949 140.09 4.40684C140.279 4.59925 140.554 4.69546 140.917 4.69546C141.265 4.69546 141.536 4.59925 141.73 4.40684C141.928 4.21442 142.028 3.94307 142.028 3.59277H143.146Z" fill="#010101"/>
<path d="M155.795 6.27178V17.047H154.363V7.44108H150.473L150.279 11.7112C150.204 13.142 150.055 14.2175 149.832 14.9379C149.613 15.6582 149.29 16.1886 148.863 16.529C148.435 16.8645 147.864 17.0372 147.148 17.047H146.679V15.8851L146.977 15.8703C147.439 15.8358 147.794 15.6878 148.043 15.4263C148.291 15.1599 148.48 14.7381 148.609 14.1608C148.738 13.5836 148.83 12.6955 148.885 11.4966L149.109 6.27178H155.795Z" fill="#010101"/>
<path d="M166.744 12.0072C166.744 13.0631 166.565 13.9857 166.207 14.7751C165.849 15.5595 165.343 16.159 164.687 16.5734C164.031 16.9878 163.266 17.195 162.391 17.195C161.536 17.195 160.778 16.9878 160.118 16.5734C159.457 16.154 158.942 15.5595 158.575 14.7899C158.212 14.0153 158.026 13.1198 158.016 12.1034V11.3264C158.016 10.2903 158.197 9.3751 158.56 8.58077C158.923 7.78644 159.434 7.17959 160.095 6.76022C160.761 6.33592 161.521 6.12377 162.376 6.12377C163.246 6.12377 164.011 6.33346 164.672 6.75282C165.338 7.16726 165.849 7.77164 166.207 8.56597C166.565 9.35536 166.744 10.2755 166.744 11.3264V12.0072ZM165.32 11.3116C165.32 10.0337 165.062 9.0544 164.545 8.37355C164.028 7.68776 163.305 7.34487 162.376 7.34487C161.472 7.34487 160.759 7.68776 160.237 8.37355C159.72 9.0544 159.454 10.0017 159.439 11.2154V12.0072C159.439 13.2456 159.7 14.22 160.222 14.9305C160.749 15.636 161.472 15.9888 162.391 15.9888C163.315 15.9888 164.031 15.6557 164.538 14.9897C165.044 14.3187 165.305 13.3591 165.32 12.1108V11.3116Z" fill="#010101"/>
<path d="M168.89 17.047V6.27178H172.438C173.616 6.27178 174.501 6.51354 175.092 6.99704C175.688 7.48055 175.986 8.19594 175.986 9.14321C175.986 9.64645 175.842 10.093 175.554 10.4827C175.266 10.8675 174.873 11.166 174.376 11.3782C174.963 11.541 175.425 11.8518 175.763 12.3107C176.106 12.7646 176.277 13.3073 176.277 13.9388C176.277 14.9058 175.961 15.6656 175.33 16.2182C174.699 16.7707 173.807 17.047 172.655 17.047H168.89ZM170.322 12.0072V15.8851H172.684C173.35 15.8851 173.874 15.7149 174.257 15.3745C174.645 15.0291 174.838 14.5555 174.838 13.9536C174.838 12.656 174.128 12.0072 172.707 12.0072H170.322ZM170.322 10.8675H172.483C173.109 10.8675 173.609 10.7121 173.981 10.4013C174.359 10.0905 174.548 9.66865 174.548 9.13581C174.548 8.54376 174.374 8.11453 174.026 7.84811C173.678 7.57675 173.149 7.44108 172.438 7.44108H170.322V10.8675Z" fill="#010101"/>
<path d="M186.749 12.0072C186.749 13.0631 186.57 13.9857 186.213 14.7751C185.855 15.5595 185.348 16.159 184.692 16.5734C184.036 16.9878 183.271 17.195 182.396 17.195C181.542 17.195 180.784 16.9878 180.123 16.5734C179.462 16.154 178.948 15.5595 178.58 14.7899C178.217 14.0153 178.031 13.1198 178.021 12.1034V11.3264C178.021 10.2903 178.203 9.3751 178.565 8.58077C178.928 7.78644 179.44 7.17959 180.101 6.76022C180.767 6.33592 181.527 6.12377 182.382 6.12377C183.251 6.12377 184.016 6.33346 184.677 6.75282C185.343 7.16726 185.855 7.77164 186.213 8.56597C186.57 9.35536 186.749 10.2755 186.749 11.3264V12.0072ZM185.326 11.3116C185.326 10.0337 185.067 9.0544 184.551 8.37355C184.034 7.68776 183.311 7.34487 182.382 7.34487C181.477 7.34487 180.764 7.68776 180.242 8.37355C179.726 9.0544 179.46 10.0017 179.445 11.2154V12.0072C179.445 13.2456 179.706 14.22 180.227 14.9305C180.754 15.636 181.477 15.9888 182.396 15.9888C183.321 15.9888 184.036 15.6557 184.543 14.9897C185.05 14.3187 185.311 13.3591 185.326 12.1108V11.3116Z" fill="#010101"/>
<path d="M96.4916 24.9961H94.0494V29.396H93.3779V24.4605H96.4916V24.9961Z" fill="#010101"/>
<path d="M100.976 27.0876C100.976 27.5712 100.893 27.9938 100.726 28.3553C100.559 28.7146 100.322 28.9892 100.016 29.179C99.7097 29.3689 99.3525 29.4638 98.9443 29.4638C98.5454 29.4638 98.1917 29.3689 97.8832 29.179C97.5747 28.987 97.3347 28.7146 97.1631 28.3621C96.9937 28.0073 96.9068 27.5972 96.9021 27.1316V26.7757C96.9021 26.3011 96.9868 25.8819 97.1561 25.5181C97.3254 25.1543 97.5643 24.8763 97.8728 24.6842C98.1836 24.4899 98.5384 24.3927 98.9373 24.3927C99.3432 24.3927 99.7004 24.4887 100.009 24.6808C100.32 24.8707 100.559 25.1475 100.726 25.5113C100.893 25.8729 100.976 26.2944 100.976 26.7757V27.0876ZM100.312 26.7689C100.312 26.1836 100.191 25.735 99.9497 25.4232C99.7085 25.1091 99.371 24.952 98.9373 24.952C98.5152 24.952 98.1824 25.1091 97.9389 25.4232C97.6977 25.735 97.5736 26.1689 97.5666 26.7249V27.0876C97.5666 27.6548 97.6884 28.1011 97.9319 28.4265C98.1778 28.7497 98.5152 28.9112 98.9443 28.9112C99.3757 28.9112 99.7097 28.7587 99.9462 28.4536C100.183 28.1463 100.305 27.7068 100.312 27.135V26.7689Z" fill="#010101"/>
<path d="M105.704 27.8299C105.641 28.3519 105.443 28.7553 105.109 29.0401C104.777 29.3225 104.336 29.4638 103.784 29.4638C103.185 29.4638 102.705 29.2547 102.343 28.8367C101.984 28.4186 101.804 27.8593 101.804 27.1587V26.6842C101.804 26.2254 101.888 25.822 102.054 25.474C102.224 25.126 102.463 24.8594 102.771 24.674C103.08 24.4865 103.437 24.3927 103.843 24.3927C104.381 24.3927 104.812 24.5396 105.137 24.8334C105.462 25.1249 105.651 25.5294 105.704 26.0469H105.032C104.975 25.6537 104.848 25.3689 104.653 25.1927C104.461 25.0164 104.191 24.9283 103.843 24.9283C103.416 24.9283 103.081 25.0819 102.837 25.3893C102.596 25.6966 102.475 26.1339 102.475 26.7011V27.1791C102.475 27.7147 102.59 28.1406 102.82 28.457C103.049 28.7734 103.371 28.9316 103.784 28.9316C104.155 28.9316 104.439 28.8502 104.636 28.6875C104.835 28.5226 104.968 28.2367 105.032 27.8299H105.704Z" fill="#010101"/>
<path d="M110.014 24.9961H108.386V29.396H107.722V24.9961H106.097V24.4605H110.014V24.9961Z" fill="#010101"/>
<path d="M113.96 24.4605H114.628V29.396H113.96V25.5927L111.465 29.396H110.794V24.4605H111.465V28.2638L113.96 24.4605Z" fill="#010101"/>
<path d="M119.738 29.396H119.067V27.1147H116.513V29.396H115.845V24.4605H116.513V26.5825H119.067V24.4605H119.738V29.396Z" fill="#010101"/>
<path d="M124.118 24.4605H124.786V29.396H124.118V25.5927L121.624 29.396H120.952V24.4605H121.624V28.2638L124.118 24.4605Z" fill="#010101"/>
<path d="M129.577 24.4605V29.396H128.905V27.352C128.662 27.4198 128.44 27.4672 128.241 27.4943C128.041 27.5192 127.814 27.5316 127.559 27.5316C126.981 27.5316 126.552 27.4096 126.272 27.1655C125.991 26.9215 125.847 26.5475 125.84 26.0435V24.4605H126.512V26.0266C126.514 26.3701 126.594 26.6175 126.752 26.7689C126.912 26.9203 127.181 26.996 127.559 26.996C128 26.996 128.448 26.935 128.905 26.813V24.4605H129.577Z" fill="#010101"/>
<path d="M134.677 29.396H134.005V27.1147H131.452V29.396H130.784V24.4605H131.452V26.5825H134.005V24.4605H134.677V29.396Z" fill="#010101"/>
<path d="M136.562 26.474H137.822C138.351 26.4808 138.763 26.613 139.06 26.8706C139.357 27.1282 139.506 27.4785 139.506 27.9214C139.506 28.3666 139.356 28.7214 139.057 28.9858C138.758 29.2502 138.349 29.3869 137.832 29.396H135.894V24.4605H136.562V26.474ZM136.562 27.0096V28.8638H137.784C138.115 28.8638 138.373 28.7779 138.556 28.6062C138.741 28.4344 138.834 28.2039 138.834 27.9147C138.834 27.6367 138.745 27.4175 138.566 27.257C138.39 27.0966 138.138 27.0141 137.811 27.0096H136.562ZM140.786 29.396H140.118V24.4605H140.786V29.396Z" fill="#010101"/>
<path d="M145.222 24.4605H145.89V29.396H145.222V25.5927L142.727 29.396H142.056V24.4605H142.727V28.2638L145.222 24.4605ZM145.034 23.2334C145.034 23.5068 144.938 23.7272 144.745 23.8944C144.555 24.0594 144.304 24.1419 143.994 24.1419C143.683 24.1419 143.431 24.0582 143.239 23.891C143.046 23.7238 142.95 23.5046 142.95 23.2334H143.475C143.475 23.3916 143.519 23.5159 143.607 23.6063C143.696 23.6944 143.824 23.7385 143.994 23.7385C144.156 23.7385 144.282 23.6944 144.373 23.6063C144.466 23.5181 144.512 23.3938 144.512 23.2334H145.034Z" fill="#010101"/>
<path d="M150.19 27.1791H149.574V29.396H148.906V24.4605H149.574V26.6367H150.096L151.866 24.4605H152.698L150.764 26.8537L152.841 29.396H152.023L150.19 27.1791Z" fill="#010101"/>
<path d="M157.238 27.0876C157.238 27.5712 157.155 27.9938 156.988 28.3553C156.821 28.7146 156.584 28.9892 156.278 29.179C155.972 29.3689 155.614 29.4638 155.206 29.4638C154.807 29.4638 154.454 29.3689 154.145 29.179C153.837 28.987 153.597 28.7146 153.425 28.3621C153.256 28.0073 153.169 27.5972 153.164 27.1316V26.7757C153.164 26.3011 153.249 25.8819 153.418 25.5181C153.587 25.1543 153.826 24.8763 154.135 24.6842C154.446 24.4899 154.8 24.3927 155.199 24.3927C155.605 24.3927 155.962 24.4887 156.271 24.6808C156.582 24.8707 156.821 25.1475 156.988 25.5113C157.155 25.8729 157.238 26.2944 157.238 26.7757V27.0876ZM156.574 26.7689C156.574 26.1836 156.453 25.735 156.212 25.4232C155.97 25.1091 155.633 24.952 155.199 24.952C154.777 24.952 154.444 25.1091 154.201 25.4232C153.96 25.735 153.836 26.1689 153.829 26.7249V27.0876C153.829 27.6548 153.95 28.1011 154.194 28.4265C154.44 28.7497 154.777 28.9112 155.206 28.9112C155.638 28.9112 155.972 28.7587 156.208 28.4536C156.445 28.1463 156.567 27.7068 156.574 27.135V26.7689Z" fill="#010101"/>
<path d="M159.103 24.4605L160.759 28.4875L162.415 24.4605H163.281V29.396H162.613V27.474L162.676 25.3995L161.013 29.396H160.501L158.842 25.4096L158.908 27.474V29.396H158.24V24.4605H159.103Z" fill="#010101"/>
<path d="M168.329 29.396H167.658V24.9961H165.16V29.396H164.492V24.4605H168.329V29.396Z" fill="#010101"/>
<path d="M173.377 24.4605V29.396H172.709V24.9961H170.893L170.803 26.952C170.768 27.6073 170.698 28.1 170.594 28.4299C170.492 28.7598 170.341 29.0028 170.142 29.1587C169.942 29.3124 169.675 29.3915 169.341 29.396H169.122V28.8638L169.261 28.857C169.477 28.8412 169.643 28.7734 169.759 28.6536C169.875 28.5316 169.963 28.3384 170.023 28.074C170.084 27.8096 170.126 27.4028 170.152 26.8537L170.256 24.4605H173.377Z" fill="#010101"/>
<path d="M177.454 27.1147H175.259V28.8638H177.809V29.396H174.591V24.4605H177.774V24.9961H175.259V26.5825H177.454V27.1147Z" fill="#010101"/>
<path d="M179.956 27.1791H179.34V29.396H178.672V24.4605H179.34V26.6367H179.862L181.633 24.4605H182.464L180.53 26.8537L182.607 29.396H181.789L179.956 27.1791Z" fill="#010101"/>
<path d="M186.834 27.8299C186.771 28.3519 186.573 28.7553 186.239 29.0401C185.907 29.3225 185.465 29.4638 184.913 29.4638C184.315 29.4638 183.835 29.2547 183.473 28.8367C183.113 28.4186 182.934 27.8593 182.934 27.1587V26.6842C182.934 26.2254 183.017 25.822 183.184 25.474C183.354 25.126 183.592 24.8594 183.901 24.674C184.209 24.4865 184.567 24.3927 184.972 24.3927C185.51 24.3927 185.942 24.5396 186.267 24.8334C186.591 25.1249 186.78 25.5294 186.834 26.0469H186.162C186.104 25.6537 185.978 25.3689 185.783 25.1927C185.59 25.0164 185.32 24.9283 184.972 24.9283C184.546 24.9283 184.21 25.0819 183.967 25.3893C183.726 25.6966 183.605 26.1339 183.605 26.7011V27.1791C183.605 27.7147 183.72 28.1406 183.95 28.457C184.179 28.7734 184.5 28.9316 184.913 28.9316C185.284 28.9316 185.568 28.8502 185.766 28.6875C185.965 28.5226 186.097 28.2367 186.162 27.8299H186.834Z" fill="#010101"/>
<mask id="mask0_1775_27539" style="mask-type:alpha" maskUnits="userSpaceOnUse" x="2" y="-25" width="76" height="59">
<path d="M33.7402 -24.8711L77.7606 5.89141L33.7402 33.5024L2.99597 10.9536L33.7402 -24.8711Z" fill="#C4C4C4"/>
</mask>
<g mask="url(#mask0_1775_27539)">
<path d="M18.5728 34.3164H13.1216V7.05859H18.5728V34.3164ZM25.5806 34.3164H20.1294V7.05859H25.5806V34.3164ZM32.5913 34.3164H27.1392V7.05859H32.5913V34.3164ZM39.6011 34.3164H34.1489V7.05859H39.6011V34.3164ZM46.6089 34.3164H41.1577V7.05859H46.6089V34.3164ZM53.6187 34.3164H48.1675V7.05859H53.6187V34.3164ZM60.6274 34.3164H55.1753V7.05859H60.6274V34.3164ZM67.6372 34.3164H62.1851V7.05859H67.6372V34.3164ZM74.645 34.3164H69.1938V7.05859H74.645V34.3164Z" fill="#010101"/>
</g>
</g>
<defs>
<clipPath id="clip0_1775_27539">
<rect width="202.364" height="42" fill="white" transform="translate(0.0981445)"/>
</clipPath>
</defs>
</svg>
