<svg width="266" height="42" viewBox="0 0 266 42" fill="none" xmlns="http://www.w3.org/2000/svg">
<path fill-rule="evenodd" clip-rule="evenodd" d="M203.731 16.7943C203.446 18.5784 202.44 18.8067 201.025 18.8067H198.884L199.605 14.7123H201.615C203.112 14.7123 204.085 14.9389 203.731 16.7943ZM247.959 14.7123H259.792L260.966 8.12012H246.009C244.824 8.12012 241.83 8.28247 240.217 9.66334C238.449 11.1156 237.909 13.0335 237.636 14.5428C237.381 15.9594 237.16 18.0217 238.164 19.6185C238.961 21.0065 240.514 21.6934 241.172 21.8843L249.152 23.977L248.977 24.9618C248.932 25.1196 248.84 25.26 248.713 25.3644C248.586 25.4689 248.431 25.5325 248.267 25.547H223.254L223.675 23.1331H232.021L233.092 17.1511H224.735L225.162 14.7123H235.57L236.706 8.12012H216.753L212.928 29.9091L207.298 23.1313C210.72 22.0431 212.175 20.1448 212.816 16.5053C213.883 10.4341 210.375 8.12012 203.521 8.12012H182.779L177.348 16.1128H177.184L175.364 8.12012H140.871L142.769 16.1128H149.178L146.329 32.2052H155.761L158.651 16.1146H165.297L166.13 11.7614H166.232L170.967 23.1331L169.177 32.2052H179.241L181.029 23.1331L190.741 11.7668H190.809L187.225 32.2052H196.52L197.855 24.5729H198.015L203.715 32.2052H231.843L235.939 27.3596H236.093L235.226 32.2052H251.661C253.32 32.2052 255.077 31.959 256.731 30.182C258.149 28.6584 258.622 26.7566 258.858 25.4578C259.036 24.4855 259.159 23.0457 258.767 21.7094C258.197 19.6114 256.508 18.5373 254.619 18.111L247.024 16.2305L247.195 15.285C247.259 14.9478 247.562 14.7141 247.959 14.7141" fill="#010101"/>
<path fill-rule="evenodd" clip-rule="evenodd" d="M4.14453 32.2034H18.749L20.0942 24.5711H5.48973L4.14453 32.2034ZM131.221 8.12012H117.974L106.907 26.9814H106.766L106.859 8.12012H93.9479L88.5064 20.7871H88.2727L86.8294 8.12012H73.4738L66.887 26.9814H66.6176L62.0093 8.12012H48.7625L37.2374 27.7682L32.5952 20.1662L43.7439 8.12012H29.8727L21.5946 18.4142H6.57266L5.89293 22.2732H20.8792L26.2261 32.2034H45.8491L54.0452 16.1288H54.3788L56.732 25.5506H50.502L50.3272 25.8467L53.8953 32.2052H76.2962L80.1677 19.0315H80.4674L81.6913 32.2052H91.0345L96.4902 19.0315H96.8131L96.26 32.2052H115.061L123.257 16.1306H123.59L125.942 25.5506H119.656L119.542 25.8467L123.107 32.2052H137.105L131.221 8.12012ZM22.9969 8.12012H8.39064L6.98122 16.1128H21.5857L22.9951 8.12012H22.9969Z" fill="#010101"/>
</svg>
