<svg width="1856" height="256" viewBox="0 0 1856 256" fill="none" xmlns="http://www.w3.org/2000/svg">
<path d="M1806.91 185.109V151.381L1804.72 144.198V85.1735C1804.72 73.7225 1801.28 64.8741 1794.41 58.6281C1787.54 52.1739 1777.13 48.9468 1763.18 48.9468C1753.81 48.9468 1744.55 50.4042 1735.39 53.319C1726.44 56.2338 1718.84 60.2937 1712.59 65.4987L1697.29 37.0795C1706.24 30.2089 1716.86 25.108 1729.14 21.7769C1741.64 18.2375 1754.54 16.4678 1767.87 16.4678C1792.02 16.4678 1810.65 22.2973 1823.77 33.9565C1837.09 45.4074 1843.76 63.2085 1843.76 87.3596V185.109H1806.91ZM1754.44 187.295C1741.95 187.295 1731.02 185.213 1721.65 181.049C1712.28 176.677 1704.99 170.743 1699.79 163.248C1694.79 155.545 1692.29 146.905 1692.29 137.327C1692.29 127.958 1694.48 119.526 1698.85 112.031C1703.43 104.536 1710.82 98.6023 1721.02 94.2301C1731.23 89.858 1744.76 87.6719 1761.62 87.6719H1810.03V113.593H1764.43C1751.11 113.593 1742.16 115.779 1737.58 120.151C1732.99 124.315 1730.7 129.52 1730.7 135.766C1730.7 142.845 1733.52 148.466 1739.14 152.63C1744.76 156.794 1752.57 158.876 1762.56 158.876C1772.14 158.876 1780.67 156.69 1788.17 152.318C1795.87 147.946 1801.39 141.491 1804.72 132.955L1811.28 156.378C1807.53 166.163 1800.76 173.762 1790.98 179.175C1781.4 184.589 1769.22 187.295 1754.44 187.295Z" fill="white"/>
<path d="M1495.81 185.109V18.3418H1534.85V128.271L1626.98 18.3418H1662.58V185.109H1623.54V75.1802L1531.72 185.109H1495.81Z" fill="white"/>
<path d="M1406.6 166.996V51.4455H1342.58L1341.65 78.3032C1341.23 87.8803 1340.61 97.1452 1339.77 106.098C1338.94 114.842 1337.59 122.962 1335.71 130.457C1333.84 137.744 1331.13 143.782 1327.59 148.57C1324.05 153.359 1319.37 156.482 1313.54 157.939L1274.81 152.006C1281.06 152.006 1286.06 150.028 1289.8 146.072C1293.76 141.908 1296.78 136.287 1298.86 129.208C1301.15 121.921 1302.82 113.697 1303.86 104.536C1304.9 95.1673 1305.63 85.486 1306.04 75.4925L1308.23 18.3418H1445.64V166.996H1406.6ZM1268.88 222.273V152.006H1470.31V222.273H1433.77V185.109H1305.11V222.273H1268.88Z" fill="white"/>
<path d="M1186.4 154.191C1204.52 154.191 1219.61 148.154 1231.69 136.078L1252.3 160.125C1245.01 169.078 1235.64 175.844 1224.19 180.425C1212.74 185.005 1199.83 187.295 1185.47 187.295C1167.15 187.295 1151.01 183.652 1137.06 176.365C1123.11 169.078 1112.29 158.98 1104.58 146.072C1097.09 132.955 1093.34 118.173 1093.34 101.725C1093.34 85.4858 1096.98 70.9118 1104.27 58.0035C1111.77 44.887 1121.97 34.6852 1134.88 27.3982C1147.99 20.1113 1162.77 16.4678 1179.22 16.4678C1194.84 16.4678 1208.99 19.9031 1221.69 26.7736C1234.6 33.436 1244.8 43.1173 1252.3 55.8174C1259.79 68.3094 1263.54 82.9874 1263.54 99.8515L1135.81 124.835C1139.77 134.413 1146.12 141.7 1154.86 146.696C1163.61 151.693 1174.12 154.191 1186.4 154.191ZM1179.22 47.6976C1164.86 47.6976 1153.2 52.3821 1144.24 61.7511C1135.5 71.12 1131.13 83.7161 1131.13 99.5392V99.8515L1225.44 81.7382C1222.74 71.5364 1217.22 63.3126 1208.89 57.0666C1200.77 50.8206 1190.88 47.6976 1179.22 47.6976Z" fill="white"/>
<path d="M865.467 185.109V18.3418H906.378L973.522 136.703H957.283L1027.86 18.3418H1064.4L1064.71 185.109H1029.42V60.1898L1035.67 64.2497L973.21 167.621H956.346L893.574 61.439L901.069 59.5652V185.109H865.467Z" fill="white"/>
<path d="M682.628 154.191C700.741 154.191 715.836 148.154 727.911 136.078L748.523 160.125C741.236 169.078 731.867 175.844 720.416 180.425C708.965 185.005 696.057 187.295 681.691 187.295C663.37 187.295 647.234 183.652 633.285 176.365C619.335 169.078 608.509 158.98 600.806 146.072C593.311 132.955 589.563 118.173 589.563 101.725C589.563 85.4858 593.206 70.9118 600.493 58.0035C607.989 44.887 618.19 34.6852 631.099 27.3982C644.215 20.1113 658.997 16.4678 675.445 16.4678C691.06 16.4678 705.218 19.9031 717.918 26.7736C730.826 33.436 741.028 43.1173 748.523 55.8174C756.018 68.3094 759.766 82.9874 759.766 99.8515L632.036 124.835C635.991 134.413 642.341 141.7 651.086 146.696C659.83 151.693 670.344 154.191 682.628 154.191ZM675.445 47.6976C661.079 47.6976 649.42 52.3821 640.468 61.7511C631.723 71.12 627.351 83.7161 627.351 99.5392V99.8515L721.665 81.7382C718.959 71.5364 713.442 63.3126 705.114 57.0666C696.994 50.8206 687.104 47.6976 675.445 47.6976Z" fill="white"/>
<path d="M489.813 187.295C476.28 187.295 463.892 184.172 452.649 177.926C441.615 171.68 432.766 162.311 426.104 149.819C419.65 137.119 416.423 121.088 416.423 101.725C416.423 82.1546 419.546 66.1233 425.792 53.6313C432.246 41.1394 440.99 31.8745 452.025 25.8367C463.059 19.5908 475.655 16.4678 489.813 16.4678C506.261 16.4678 520.731 20.0072 533.223 27.0859C545.923 34.1647 555.916 44.0541 563.203 56.7543C570.698 69.4544 574.446 84.4448 574.446 101.725C574.446 119.006 570.698 134.1 563.203 147.009C555.916 159.709 545.923 169.598 533.223 176.677C520.731 183.756 506.261 187.295 489.813 187.295ZM397.373 245.695V18.3416H434.536V57.6912L433.287 102.038L436.41 146.384V245.695H397.373ZM485.441 153.879C494.81 153.879 503.138 151.797 510.425 147.633C517.92 143.469 523.854 137.431 528.226 129.52C532.598 121.608 534.784 112.343 534.784 101.725C534.784 90.899 532.598 81.6341 528.226 73.9307C523.854 66.0192 517.92 59.9814 510.425 55.8174C503.138 51.6534 494.81 49.5714 485.441 49.5714C476.072 49.5714 467.64 51.6534 460.145 55.8174C452.649 59.9814 446.716 66.0192 442.344 73.9307C437.971 81.6341 435.785 90.899 435.785 101.725C435.785 112.343 437.971 121.608 442.344 129.52C446.716 137.431 452.649 143.469 460.145 147.633C467.64 151.797 476.072 153.879 485.441 153.879Z" fill="white"/>
<path d="M187.462 185.109V18.3418H226.499V128.271L318.627 18.3418H354.229V185.109H315.192V75.1802L223.376 185.109H187.462Z" fill="white"/>
<path d="M71.0765 185.109V42.0765L80.1332 51.4455H12.3644V18.3418H168.514V51.4455H101.057L110.114 42.0765V185.109H71.0765Z" fill="white"/>
</svg>
