<svg width="186" height="61" viewBox="0 0 186 61" fill="none" xmlns="http://www.w3.org/2000/svg">
<path d="M173.607 52.2212V48.8309L173.388 48.1088V42.1757C173.388 41.0246 173.042 40.1352 172.352 39.5074C171.661 38.8586 170.615 38.5342 169.212 38.5342C168.271 38.5342 167.339 38.6807 166.419 38.9737C165.519 39.2667 164.755 39.6748 164.127 40.198L162.589 37.3413C163.489 36.6507 164.556 36.1379 165.791 35.8031C167.046 35.4473 168.344 35.2694 169.683 35.2694C172.111 35.2694 173.984 35.8554 175.303 37.0274C176.642 38.1784 177.312 39.9678 177.312 42.3954V52.2212H173.607ZM168.333 52.441C167.078 52.441 165.979 52.2317 165.037 51.8131C164.096 51.3736 163.363 50.7772 162.84 50.0238C162.338 49.2494 162.086 48.3809 162.086 47.4182C162.086 46.4764 162.306 45.6289 162.746 44.8754C163.206 44.122 163.949 43.5256 164.974 43.0861C166 42.6466 167.36 42.4268 169.055 42.4268H173.921V45.0324H169.338C167.999 45.0324 167.099 45.2521 166.638 45.6916C166.178 46.1102 165.948 46.6334 165.948 47.2613C165.948 47.9728 166.23 48.5379 166.795 48.9564C167.36 49.375 168.145 49.5843 169.15 49.5843C170.112 49.5843 170.97 49.3645 171.724 48.925C172.498 48.4856 173.053 47.8368 173.388 46.9787L174.047 49.3331C173.67 50.3168 172.99 51.0807 172.006 51.6248C171.044 52.1689 169.819 52.441 168.333 52.441Z" fill="black"/>
<path d="M142.336 52.2205V35.457H146.26V46.5071L155.521 35.457H159.099V52.2205H155.175V41.1704L145.946 52.2205H142.336Z" fill="black"/>
<path d="M133.369 50.3998V38.7846H126.933L126.839 41.4844C126.797 42.4471 126.735 43.3784 126.651 44.2783C126.567 45.1573 126.431 45.9735 126.243 46.7269C126.055 47.4594 125.782 48.0663 125.427 48.5476C125.071 49.029 124.6 49.3429 124.014 49.4894L120.121 48.8929C120.749 48.8929 121.251 48.6941 121.628 48.2965C122.026 47.8779 122.329 47.3129 122.539 46.6013C122.769 45.8688 122.936 45.0421 123.041 44.1213C123.145 43.1795 123.219 42.2064 123.261 41.2018L123.48 35.457H137.293V50.3998H133.369ZM119.525 55.9562V48.8929H139.773V55.9562H136.1V52.2205H123.166V55.9562H119.525Z" fill="black"/>
<path d="M111.235 49.1134C113.055 49.1134 114.573 48.5065 115.786 47.2926L117.858 49.7099C117.126 50.6098 116.184 51.2899 115.033 51.7504C113.882 52.2108 112.584 52.441 111.14 52.441C109.299 52.441 107.677 52.0747 106.275 51.3423C104.872 50.6098 103.784 49.5948 103.01 48.2972C102.256 46.9787 101.88 45.4928 101.88 43.8395C101.88 42.2071 102.246 40.7421 102.978 39.4446C103.732 38.1261 104.757 37.1006 106.055 36.3681C107.373 35.6356 108.859 35.2694 110.513 35.2694C112.082 35.2694 113.505 35.6147 114.782 36.3053C116.079 36.975 117.105 37.9482 117.858 39.2248C118.612 40.4805 118.988 41.956 118.988 43.6511L106.149 46.1625C106.547 47.1252 107.185 47.8577 108.064 48.36C108.943 48.8623 110 49.1134 111.235 49.1134ZM110.513 38.4086C109.068 38.4086 107.897 38.8795 106.997 39.8213C106.118 40.763 105.678 42.0292 105.678 43.6197V43.6511L115.159 41.8304C114.887 40.8049 114.332 39.9782 113.495 39.3504C112.679 38.7225 111.685 38.4086 110.513 38.4086Z" fill="black"/>
<path d="M78.9736 52.2205V35.457H83.086L89.8354 47.3547H88.203L95.2976 35.457H98.9705L99.0019 52.2205H95.4546V39.6636L96.0824 40.0717L89.804 50.4626H88.1088L81.7989 39.7892L82.5524 39.6008V52.2205H78.9736Z" fill="black"/>
<path d="M143.932 23.9768C145.752 23.9768 147.27 23.3699 148.483 22.1561L150.555 24.5733C149.823 25.4732 148.881 26.1534 147.73 26.6138C146.579 27.0742 145.281 27.3044 143.837 27.3044C141.996 27.3044 140.374 26.9382 138.972 26.2057C137.569 25.4732 136.481 24.4582 135.707 23.1606C134.953 21.8421 134.577 20.3562 134.577 18.7029C134.577 17.0705 134.943 15.6055 135.675 14.308C136.429 12.9895 137.454 11.964 138.752 11.2315C140.07 10.4991 141.556 10.1328 143.21 10.1328C144.779 10.1328 146.202 10.4781 147.479 11.1688C148.776 11.8385 149.802 12.8116 150.555 14.0882C151.309 15.3439 151.685 16.8194 151.685 18.5146L138.846 21.0259C139.244 21.9886 139.882 22.7211 140.761 23.2234C141.64 23.7257 142.697 23.9768 143.932 23.9768ZM143.21 13.272C141.766 13.272 140.594 13.7429 139.694 14.6847C138.815 15.6265 138.375 16.8926 138.375 18.4832V18.5146L147.856 16.6938C147.584 15.6683 147.029 14.8417 146.192 14.2138C145.376 13.586 144.382 13.272 143.21 13.272Z" fill="black"/>
<path d="M124.55 27.3044C123.189 27.3044 121.944 26.9905 120.814 26.3626C119.705 25.7348 118.815 24.793 118.146 23.5373C117.497 22.2607 117.173 20.6492 117.173 18.7029C117.173 16.7357 117.487 15.1242 118.114 13.8685C118.763 12.6128 119.642 11.6815 120.751 11.0746C121.861 10.4467 123.127 10.1328 124.55 10.1328C126.203 10.1328 127.658 10.4886 128.913 11.2001C130.19 11.9117 131.195 12.9058 131.927 14.1824C132.68 15.459 133.057 16.9659 133.057 18.7029C133.057 20.44 132.68 21.9572 131.927 23.2548C131.195 24.5314 130.19 25.5255 128.913 26.2371C127.658 26.9486 126.203 27.3044 124.55 27.3044ZM115.258 33.1748V10.3212H118.993V14.2766L118.868 18.7343L119.182 23.192V33.1748H115.258ZM124.11 23.9454C125.052 23.9454 125.889 23.7361 126.622 23.3176C127.375 22.899 127.972 22.2921 128.411 21.4968C128.851 20.7016 129.07 19.7702 129.07 18.7029C129.07 17.6146 128.851 16.6833 128.411 15.909C127.972 15.1137 127.375 14.5068 126.622 14.0882C125.889 13.6697 125.052 13.4604 124.11 13.4604C123.169 13.4604 122.321 13.6697 121.568 14.0882C120.814 14.5068 120.218 15.1137 119.778 15.909C119.339 16.6833 119.119 17.6146 119.119 18.7029C119.119 19.7702 119.339 20.7016 119.778 21.4968C120.218 22.2921 120.814 22.899 121.568 23.3176C122.321 23.7361 123.169 23.9454 124.11 23.9454Z" fill="black"/>
<path d="M94.1572 27.0838V10.3203H98.0813V21.3704L107.342 10.3203H110.921V27.0838H106.997V16.0337L97.7673 27.0838H94.1572Z" fill="black"/>
<path d="M82.4584 27.0838V12.7061L83.3688 13.6479H76.5566V10.3203H92.2528V13.6479H85.4721L86.3824 12.7061V27.0838H82.4584Z" fill="black"/>
<path fill-rule="evenodd" clip-rule="evenodd" d="M4.2041 9.11182C4.2041 6.4224 6.38431 4.24219 9.07373 4.24219H59.8153C62.5047 4.24219 64.6849 6.4224 64.6849 9.11182C64.6849 11.8012 62.5047 13.9815 59.8153 13.9815H9.07373C6.38431 13.9815 4.2041 11.8012 4.2041 9.11182ZM9.07373 24.2542C11.7632 24.2542 13.9434 26.4344 13.9434 29.1238V38.8625L25.5551 26.21C28.6805 22.8044 34.3601 25.0158 34.3601 29.6379V38.7712L45.7549 26.2321C48.8716 22.8024 54.5767 25.0071 54.5767 29.6417V39.6683L56.3832 37.8735C58.2911 35.978 61.3744 35.988 63.2699 37.8959C65.1654 39.8038 65.1553 42.8871 63.2474 44.7826L53.4804 54.4862C50.2818 57.6639 44.8374 55.3983 44.8374 50.8896V41.7232L33.4426 54.2623C30.3259 57.6921 24.6208 55.4872 24.6208 50.8527V41.6319L13.0091 54.2844C9.88379 57.6899 4.2041 55.4788 4.2041 50.8565V29.1238C4.2041 26.4344 6.38431 24.2542 9.07373 24.2542Z" fill="black"/>
</svg>
