<svg width="131" height="42" viewBox="0 0 131 42" fill="none" xmlns="http://www.w3.org/2000/svg">
<path d="M47.9113 5.87583C48.3139 5.87583 48.6393 5.98716 48.8791 6.20126C49.1189 6.41535 49.2388 6.70653 49.2388 7.06621V14.9022C49.2388 15.2362 49.1274 15.5188 48.9048 15.75C48.6821 15.9641 48.3909 16.0754 48.0484 16.0754C47.7058 16.0754 47.4061 15.9641 47.1663 15.75C46.9436 15.5188 46.8323 15.2362 46.8323 14.9022L46.8494 9.81522L44.7513 13.5748C44.6228 13.7889 44.4601 13.9687 44.246 14.0972C44.0405 14.2171 43.8092 14.277 43.5523 14.277C43.0214 14.277 42.6189 14.0372 42.3362 13.5662L40.2381 9.80666L40.2552 14.8936C40.2552 15.2276 40.1353 15.5102 39.8955 15.7414C39.6729 15.9555 39.3817 16.0669 39.0391 16.0669C38.6966 16.0669 38.4054 15.9555 38.1828 15.7414C37.9601 15.5102 37.8488 15.2276 37.8488 14.8936V7.14328C37.8488 6.74935 37.9515 6.44104 38.1656 6.21838C38.3883 5.98716 38.6966 5.87583 39.0905 5.87583C39.4845 5.87583 39.7842 5.93577 40.0326 6.05567C40.2809 6.167 40.5036 6.39823 40.7005 6.76647L43.5523 11.9562L46.2928 6.92919C46.5154 6.53525 46.7381 6.26977 46.9608 6.12418C47.2005 5.96147 47.5088 5.88439 47.9028 5.88439L47.9113 5.87583Z" fill="#010101"/>
<path d="M56.3297 5.83301C57.7513 5.83301 58.8046 6.17556 59.4897 6.86068C60.192 7.53722 60.5345 8.56489 60.5345 9.95224V14.8765C60.5345 15.2362 60.4232 15.5273 60.2005 15.7414C59.9779 15.947 59.6696 16.0412 59.2756 16.0412C58.916 16.0412 58.6162 15.9298 58.3764 15.7157C58.1538 15.5017 58.0424 15.219 58.0424 14.8679V14.4226C57.8027 14.945 57.4258 15.3561 56.912 15.6558C56.4067 15.9555 55.8244 16.1011 55.1564 16.1011C54.4884 16.1011 53.8547 15.9641 53.2895 15.6986C52.7328 15.4331 52.2875 15.0563 51.9706 14.5853C51.6452 14.1143 51.4911 13.5919 51.4911 13.0096C51.4911 12.2816 51.6795 11.7078 52.0563 11.2968C52.4502 10.8771 53.0754 10.5774 53.9403 10.389C54.8053 10.2006 56.0042 10.1064 57.52 10.1064H58.0424V9.64394C58.0424 8.98452 57.8969 8.50494 57.6057 8.21377C57.3145 7.90547 56.8349 7.75132 56.1841 7.75132C55.7816 7.75132 55.3705 7.81127 54.9509 7.93116C54.5312 8.04249 54.0345 8.19664 53.4608 8.41931C53.1011 8.59058 52.8356 8.68479 52.6643 8.68479C52.416 8.68479 52.2019 8.59915 52.0391 8.41931C51.885 8.24803 51.8079 8.0168 51.8079 7.73419C51.8079 7.50297 51.8679 7.306 51.9792 7.15185C52.1077 6.98057 52.3046 6.81786 52.5872 6.66371C53.0754 6.40679 53.6577 6.20982 54.3257 6.05567C55.0108 5.91008 55.6788 5.83301 56.3382 5.83301H56.3297ZM55.6788 14.2941C56.381 14.2941 56.9463 14.0715 57.3745 13.6262C57.8198 13.1723 58.0424 12.5814 58.0424 11.8706V11.4424H57.6656C56.7322 11.4424 56.0042 11.4852 55.4904 11.5623C54.9766 11.6393 54.5998 11.7849 54.3771 11.9905C54.1544 12.196 54.0431 12.47 54.0431 12.8212C54.0431 13.2493 54.1972 13.609 54.5055 13.8916C54.831 14.1571 55.2164 14.2941 55.6788 14.2941Z" fill="#010101"/>
<path d="M70.0148 6.84355C70.2974 6.46674 70.5457 6.20982 70.7684 6.0728C71.0082 5.93577 71.325 5.86726 71.7361 5.86726C72.1472 5.86726 72.4641 5.97859 72.7038 6.19269C72.9522 6.40679 73.0806 6.69796 73.0806 7.05765V14.8337C73.0806 15.1934 72.9608 15.4931 72.721 15.7243C72.4983 15.9555 72.2071 16.0669 71.8389 16.0669C71.4706 16.0669 71.1538 15.9555 70.914 15.7243C70.6913 15.4931 70.58 15.2019 70.58 14.8337V9.14724L66.1353 15.142C65.8698 15.5017 65.6129 15.7586 65.3646 15.887C65.1248 16.0069 64.825 16.0669 64.4654 16.0669C64.0629 16.0669 63.7374 15.9555 63.4976 15.7414C63.2579 15.5273 63.138 15.2276 63.138 14.8508V7.08334C63.138 6.72365 63.2493 6.43248 63.472 6.21838C63.7117 5.98716 64.02 5.87583 64.3969 5.87583C64.7737 5.87583 65.0563 5.98716 65.2789 6.21838C65.5187 6.43248 65.6386 6.72365 65.6386 7.08334V12.7355L70.0148 6.84355Z" fill="#010101"/>
<path d="M79.3666 16.0669C78.964 16.0669 78.6386 15.9555 78.3988 15.7414C78.159 15.5273 78.0391 15.2362 78.0391 14.8765V7.97398H75.6327C75.3244 7.97398 75.076 7.88834 74.8791 7.7085C74.6992 7.53722 74.605 7.306 74.605 7.02339C74.605 6.74078 74.6992 6.50956 74.8791 6.33828C75.076 6.167 75.3244 6.0728 75.6327 6.0728H83.0662C83.3745 6.0728 83.6142 6.15844 83.8027 6.33828C83.9996 6.50956 84.0938 6.74078 84.0938 7.02339C84.0938 7.306 83.9996 7.53722 83.8027 7.7085C83.6228 7.87978 83.3745 7.97398 83.0662 7.97398H80.6597V14.8765C80.6597 15.2362 80.5398 15.5273 80.3 15.7414C80.0602 15.9555 79.7519 16.0669 79.358 16.0669H79.3666Z" fill="#010101"/>
<path d="M42.2506 22.9608C44.7341 22.9608 45.9673 24.2968 45.9673 26.9773V32.6637C45.9673 32.9121 45.8903 33.1176 45.7447 33.2717C45.6077 33.4259 45.4193 33.503 45.1795 33.503C44.9397 33.503 44.7427 33.4259 44.5886 33.2717C44.443 33.1176 44.3659 32.9121 44.3659 32.6637V31.6617C44.109 32.2612 43.715 32.7322 43.1841 33.0662C42.6531 33.3831 42.0451 33.5458 41.3514 33.5458C40.7177 33.5458 40.1268 33.4173 39.5787 33.1519C39.0477 32.8864 38.6281 32.5181 38.3198 32.0471C38.0115 31.5761 37.8488 31.0537 37.8488 30.4799C37.8488 29.7092 38.0372 29.1183 38.414 28.6986C38.7908 28.2704 39.416 27.9621 40.2809 27.7823C41.1459 27.5853 42.3534 27.4911 43.9034 27.4911H44.3488V26.7974C44.3488 25.9582 44.1775 25.3501 43.8435 24.9562C43.5181 24.5623 42.9785 24.3739 42.2335 24.3739C41.3086 24.3739 40.3751 24.6308 39.4245 25.1446C39.0563 25.3844 38.7994 25.5043 38.6538 25.5043C38.4911 25.5043 38.354 25.4443 38.2513 25.3159C38.1399 25.1874 38.0886 25.0333 38.0886 24.8363C38.0886 24.6393 38.1399 24.4766 38.2513 24.331C38.3712 24.1769 38.5596 24.0227 38.8165 23.8686C39.2875 23.586 39.827 23.3719 40.4265 23.2177C41.0345 23.0464 41.6426 22.9694 42.2335 22.9694L42.2506 22.9608ZM41.5826 32.2013C42.3962 32.2013 43.0642 31.9186 43.578 31.362C44.109 30.7882 44.3745 30.0603 44.3745 29.1696V28.5616H44.0062C42.8158 28.5616 41.9081 28.6215 41.2829 28.7329C40.6577 28.8271 40.2124 29.0069 39.9384 29.2553C39.6814 29.4951 39.553 29.8462 39.553 30.3258C39.553 30.8653 39.7414 31.3192 40.1182 31.6874C40.5121 32.0385 41.0003 32.2098 41.5826 32.2098V32.2013Z" fill="#010101"/>
<path d="M53.5978 27.8765C54.0859 28.0135 54.4799 28.2447 54.7796 28.5702C55.0793 28.887 55.4305 29.4094 55.833 30.1202L57.1175 32.2783C57.2032 32.4154 57.2374 32.5609 57.2374 32.7151C57.2374 32.9378 57.1518 33.1262 56.9976 33.2803C56.8349 33.4345 56.6465 33.5115 56.4324 33.5115C56.1327 33.5115 55.8929 33.3659 55.7216 33.0748L54.1801 30.3943C53.829 29.7948 53.495 29.3923 53.1867 29.1782C52.8784 28.9727 52.4245 28.8613 51.8422 28.8613H50.7032V32.6637C50.7032 32.9292 50.6261 33.1347 50.4805 33.2889C50.3349 33.4259 50.1294 33.4944 49.8725 33.4944C49.6327 33.4944 49.4357 33.4259 49.2816 33.2889C49.136 33.1347 49.0589 32.9292 49.0589 32.6637V23.8343C49.0589 23.586 49.136 23.3804 49.2816 23.2263C49.4272 23.0721 49.6241 22.9951 49.8725 22.9951C50.1294 22.9951 50.3349 23.0721 50.4805 23.2263C50.6261 23.3804 50.7032 23.586 50.7032 23.8343V27.5339H52.082L55.4561 23.3547C55.6445 23.115 55.8586 22.9951 56.0899 22.9951C56.2783 22.9951 56.441 23.0636 56.578 23.2006C56.7236 23.3376 56.8007 23.5175 56.8007 23.723C56.8007 23.9028 56.7236 24.0912 56.578 24.2882L53.6063 27.8679L53.5978 27.8765Z" fill="#010101"/>
<path d="M63.3521 22.9608C65.8356 22.9608 67.0688 24.2968 67.0688 26.9773V32.6637C67.0688 32.9121 66.9917 33.1176 66.8461 33.2717C66.7091 33.4259 66.5207 33.503 66.2809 33.503C66.0411 33.503 65.8442 33.4259 65.69 33.2717C65.5444 33.1176 65.4673 32.9121 65.4673 32.6637V31.6617C65.2104 32.2612 64.8165 32.7322 64.2855 33.0662C63.7546 33.3831 63.1465 33.5458 62.4529 33.5458C61.8191 33.5458 61.2282 33.4173 60.6801 33.1519C60.1492 32.8864 59.7295 32.5181 59.4212 32.0471C59.1129 31.5761 58.9502 31.0537 58.9502 30.4799C58.9502 29.7092 59.1386 29.1183 59.5154 28.6986C59.8922 28.2704 60.5174 27.9621 61.3824 27.7823C62.2473 27.5853 63.4548 27.4911 65.0049 27.4911H65.4502V26.7974C65.4502 25.9582 65.2789 25.3501 64.9449 24.9562C64.6195 24.5623 64.08 24.3739 63.3349 24.3739C62.41 24.3739 61.4766 24.6308 60.526 25.1446C60.1577 25.3844 59.9008 25.5043 59.7552 25.5043C59.5925 25.5043 59.4555 25.4443 59.3527 25.3159C59.2414 25.1874 59.19 25.0333 59.19 24.8363C59.19 24.6393 59.2414 24.4766 59.3527 24.331C59.4726 24.1769 59.661 24.0227 59.9179 23.8686C60.3889 23.586 60.9285 23.3719 61.5279 23.2177C62.136 23.0464 62.744 22.9694 63.3349 22.9694L63.3521 22.9608ZM62.6841 32.2013C63.4976 32.2013 64.1656 31.9186 64.6795 31.362C65.2104 30.7882 65.4759 30.0603 65.4759 29.1696V28.5616H65.1077C63.9173 28.5616 63.0095 28.6215 62.3843 28.7329C61.7592 28.8271 61.3139 29.0069 61.0398 29.2553C60.7829 29.4951 60.6544 29.8462 60.6544 30.3258C60.6544 30.8653 60.8428 31.3192 61.2196 31.6874C61.6136 32.0385 62.1017 32.2098 62.6841 32.2098V32.2013Z" fill="#010101"/>
<path d="M69.5438 36.1578C69.3125 36.1578 69.1241 36.0807 68.9785 35.9266C68.8415 35.7895 68.773 35.5926 68.773 35.3442V32.9378C68.773 32.6723 68.8415 32.4667 68.9785 32.3126C69.1156 32.1413 69.2868 32.0642 69.5095 32.0642H69.8777C70.3659 31.3363 70.7084 30.4714 70.914 29.4694C71.1195 28.4674 71.2223 27.1571 71.2223 25.5385V24.0998C71.2223 23.8343 71.2994 23.6288 71.4449 23.4746C71.5905 23.3034 71.7961 23.2263 72.053 23.2263H77.1571C77.414 23.2263 77.6195 23.3034 77.7651 23.4575C77.9278 23.6117 78.0049 23.8172 78.0049 24.0827V32.0728H78.6986C78.9555 32.0728 79.161 32.1499 79.3066 32.304C79.4693 32.4582 79.5464 32.6637 79.5464 32.9292V35.3528C79.5464 35.6011 79.4779 35.7981 79.3409 35.9351C79.2038 36.0893 79.0154 36.1663 78.7756 36.1663C78.5444 36.1663 78.356 36.0893 78.2104 35.9351C78.0734 35.7981 78.0049 35.6011 78.0049 35.3528V33.4088H70.3231V35.3528C70.3231 35.6011 70.246 35.7981 70.1004 35.9351C69.9634 36.0893 69.7835 36.1663 69.5523 36.1663L69.5438 36.1578ZM76.3778 24.5537H72.6953V25.5385C72.6953 28.6044 72.2585 30.7796 71.3936 32.0642H76.3778V24.5537Z" fill="#010101"/>
<path d="M88.9924 31.0366C89.138 31.0366 89.2664 31.0965 89.3778 31.225C89.4891 31.3534 89.5405 31.5076 89.5405 31.7046C89.5405 32.0557 89.3007 32.3725 88.8297 32.6637C88.3415 32.9549 87.8277 33.1775 87.2882 33.3317C86.7486 33.4687 86.2177 33.5372 85.7038 33.5372C84.1709 33.5372 82.9548 33.0662 82.0642 32.1327C81.1821 31.1993 80.7453 29.9061 80.7453 28.2619C80.7453 27.2171 80.9423 26.2922 81.3362 25.5043C81.7302 24.6993 82.2783 24.0656 82.9805 23.6202C83.6999 23.1749 84.5135 22.9522 85.4212 22.9522C86.7058 22.9522 87.7335 23.3804 88.4871 24.2454C89.2493 25.1103 89.6261 26.2836 89.6261 27.7566C89.6261 28.0392 89.5747 28.2362 89.4634 28.3646C89.3521 28.4931 89.1808 28.553 88.9324 28.553H82.3896C82.5095 30.9509 83.6142 32.1499 85.7038 32.1499C86.2348 32.1499 86.6887 32.0814 87.0655 31.9443C87.4423 31.7902 87.8534 31.5847 88.2816 31.3363C88.6327 31.1308 88.8725 31.0194 88.9924 31.0194V31.0366ZM85.4384 24.2797C84.5734 24.2797 83.8712 24.5623 83.3402 25.1189C82.8264 25.6756 82.5181 26.4634 82.4239 27.4825H88.1788C88.1531 26.4549 87.9048 25.667 87.4252 25.1189C86.9542 24.5623 86.2862 24.2797 85.4298 24.2797H85.4384Z" fill="#010101"/>
<path d="M101.299 23.0036C101.556 23.0036 101.761 23.0807 101.907 23.2349C102.069 23.389 102.155 23.5945 102.155 23.86V32.7065C102.155 32.9463 102.078 33.1347 101.932 33.2889C101.795 33.4259 101.616 33.4944 101.384 33.4944C101.153 33.4944 100.965 33.4259 100.811 33.2889C100.674 33.1347 100.605 32.9378 100.605 32.7065L100.622 25.9068L97.8132 31.302C97.7447 31.4391 97.6419 31.5504 97.5049 31.636C97.385 31.7217 97.2394 31.7645 97.0767 31.7645C96.914 31.7645 96.7684 31.7217 96.6314 31.636C96.5115 31.5504 96.4173 31.4391 96.3488 31.302L93.5227 25.9068L93.5398 32.7065C93.5398 32.9463 93.4627 33.1347 93.3171 33.2889C93.1801 33.4259 93.0003 33.4944 92.7691 33.4944C92.5378 33.4944 92.3494 33.4259 92.1953 33.2889C92.0582 33.1347 91.9897 32.9378 91.9897 32.7065V23.8857C91.9897 23.6202 92.0668 23.4147 92.2124 23.2605C92.358 23.0893 92.5635 23.0122 92.8204 23.0122C93.2229 23.0122 93.5227 23.2006 93.7111 23.5774L97.0681 30.0603L100.382 23.6202C100.588 23.2177 100.888 23.0122 101.273 23.0122L101.299 23.0036Z" fill="#010101"/>
<path d="M112.029 23.5432C112.166 23.3462 112.303 23.2092 112.457 23.1235C112.603 23.0379 112.783 22.9951 112.988 22.9951C113.245 22.9951 113.451 23.0807 113.596 23.2434C113.759 23.4147 113.836 23.6202 113.836 23.8686V32.6723C113.836 32.9121 113.759 33.1005 113.614 33.2546C113.468 33.4088 113.271 33.4858 113.048 33.4858C112.834 33.4858 112.646 33.4088 112.475 33.2546C112.329 33.0833 112.252 32.8949 112.252 32.6723V25.3758L106.908 32.9891C106.677 33.3231 106.369 33.4944 105.992 33.4944C105.735 33.4944 105.521 33.4173 105.358 33.2632C105.195 33.0919 105.11 32.8864 105.11 32.638V23.8343C105.11 23.5945 105.187 23.4061 105.332 23.252C105.495 23.0807 105.692 23.0036 105.923 23.0036C106.154 23.0036 106.343 23.0893 106.497 23.252C106.643 23.4061 106.72 23.6031 106.72 23.8343V31.028L112.029 23.5432Z" fill="#010101"/>
<path d="M123.659 33.503C123.402 33.503 123.197 33.4345 123.051 33.2974C122.897 33.1433 122.828 32.9378 122.828 32.6723V29.5807H121.569C121.03 29.5807 120.559 29.7092 120.165 29.9575C119.788 30.2059 119.437 30.5741 119.129 31.0623L117.81 33.1519C117.621 33.4345 117.382 33.5715 117.099 33.5715C116.894 33.5715 116.714 33.4944 116.551 33.3403C116.388 33.1861 116.303 33.0063 116.303 32.8007C116.303 32.6637 116.354 32.501 116.465 32.3212L117.322 30.9167C117.604 30.4542 117.921 30.0688 118.255 29.7691C118.606 29.4608 118.966 29.2638 119.334 29.1611C118.409 29.0241 117.75 28.6901 117.339 28.1762C116.928 27.6624 116.731 27.0544 116.731 26.3607C116.731 25.3587 117.039 24.5794 117.647 24.0399C118.272 23.4918 119.094 23.2263 120.131 23.2263H123.625C123.882 23.2263 124.087 23.3034 124.233 23.4575C124.378 23.6117 124.455 23.8172 124.455 24.0656V32.6808C124.455 32.9463 124.378 33.1519 124.233 33.306C124.096 33.443 123.907 33.5115 123.668 33.5115L123.659 33.503ZM122.828 24.4937H120.567C119.848 24.4937 119.291 24.6565 118.898 24.9733C118.504 25.2902 118.307 25.7783 118.307 26.4121C118.307 27.0972 118.512 27.5853 118.94 27.8765C119.377 28.1591 119.925 28.2961 120.61 28.2961H122.828V24.4937Z" fill="#010101"/>
<path fill-rule="evenodd" clip-rule="evenodd" d="M12.6709 12.0761C11.746 11.6565 9.83625 10.7915 9.54508 10.6459C9.34811 10.5432 9.23677 10.4061 9.26247 10.2605C9.23677 10.115 9.34811 9.95224 9.65641 9.81522C11.8316 8.82181 17.3639 6.27833 17.912 6.02998C18.1518 5.92721 18.3488 5.87583 18.5115 5.86726C18.6828 5.87583 18.8712 5.92721 19.111 6.02998C19.659 6.27833 25.1999 8.81325 27.3666 9.81522C27.6749 9.95224 27.7862 10.115 27.7605 10.2605C27.7862 10.3976 27.6749 10.5346 27.4779 10.6459C27.4008 10.6887 27.221 10.7744 26.964 10.8857V13.3864C27.1525 13.4891 27.2809 13.669 27.2809 13.8916C27.2809 14.08 27.1781 14.2428 27.024 14.3541C27.024 14.3541 27.3066 15.8613 27.3837 16.1953C27.4608 16.5293 25.8336 16.615 25.9193 16.1953C26.0049 15.7757 26.2789 14.3541 26.2789 14.3541C26.1248 14.2428 26.022 14.08 26.022 13.8916C26.022 13.6775 26.1505 13.4891 26.3389 13.3864V11.1683C25.6709 11.4766 24.8659 11.8363 24.3521 12.0675C24.3521 12.4015 24.3435 12.9839 24.3264 12.9924C24.2236 13.8231 24.0523 14.748 24.0009 15.0135C24.0866 15.0563 24.5148 15.3218 24.5148 16.1439V16.1611C24.5148 16.1611 24.5148 16.2039 24.5148 16.2296C24.4034 17.6255 24.0009 17.8053 23.6498 17.9595C23.4272 18.0623 23.2302 18.1479 23.1531 18.5418C22.8191 20.2118 21.2434 21.4193 20.2671 21.8304C19.7019 22.0702 19.1195 22.1901 18.5029 22.2072C17.8863 22.1986 17.304 22.0702 16.7388 21.8304C15.7625 21.4107 14.1867 20.2032 13.8527 18.5418C13.7756 18.1479 13.5787 18.0623 13.356 17.9595C13.0135 17.8053 12.611 17.6255 12.4911 16.2296C12.4911 16.2039 12.4911 16.1868 12.4911 16.1611V16.1439C12.4911 15.3218 12.9193 15.0563 13.0049 15.0135C12.9535 14.748 12.7822 13.8231 12.6795 12.9924C12.6709 12.9839 12.6623 12.4015 12.6538 12.0675L12.6709 12.0761ZM23.076 23.6288C23.7012 23.9628 25.0543 24.6822 25.8936 24.9733C29.3277 26.1295 30.8692 27.3198 30.8692 28.1248V33.4858H6.1709V28.1248C6.1709 27.3198 7.7124 26.138 11.1465 24.9733C11.9858 24.6907 13.3389 23.9628 13.964 23.6288C14.1011 23.5603 14.2038 23.5003 14.2552 23.4746C14.3323 23.4318 14.4265 23.4061 14.5207 23.4061C14.7348 23.4061 14.9146 23.526 15.0003 23.6973C15.2401 24.0741 15.5312 24.6479 15.8567 25.2816C16.6874 26.8916 17.7065 28.887 18.4944 28.9384C18.4944 28.9384 18.4944 28.9384 18.5029 28.9384C18.5029 28.9384 18.5029 28.9384 18.5115 28.9384C19.2908 28.887 20.3185 26.8916 21.1492 25.2816C21.4746 24.6479 21.7743 24.0741 22.0055 23.6973C22.0912 23.526 22.2796 23.4061 22.4851 23.4061C22.5793 23.4061 22.6735 23.4318 22.7506 23.4746C22.802 23.5003 22.9048 23.5603 23.0418 23.6288H23.076Z" fill="#010101"/>
</svg>
