<svg width="290" height="42" viewBox="0 0 290 42" fill="none" xmlns="http://www.w3.org/2000/svg">
<path d="M31.6619 14.3744V30.9998C31.6619 31.3548 31.366 31.6506 30.9519 31.7098H28.5261C28.2303 31.7098 27.9345 31.4731 27.8161 31.1773C27.4611 29.994 26.8103 27.6274 24.3254 26.2666V30.9406C24.3254 31.3548 24.0296 31.7098 23.6154 31.7098H21.1897C20.8938 31.7098 20.6572 31.4731 20.4797 31.2364C20.3614 30.9406 19.7697 27.8049 16.989 26.2666V30.9998C16.989 31.3548 16.6931 31.7098 16.3382 31.7098H13.0249C12.6108 31.7098 12.3149 31.3548 12.3149 30.9998V22.5984C12.3741 22.0067 12.9066 21.5334 13.4982 21.5334H18.5864C20.0064 21.4742 21.1305 20.2909 21.1305 18.871V14.4336C21.1305 12.5995 20.3022 10.8246 18.8822 9.70042H26.9287C29.5319 9.64126 31.6619 11.7712 31.6619 14.3744Z" fill="#010101"/>
<path d="M14.9748 9.64062C17.5781 9.64062 19.708 11.7706 19.708 14.3738V18.8703C19.7672 19.5212 19.2347 20.1128 18.5839 20.172C18.5247 20.172 18.5247 20.172 18.4656 20.172H13.1999C11.8983 20.2311 10.8925 21.2961 10.8333 22.6569V31.7683C10.8333 31.7683 6.1001 29.9342 6.1001 24.846V10.7648C6.1001 10.1731 6.63258 9.64062 7.22423 9.64062H14.9748Z" fill="#010101"/>
<path d="M81.7354 24.728C81.7354 25.6247 81.7354 26.88 80.1214 26.88C78.5074 26.88 78.5074 25.6247 78.5074 24.728V15.582H69.1821V26.7007C69.1821 29.7493 70.9755 31.9013 75.9968 31.9013C78.5074 32.0806 81.0181 31.0046 82.2734 28.8526V31.5426H91.0607V15.7614H81.7354V24.728Z" fill="#010101"/>
<path d="M255.506 15.2246C247.615 15.2246 243.491 17.9146 243.491 23.2946C243.491 28.6746 247.615 31.9026 255.506 31.9026C258.375 31.9026 261.424 31.7232 264.293 31.0059V26.8812C262.321 27.5986 260.169 27.9572 258.017 27.9572C255.327 27.9572 252.995 27.4192 252.816 25.4466H265.728V24.5499C265.728 18.9906 263.038 15.0453 255.506 15.2246ZM252.816 21.8599C252.457 20.4253 253.354 19.1699 254.789 18.8113C254.968 18.8113 255.147 18.8113 255.327 18.8113C257.479 18.8113 257.658 20.7839 257.658 22.0393H252.816V21.8599Z" fill="#010101"/>
<path d="M162.432 15.222C160.101 15.222 156.873 16.1187 156.335 17.912C155.618 16.1187 152.928 15.222 150.238 15.222C147.368 15.222 144.678 16.1187 143.602 18.2706V15.5807H134.815V31.3619H144.14V22.216C144.14 21.3193 144.14 20.064 145.754 20.064C147.368 20.064 147.368 21.3193 147.368 22.216V31.3619H156.694V22.216C156.694 21.3193 156.693 20.064 158.307 20.064C159.921 20.064 159.922 21.3193 159.922 22.216V31.3619H169.247V21.8573C169.426 18.8086 169.426 15.0427 162.432 15.222Z" fill="#010101"/>
<path d="M57.8828 10.2019H40.8462V31.3631H50.7095V25.2658H57.8828C63.0834 25.2658 67.3874 22.9345 67.3874 17.3752C67.3874 11.8159 62.0074 10.2019 57.8828 10.2019ZM52.6821 20.2445H50.5302V15.0439H52.6821C55.0135 15.0439 57.5241 15.4025 57.5241 17.5545C57.5241 19.7065 55.0135 20.2445 52.6821 20.2445Z" fill="#010101"/>
<path d="M122.978 26.6987L132.304 21.8567V15.5801H105.583V9.66211L96.2578 11.9934V15.5801H93.0298V20.2427H96.2578V25.802C96.2578 29.9267 98.5891 31.8994 103.431 31.8994C105.583 31.8994 107.735 31.5407 109.887 31.0027V26.34C109.17 26.5194 108.452 26.6987 107.735 26.6987C106.659 26.6987 105.762 25.9814 105.762 24.9054C105.762 24.726 105.762 24.726 105.762 24.5467V20.0634H122.261L112.577 24.726V31.3613H132.662V26.878L122.978 26.6987Z" fill="#010101"/>
<path d="M282.227 15.2213C279.717 15.2213 277.385 16.8353 276.309 19.1666V15.58H267.522V31.3612H276.847V25.6226C277.027 23.1119 279.179 21.3186 281.689 21.4979C282.407 21.4979 283.124 21.4979 283.841 21.6773V15.2213C283.303 15.2213 282.945 15.042 282.227 15.2213Z" fill="#010101"/>
<path d="M204.578 15.582H195.252V31.3633H204.578V15.582Z" fill="#010101"/>
<path d="M238.289 9.48438L228.963 11.8157V15.9404C225.197 15.4024 221.431 15.223 217.665 15.0437C213.003 15.0437 207.264 15.761 207.264 20.4237C207.264 26.521 217.665 24.7276 217.665 26.7003C217.665 27.4176 215.872 27.7763 214.258 27.7763C211.927 27.7763 209.595 27.2383 207.444 26.3416V30.8249C210.133 31.3629 212.823 31.7216 215.513 31.7216C219.997 31.7216 226.273 30.4663 226.273 25.983C226.273 20.065 215.513 21.8583 215.513 20.2443C215.513 19.3477 217.127 19.1683 218.741 19.1683C222.149 19.1683 225.735 19.527 229.143 20.2443V25.6243C229.143 29.749 231.474 31.7216 236.316 31.7216C238.468 31.7216 240.62 31.3629 242.772 30.8249V26.1623C242.055 26.3416 241.337 26.521 240.62 26.521C239.544 26.521 238.647 25.8036 238.647 24.7277C238.647 24.5483 238.647 24.5483 238.647 24.369V19.8857H242.951V15.4023H238.647L238.289 9.48438Z" fill="#010101"/>
<path d="M183.057 15.2246C175.166 15.2246 171.042 17.9146 171.042 23.2946C171.042 28.6746 175.166 31.9026 183.057 31.9026C185.926 31.9026 188.975 31.7232 191.844 31.0059V26.8812C189.871 27.5986 187.719 27.9572 185.567 27.9572C182.877 27.9572 180.546 27.4192 180.367 25.4466H193.279V24.5499C193.279 18.9906 190.589 15.0453 183.057 15.2246ZM180.187 21.8599C179.829 20.4253 180.725 19.1699 182.16 18.8113C182.339 18.8113 182.519 18.8113 182.698 18.8113C184.85 18.8113 185.029 20.7839 185.029 22.0393H180.187V21.8599Z" fill="#010101"/>
<path d="M204.757 9.48438H195.432V13.7884H204.757V9.48438Z" fill="#010101"/>
</svg>
