<svg width="250" height="42" viewBox="0 0 250 42" fill="none" xmlns="http://www.w3.org/2000/svg">
<g clip-path="url(#clip0_1775_27517)">
<path d="M8.87152 31.0927C3.68166 31.0927 0.862793 27.5069 0.862793 23.0142C0.862793 18.4739 4.18082 14.7588 9.62881 14.7588C11.075 14.7588 12.3315 14.9405 13.4203 15.4858V18.4133C12.3199 17.7557 11.0454 17.4146 9.74848 17.4309C6.05266 17.4309 4.68852 20.0506 4.68852 22.7882C4.68852 25.8517 6.40822 28.2798 9.41684 28.2798C10.7434 28.2798 11.8101 27.9278 13.0921 27.2695L14.0136 29.6421C12.0955 30.7996 10.4579 31.0943 8.87152 31.0943V31.0927ZM67.2301 31.0943C63.3925 31.0943 61.418 28.3944 61.418 25.1705C61.418 21.5684 64.025 19.1796 67.5088 19.1796C69.0473 19.1796 69.8542 19.4742 70.4934 19.8345V22.4215C69.6387 21.8321 68.955 21.6273 68.0063 21.6273C66.0387 21.6273 64.7737 23.0126 64.7737 25.0084C64.7737 26.8013 65.7549 28.55 67.9584 28.55C68.5738 28.55 69.3892 28.2945 70.2662 27.8639L71.0867 30.0022C70.0901 30.6376 68.4319 31.0911 67.2234 31.0911L67.2301 31.0943ZM77.9022 21.9908V30.8635H74.4833V21.9925H71.179V19.4055H81.6528L80.9125 21.9925L77.9022 21.9908ZM94.4018 20.7432C94.4018 24.7367 94.2308 26.8242 93.4786 27.7837C93.0864 28.2619 92.5184 28.5787 91.8905 28.6695L92.8376 31.0976C93.6206 31.0747 94.8291 30.7571 95.6581 29.963C96.7488 28.9412 97.1029 27.6478 97.2681 26.2855C97.4208 25.0502 97.5 23.8078 97.5057 22.5639V21.9974H100.181V30.8701H103.601V19.4088H94.4085L94.4018 20.7432ZM55.7205 19.1796C54.394 19.1796 53.3751 19.7935 52.4982 20.4518L52.1187 19.4071H49.2519V36.4517L52.6708 35.4529V30.6163C53.3858 30.9507 54.1747 31.1143 54.9701 31.0927C58.5001 31.0927 60.6318 28.211 60.6318 24.807C60.6249 21.1754 58.4709 19.1796 55.7205 19.1796ZM54.1342 28.735C53.6068 28.7342 53.0927 28.5755 52.664 28.2815V22.8553C53.0675 22.2659 54.1342 21.5618 55.0332 21.5618C56.4008 21.5618 57.2129 22.4018 57.2129 24.7628C57.2129 26.7112 56.4555 28.7333 54.1342 28.7333V28.735ZM86.5571 19.1796C84.9451 19.1796 83.3844 19.4186 81.7468 20.4338L82.7724 22.4117C83.7019 21.9049 84.7525 21.6375 85.822 21.6355C87.005 21.6355 88.0631 22.1366 88.0631 23.3416V23.5365L85.9947 23.6118C82.9758 23.7084 80.9365 24.9626 80.9365 27.3776C80.9365 29.6469 82.6459 31.0927 84.9126 31.0927C86.1615 31.1182 87.3717 30.6772 88.287 29.863L88.817 30.8667H91.4871V23.4235C91.494 20.4076 89.7315 19.1796 86.5571 19.1796ZM88.07 28.0309C87.5053 28.3949 86.8357 28.5803 86.1553 28.5614C84.9947 28.5614 84.3417 28.0064 84.3417 27.1402C84.3417 26.274 85.046 25.7894 86.5076 25.7404L88.07 25.6928V28.0309ZM110.221 23.1288H108.467V18.9061L105.049 19.7821V30.8667H109.413C112.587 30.8667 115.55 30.0481 115.55 26.8946C115.552 24.2176 113.159 23.1271 110.221 23.1271V23.1288ZM109.651 28.6072H108.467V25.4014H109.606C110.812 25.4014 112.141 25.5831 112.141 26.9438C112.141 28.3044 111.002 28.6056 109.651 28.6056V28.6072ZM33.9234 24.627V24.5352C35.0363 24.3093 35.961 23.6052 35.961 22.1071C35.961 20.3191 34.3935 19.6674 32.8533 19.4694C32.3815 19.4088 31.3473 19.4071 30.7712 19.4071H25.8941V30.8684H29.9968C30.4498 30.8684 31.125 30.8684 31.6516 30.852C33.8054 30.7538 36.4653 30.017 36.4653 27.3498C36.4585 25.7141 35.5337 24.8971 33.9234 24.6253V24.627ZM29.3729 21.5897H30.7781C32.1747 21.5897 32.6977 21.999 32.6977 22.7031C32.6977 23.5872 31.843 23.859 30.4225 23.859H29.3797L29.3729 21.5897ZM30.6994 28.694H29.3011V25.8778H30.5336C32.1678 25.8778 33.0447 26.2413 33.0447 27.263C33.0447 28.3486 31.884 28.6924 30.6994 28.6924V28.694ZM24.771 25.0363C24.771 21.4947 22.4958 19.1796 19.2256 19.1796C15.6477 19.1796 13.634 21.9482 13.634 25.1721C13.634 28.1897 15.3879 31.0943 19.653 31.0943C21.3236 31.1025 22.9609 30.6476 24.3676 29.7845L23.6087 27.7198C22.2582 28.3339 21.3864 28.5385 20.2205 28.5385C18.6324 28.5385 17.1161 27.5856 17.0443 26.0416H24.771V25.0363ZM16.9743 23.7886C16.9743 22.744 17.7572 21.5635 19.1299 21.5635C20.5778 21.5635 21.2154 22.6981 21.2872 23.7886H16.9743ZM48.2758 25.0363C48.2758 21.4947 46.0006 19.1796 42.7304 19.1796C39.1526 19.1796 37.1389 21.9482 37.1389 25.1721C37.1389 28.1897 38.8927 31.0943 43.1578 31.0943C44.8284 31.1027 46.4658 30.6478 47.8724 29.7845L47.1135 27.7198C45.7647 28.3339 44.8912 28.5385 43.7253 28.5385C42.139 28.5385 40.6227 27.5856 40.5509 26.0416H48.2758V25.0363ZM40.4791 23.7886C40.4791 22.744 41.262 21.5635 42.6348 21.5635C44.0809 21.5635 44.7202 22.6981 44.792 23.7886H40.4791Z" fill="#010101"/>
<path d="M121.626 11.3101C121.443 11.4357 121.241 11.5339 121.027 11.6015C120.344 11.8062 119.519 11.6179 118.771 11.3248C118.191 11.0936 117.629 10.8187 117.094 10.5029C117.43 9.70962 117.709 8.89569 117.932 8.06657C118.274 6.84987 118.474 5.6006 118.528 4.34166C118.553 3.72641 118.524 3.11024 118.441 2.49967C118.335 1.73177 118.09 0.950767 117.567 0.489042C117.39 0.341838 117.189 0.220476 116.974 0.128832C117.922 0.0265353 118.878 0.00625964 119.83 0.0682508C120.71 0.140293 121.605 0.348233 122.128 0.839429C122.651 1.33063 122.882 2.18694 122.983 3.02525C123.069 3.93344 123.064 4.84755 122.966 5.75467C122.846 6.89892 122.631 8.03223 122.323 9.14393C122.115 9.92 121.872 10.6666 121.626 11.3101ZM108.728 10.6749C108.707 10.4598 108.719 10.243 108.763 10.0314C108.916 9.37643 109.502 8.77389 110.142 8.29907C110.644 7.93186 111.176 7.60336 111.731 7.31667C112.28 7.99424 112.876 8.63536 113.514 9.23561C114.446 10.128 115.478 10.9187 116.592 11.5933C117.136 11.9216 117.708 12.2059 118.301 12.4432C119.048 12.7394 119.877 12.9344 120.556 12.7215C120.778 12.6494 120.988 12.5444 121.178 12.4104C120.798 13.2478 120.341 14.0507 119.81 14.8091C119.298 15.5033 118.67 16.1434 117.964 16.3302C117.258 16.5168 116.369 16.2826 115.571 15.9388C114.702 15.5581 113.873 15.0975 113.097 14.5635C112.126 13.8905 111.212 13.1454 110.362 12.3351C109.738 11.7751 109.189 11.2053 108.728 10.6749ZM115.736 0.289289C115.943 0.378006 116.133 0.496153 116.301 0.639676C116.822 1.09812 117.068 1.88241 117.178 2.65031C117.257 3.24745 117.287 3.84974 117.265 4.45136C116.38 4.5685 115.504 4.74356 114.644 4.9753C113.373 5.29954 112.144 5.75751 110.978 6.34083C110.409 6.62813 109.866 6.96058 109.355 7.33468C108.714 7.80624 108.13 8.40059 107.976 9.06533C107.93 9.28684 107.92 9.51387 107.946 9.73826C107.379 9.00352 106.883 8.22094 106.463 7.40017C106.089 6.63227 105.827 5.78578 106.01 5.10793C106.193 4.43008 106.852 3.8079 107.566 3.30687C108.344 2.77673 109.175 2.31997 110.046 1.94298C111.141 1.47157 112.273 1.08342 113.432 0.782123C114.231 0.579095 115.021 0.410451 115.736 0.289289Z" fill="#010101"/>
<path d="M141.298 20.0455H139.494L143.687 13.8257L139.58 8.01824H141.487L144.803 12.7776L148.051 8.01824H149.889L145.748 13.9632L150.044 20.0455H148.154L144.649 15.0456L141.298 20.0455ZM156.501 20.2173C155.539 20.2173 154.714 20.0169 154.027 19.616C153.351 19.2036 152.836 18.6366 152.481 17.915C152.126 17.1819 151.948 16.3342 151.948 15.3721C151.948 14.4099 152.126 13.568 152.481 12.8463C152.836 12.1132 153.351 11.5462 154.027 11.1453C154.714 10.733 155.539 10.5268 156.501 10.5268C157.475 10.5268 158.3 10.733 158.975 11.1453C159.663 11.5462 160.184 12.1132 160.539 12.8463C160.894 13.568 161.072 14.4099 161.072 15.3721C161.072 16.3342 160.894 17.1819 160.539 17.915C160.184 18.6366 159.663 19.2036 158.975 19.616C158.3 20.0169 157.475 20.2173 156.501 20.2173ZM156.501 18.9115C157.486 18.9115 158.219 18.5908 158.701 17.9493C159.193 17.3079 159.439 16.4488 159.439 15.3721C159.439 14.2839 159.193 13.4248 158.701 12.7948C158.219 12.1533 157.486 11.8326 156.501 11.8326C155.528 11.8326 154.795 12.1533 154.302 12.7948C153.821 13.4362 153.58 14.2953 153.58 15.3721C153.58 16.4488 153.821 17.3079 154.302 17.9493C154.795 18.5908 155.528 18.9115 156.501 18.9115ZM164.602 20.0455V10.6986H166.182V15.2174L170.735 10.6986H172.643L168.038 15.1143L172.763 20.0455H170.77L166.182 15.2518V20.0455H164.602ZM175.276 20.0455V10.6986H176.857V15.2174L181.41 10.6986H183.317L178.713 15.1143L183.438 20.0455H181.445L176.857 15.2518V20.0455H175.276ZM189.971 20.2173C188.975 20.2173 188.127 20.0112 187.429 19.5988C186.741 19.1864 186.214 18.6137 185.848 17.8806C185.493 17.1475 185.315 16.3056 185.315 15.3549C185.315 14.4156 185.493 13.5852 185.848 12.8635C186.203 12.1419 186.724 11.5749 187.411 11.1625C188.099 10.7387 188.929 10.5268 189.903 10.5268C190.808 10.5268 191.587 10.7272 192.239 11.1282C192.892 11.5176 193.396 12.056 193.751 12.7432C194.118 13.4305 194.301 14.2266 194.301 15.1315C194.301 15.2461 194.296 15.3663 194.284 15.4923C194.273 15.6069 194.255 15.7157 194.233 15.8188H186.879C186.947 16.7581 187.234 17.5198 187.738 18.104C188.242 18.6767 188.986 18.9631 189.971 18.9631C190.739 18.9631 191.352 18.797 191.81 18.4648C192.28 18.1326 192.606 17.663 192.789 17.0559L194.25 17.3136C193.998 18.2185 193.522 18.9287 192.824 19.4442C192.125 19.9596 191.174 20.2173 189.971 20.2173ZM189.92 11.7811C189.026 11.7811 188.328 12.0331 187.824 12.5371C187.331 13.0411 187.028 13.7169 186.913 14.5645H192.772C192.715 13.7398 192.434 13.0697 191.93 12.5542C191.438 12.0388 190.768 11.7811 189.92 11.7811ZM203.473 7.07324H204.744C204.744 7.85215 204.469 8.47642 203.919 8.94606C203.381 9.4157 202.682 9.65051 201.823 9.65051C200.964 9.65051 200.26 9.4157 199.71 8.94606C199.171 8.47642 198.902 7.85215 198.902 7.07324H200.174C200.174 7.55433 200.323 7.93806 200.62 8.22442C200.93 8.51079 201.331 8.65397 201.823 8.65397C202.327 8.65397 202.728 8.51079 203.026 8.22442C203.324 7.93806 203.473 7.55433 203.473 7.07324ZM197.734 20.0455V10.6986H199.28V17.8978L204.211 10.6986H205.758V20.0455H204.211V12.8463L199.28 20.0455H197.734ZM209.919 20.0455V10.6986H211.499V14.513H216.551V10.6986H218.132V20.0455H216.551V15.8016H211.499V20.0455H209.919ZM231.239 20.0455V10.6986H232.82V20.0455H231.239ZM222.305 20.0455V10.6986H223.886V13.8085H226.6C227.631 13.8085 228.439 14.0949 229.023 14.6676C229.607 15.2403 229.899 16.0021 229.899 16.9528C229.899 17.8921 229.607 18.6423 229.023 19.2036C228.439 19.7649 227.631 20.0455 226.6 20.0455H222.305ZM226.291 15.0112H223.886V18.8428H226.291C226.932 18.8428 227.436 18.6882 227.803 18.3789C228.181 18.0582 228.37 17.5828 228.37 16.9528C228.37 16.3113 228.181 15.8302 227.803 15.5095C227.436 15.1773 226.932 15.0112 226.291 15.0112ZM242.728 7.07324H244C244 7.85215 243.725 8.47642 243.175 8.94606C242.637 9.4157 241.938 9.65051 241.079 9.65051C240.22 9.65051 239.515 9.4157 238.965 8.94606C238.427 8.47642 238.158 7.85215 238.158 7.07324H239.429C239.429 7.55433 239.578 7.93806 239.876 8.22442C240.185 8.51079 240.586 8.65397 241.079 8.65397C241.583 8.65397 241.984 8.51079 242.281 8.22442C242.579 7.93806 242.728 7.55433 242.728 7.07324ZM236.99 20.0455V10.6986H238.536V17.8978L243.467 10.6986H245.013V20.0455H243.467V12.8463L238.536 20.0455H236.99ZM140.869 38.1819V28.835H142.449V33.3538L147.003 28.835H148.91L144.305 33.2507L149.03 38.1819H147.037L142.449 33.3882V38.1819H140.869ZM150.352 36.9792C150.593 36.9562 150.81 36.9104 151.005 36.8417C151.2 36.773 151.366 36.6584 151.503 36.4981C151.709 36.2575 151.858 35.9082 151.95 35.45C152.053 34.9918 152.122 34.379 152.156 33.6115C152.202 32.8441 152.236 31.8876 152.259 30.7422L152.276 28.835H159.012V38.1819H157.431V30.1408H153.771L153.754 30.914C153.731 32.1854 153.68 33.2507 153.599 34.1098C153.531 34.9574 153.416 35.6447 153.256 36.1716C153.095 36.6871 152.884 37.0994 152.62 37.4087C152.357 37.7294 152.053 37.9528 151.709 38.0788C151.366 38.1933 150.942 38.2621 150.438 38.285L150.352 36.9792ZM168.999 28.835H170.58L166.611 39.0066C166.244 39.9802 165.832 40.6847 165.374 41.12C164.916 41.5667 164.297 41.7901 163.518 41.7901C163.129 41.7901 162.785 41.7385 162.487 41.6354L162.418 40.3983C162.544 40.4327 162.671 40.4556 162.797 40.4671C162.923 40.4785 163.049 40.4842 163.175 40.4842C163.724 40.4842 164.154 40.3296 164.463 40.0203C164.772 39.7225 165.087 39.1899 165.408 38.4224L165.563 38.0444L161.748 28.835H163.415L166.284 36.2403L168.999 28.835ZM177.489 38.3537C176.023 38.3537 174.9 37.8898 174.121 36.962C173.342 36.0342 172.953 34.7627 172.953 33.1476V32.2885C172.953 30.6963 173.13 29.4134 173.486 28.4398C173.852 27.4547 174.425 26.7273 175.204 26.2577C175.983 25.7766 176.985 25.496 178.211 25.4158L179.843 25.2955C180.358 25.2612 180.839 25.1867 181.286 25.0722L181.406 26.3608C180.937 26.5212 180.416 26.6185 179.843 26.6529L178.211 26.756C177.409 26.8132 176.739 26.9793 176.2 27.2542C175.662 27.5292 175.244 27.9644 174.946 28.5601C174.66 29.1557 174.482 29.9632 174.413 30.9827C174.768 30.3183 175.261 29.8086 175.891 29.4535C176.521 29.087 177.243 28.9037 178.056 28.9037C178.926 28.9037 179.659 29.1042 180.255 29.5051C180.862 29.8945 181.32 30.4443 181.63 31.1545C181.939 31.8647 182.094 32.6894 182.094 33.6287C182.094 34.5794 181.905 35.4099 181.527 36.1201C181.149 36.8302 180.61 37.3801 179.911 37.7695C179.224 38.159 178.417 38.3537 177.489 38.3537ZM177.489 37.0479C178.44 37.0479 179.173 36.7443 179.688 36.1372C180.215 35.5302 180.479 34.6882 180.479 33.6115C180.479 32.5577 180.244 31.7158 179.774 31.0858C179.304 30.4558 178.589 30.1408 177.626 30.1408C176.744 30.1408 176.017 30.4443 175.444 31.0514C174.883 31.6585 174.602 32.5062 174.602 33.5943C174.602 34.6367 174.843 35.4729 175.324 36.1029C175.805 36.7329 176.527 37.0479 177.489 37.0479Z" fill="#010101"/>
</g>
<defs>
<clipPath id="clip0_1775_27517">
<rect width="249" height="42" fill="white" transform="translate(0.862793)"/>
</clipPath>
</defs>
</svg>
