<svg width="24" height="24" viewBox="0 0 24 24" fill="none" xmlns="http://www.w3.org/2000/svg">
<path fill-rule="evenodd" clip-rule="evenodd" d="M3.3749 11.1353C8.74359 8.79619 12.3236 7.25415 14.1148 6.5091C19.2292 4.38186 20.2919 4.01233 20.9846 4.00013C21.1369 3.99745 21.4776 4.0352 21.6982 4.21424C21.8845 4.36542 21.9358 4.56964 21.9603 4.71298C21.9848 4.85631 22.0154 5.18283 21.9911 5.43796C21.714 8.35 20.5147 15.4167 19.9046 18.6783C19.6465 20.0584 19.1382 20.5211 18.6461 20.5664C17.5766 20.6648 16.7645 19.8596 15.7287 19.1806C14.1078 18.1181 13.1921 17.4567 11.6188 16.4199C9.80053 15.2217 10.9792 14.5631 12.0154 13.4869C12.2866 13.2052 16.9987 8.91921 17.0899 8.5304C17.1013 8.48177 17.1119 8.30051 17.0042 8.2048C16.8965 8.10909 16.7376 8.14182 16.6229 8.16785C16.4604 8.20475 13.871 9.91622 8.85486 13.3023C8.11988 13.8069 7.45416 14.0529 6.8577 14.04C6.20015 14.0258 4.93528 13.6682 3.99498 13.3625C2.84166 12.9876 1.92503 12.7894 2.00485 12.1527C2.04642 11.8211 2.5031 11.4819 3.3749 11.1353Z" fill="#010101"/>
</svg>
