<svg width="213" height="42" viewBox="0 0 213 42" fill="none" xmlns="http://www.w3.org/2000/svg">
<path d="M127.176 13.0396C130.084 13.0396 132.425 13.9191 134.199 15.6783C136.001 17.4374 136.903 20.0467 136.903 23.5063V37.0514H130.098V24.5617C130.098 22.6853 129.691 21.2927 128.877 20.3838C128.063 19.4456 126.885 18.9766 125.344 18.9766C123.629 18.9766 122.262 19.5189 121.244 20.6037C120.226 21.6592 119.718 23.2424 119.718 25.3534V37.0514H112.913V4.41992H119.718V15.8541C120.619 14.9453 121.709 14.2563 122.989 13.7872C124.268 13.2888 125.664 13.0396 127.176 13.0396Z" fill="#010101"/>
<path d="M25.6686 35.908C24.9999 36.4064 24.1711 36.7876 23.1825 37.0514C22.2229 37.286 21.2197 37.4032 20.1729 37.4032C17.3523 37.4032 15.1859 36.6849 13.6738 35.2483C12.1618 33.8117 11.4058 31.7008 11.4058 28.9155V8.15803H18.2101V13.9191H24.0112V19.1965H18.2101V28.8275C18.2101 29.8244 18.4573 30.6013 18.9516 31.1584C19.4459 31.6861 20.1583 31.95 21.0888 31.95C22.1356 31.95 23.0661 31.6568 23.8803 31.0705L25.6686 35.908Z" fill="#010101"/>
<path fill-rule="evenodd" clip-rule="evenodd" d="M33.2802 35.864C35.2576 36.8901 37.4821 37.4032 39.9537 37.4032C42.4254 37.4032 44.6354 36.8901 46.5836 35.864C48.5318 34.8086 50.0584 33.3572 51.1634 31.5102C52.2684 29.6632 52.8209 27.5668 52.8209 25.2214C52.8209 22.8759 52.2684 20.7796 51.1634 18.9326C50.0584 17.0855 48.5318 15.6489 46.5836 14.6228C44.6354 13.5673 42.4254 13.0396 39.9537 13.0396C37.4821 13.0396 35.2576 13.5673 33.2802 14.6228C31.332 15.6489 29.8054 17.0855 28.7004 18.9326C27.5954 20.7796 27.043 22.8759 27.043 25.2214C27.043 27.5668 27.5954 29.6632 28.7004 31.5102C29.8054 33.3572 31.332 34.8086 33.2802 35.864ZM44.2282 30.015C43.1233 31.1877 41.6984 31.7741 39.9537 31.7741C38.209 31.7741 36.7696 31.1877 35.6356 30.015C34.5015 28.8129 33.9345 27.215 33.9345 25.2214C33.9345 23.2278 34.5015 21.6445 35.6356 20.4718C36.7696 19.2698 38.209 18.6687 39.9537 18.6687C41.6984 18.6687 43.1233 19.2698 44.2282 20.4718C45.3623 21.6445 45.9293 23.2278 45.9293 25.2214C45.9293 27.215 45.3623 28.8129 44.2282 30.015Z" fill="#010101"/>
<path d="M74.5543 37.0514H81.0097V13.3914H74.2054V25.0894C74.2054 27.2004 73.7111 28.7983 72.7224 29.883C71.7337 30.9385 70.4252 31.4662 68.7968 31.4662C65.6273 31.4662 64.0425 29.5605 64.0425 25.7491V13.3914H57.2382V26.7606C57.2382 30.2788 58.1396 32.9321 59.9424 34.7206C61.7454 36.509 64.1879 37.4032 67.2702 37.4032C68.7242 37.4032 70.0763 37.1394 71.3266 36.6116C72.577 36.0546 73.6529 35.2629 74.5543 34.2368V37.0514Z" fill="#010101"/>
<path d="M91.8933 35.864C93.8997 36.8901 96.1533 37.4032 98.654 37.4032C101.126 37.4032 103.277 36.8755 105.109 35.82C106.97 34.7645 108.323 33.2986 109.166 31.4223L103.888 28.5197C102.696 30.6893 100.937 31.7741 98.6104 31.7741C96.8366 31.7741 95.3682 31.1877 94.205 30.015C93.0419 28.8422 92.4603 27.2444 92.4603 25.2214C92.4603 23.1984 93.0419 21.6006 94.205 20.4278C95.3682 19.2551 96.8366 18.6687 98.6104 18.6687C100.908 18.6687 102.667 19.7535 103.888 21.923L109.166 19.0645C108.323 17.1295 106.97 15.6489 105.109 14.6228C103.277 13.5673 101.126 13.0396 98.654 13.0396C96.1533 13.0396 93.8997 13.5673 91.8933 14.6228C89.916 15.6489 88.3603 17.0855 87.2262 18.9326C86.1212 20.7796 85.5688 22.8759 85.5688 25.2214C85.5688 27.5668 86.1212 29.6632 87.2262 31.5102C88.3603 33.3572 89.916 34.8086 91.8933 35.864Z" fill="#010101"/>
<path d="M148.789 8.3699C146.708 9.68837 145.035 11.4066 143.77 13.5247C142.345 15.9288 141.632 18.6407 141.632 21.6606C141.632 24.6804 142.345 27.407 143.77 29.8404C145.223 32.2446 147.215 34.1356 149.745 35.5135C152.304 36.8915 155.168 37.5805 158.338 37.5805C161.507 37.5805 164.357 36.8915 166.887 35.5135C169.417 34.1356 171.409 32.2446 172.862 29.8404C174.316 27.407 175.043 24.6804 175.043 21.6606C175.043 18.6407 174.316 15.9288 172.862 13.5247C171.606 11.4224 169.949 9.71393 167.89 8.39939V21.4942C167.89 21.5495 167.89 21.6049 167.89 21.6606C167.89 23.5663 167.468 25.2667 166.625 26.7619C165.811 28.2572 164.677 29.43 163.223 30.2802C161.769 31.1011 160.141 31.5116 158.338 31.5116C156.535 31.5116 154.907 31.1011 153.453 30.2802C151.999 29.43 150.85 28.2572 150.007 26.7619C149.193 25.2667 148.786 23.5663 148.786 21.6606C148.786 21.5631 148.787 21.4662 148.789 21.3698V8.3699Z" fill="#010101"/>
<path d="M201.159 15.6796C199.385 13.9205 197.045 13.041 194.137 13.041C192.538 13.041 191.069 13.3195 189.731 13.8765C188.394 14.4042 187.274 15.1665 186.373 16.1633V13.3928H179.874V37.0528H186.678V25.3547C186.678 23.2437 187.187 21.6606 188.205 20.6051C189.223 19.5203 190.589 18.9779 192.305 18.9779C193.846 18.9779 195.024 19.447 195.838 20.3852C196.652 21.2941 197.059 22.6867 197.059 24.5631V37.0528H203.864V23.5076C203.864 20.048 202.962 17.4387 201.159 15.6796Z" fill="#010101"/>
<path d="M158.338 5.73926C156.411 5.73926 154.759 6.05778 154.759 6.05778V17.5067C154.759 19.4995 156.362 21.115 158.338 21.115C160.314 21.115 161.917 19.4995 161.917 17.5067V6.05778C161.917 6.05778 160.265 5.73926 158.338 5.73926Z" fill="#010101"/>
</svg>
