<svg width="440" height="429" viewBox="0 0 440 429" fill="none" xmlns="http://www.w3.org/2000/svg">
<path fill-rule="evenodd" clip-rule="evenodd" d="M492.003 215.784C475.974 211.592 459.581 221.189 455.389 237.218L430.751 331.438L351.748 196.486C336.129 169.806 296.049 175.328 288.227 205.239L266.461 288.477L187.457 153.525C171.838 126.844 131.758 132.367 123.937 162.277L102.17 245.515L23.1671 110.563C7.54798 83.8827 -32.5319 89.4051 -40.3534 119.316L-62.12 202.554L-141.123 67.6014C-156.742 40.9211 -196.822 46.4435 -204.644 76.3539L-226.41 159.592L-311.148 14.8437C-319.519 0.545161 -337.896 -4.26039 -352.195 4.11023C-366.493 12.4809 -371.299 30.8579 -362.928 45.1564L-247.334 242.612C-231.715 269.293 -191.635 263.77 -183.814 233.86L-162.047 150.622L-83.0438 285.574C-67.4246 312.254 -27.3448 306.732 -19.5233 276.821L2.24326 193.583L81.2466 328.536C96.8658 355.216 136.946 349.693 144.767 319.783L166.534 236.545L245.537 371.497C261.156 398.178 301.236 392.655 309.057 362.745L330.824 279.506L409.827 414.459C425.447 441.139 465.526 435.616 473.348 405.706L513.438 252.398C517.629 236.368 508.033 219.976 492.003 215.784Z" fill="#EDEDED"/>
</svg>
