<svg width="74" height="12" viewBox="0 0 74 12" fill="none" xmlns="http://www.w3.org/2000/svg">
<path fill-rule="evenodd" clip-rule="evenodd" d="M64.082 2.4055V0.224609C67.2456 0.224609 70.7054 0.224609 73.869 0.224609V2.4055H70.0483V11.7968H67.9027V2.4055H64.082Z" fill="white"/>
<path fill-rule="evenodd" clip-rule="evenodd" d="M28.8438 0.224609H35.1495C37.0219 0.224609 38.5399 1.76745 38.5399 3.6707C38.5399 4.42989 38.2981 5.13158 37.8888 5.70108C38.6359 6.33314 39.1116 7.28548 39.1116 8.35075C39.1116 10.2539 37.5937 11.7968 35.7212 11.7968H28.8438C28.8438 7.93938 28.8438 4.08202 28.8438 0.224609ZM35.1495 2.43678H31.0201V4.90466H35.1495C35.82 4.90466 36.3635 4.35218 36.3635 3.6707C36.3635 2.98922 35.82 2.43678 35.1495 2.43678ZM35.7212 7.11678H31.0201V9.58472H35.7212C36.3917 9.58472 36.9352 9.03223 36.9352 8.35075C36.9352 7.66927 36.3917 7.11678 35.7212 7.11678Z" fill="white"/>
<path fill-rule="evenodd" clip-rule="evenodd" d="M27.254 11.7968H18.1465C18.1465 7.93943 18.1465 4.08197 18.1465 0.224609H27.254V2.42402H20.3105L20.3209 4.90485H26.4783L26.4816 7.11678H20.3242L20.3105 9.59739H27.254V11.7968Z" fill="white"/>
<path fill-rule="evenodd" clip-rule="evenodd" d="M56.6404 2.43673C55.9698 2.43673 55.4263 2.98917 55.4263 3.6707C55.4263 4.35223 55.9698 4.90471 56.6404 4.90471L60.1274 4.90457C61.9998 4.90457 63.5178 6.44742 63.5178 8.35061C63.5178 10.2539 61.9998 11.7967 60.1274 11.7967H53.25V9.58458H60.1274C60.7978 9.58458 61.3414 9.03224 61.3414 8.35071C61.3414 7.66927 60.7978 7.11674 60.1274 7.11674L56.6404 7.11684C54.7679 7.11684 53.25 5.57395 53.25 3.6707C53.25 1.76745 54.7679 0.224609 56.6404 0.224609H62.7221V2.43673H56.6404Z" fill="white"/>
<path fill-rule="evenodd" clip-rule="evenodd" d="M46.0525 0.0986328C42.8403 0.0986328 40.2363 2.74546 40.2363 6.01045C40.2363 9.2755 42.8403 11.9223 46.0525 11.9223V11.9223C48.0773 11.9221 50.0579 11.0147 51.2426 9.56806L49.6671 8.01624C48.6348 9.08707 47.5369 9.59985 46.0525 9.60004C44.4816 9.60004 43.1503 8.55727 42.6918 7.11561C45.7168 7.11561 48.7418 7.11561 51.7669 7.11561C51.8335 6.75759 51.8687 6.3882 51.8687 6.01045C51.8687 2.74546 49.2647 0.0986328 46.0525 0.0986328ZM42.6924 4.90348C43.1515 3.46276 44.4822 2.42087 46.0525 2.42087C47.6229 2.42087 48.9535 3.46276 49.4126 4.90348H42.6924Z" fill="white"/>
<path fill-rule="evenodd" clip-rule="evenodd" d="M4.24199 11.9223C2.78832 11.9223 1.58369 10.8385 1.3674 9.4226L0.0957031 0.225343H2.48089L3.70097 9.04924C3.74076 9.31665 3.96787 9.52153 4.24199 9.52153C4.51611 9.52153 4.74317 9.31665 4.783 9.04924L5.69584 2.45753C5.88988 1.12294 7.02136 0.0986328 8.38827 0.0986328C9.75514 0.0986328 10.8866 1.12294 11.0807 2.45753L11.9935 9.04924C12.0333 9.31665 12.2604 9.52153 12.5345 9.52153C12.8087 9.52153 13.0357 9.31665 13.0755 9.04924L14.2956 0.225343H16.6808L15.4091 9.4226C15.1928 10.8385 13.9882 11.9223 12.5345 11.9223C11.0808 11.9223 9.87621 10.8385 9.65997 9.4226L8.744 2.801C8.7135 2.62945 8.56579 2.49942 8.38827 2.49942C8.21071 2.49942 8.063 2.62945 8.0325 2.801L7.11653 9.4226C6.90028 10.8385 5.69566 11.9223 4.24199 11.9223Z" fill="white"/>
</svg>
