<svg width="120" height="70" viewBox="0 0 120 70" fill="none" xmlns="http://www.w3.org/2000/svg">
<g clip-path="url(#clip0_1458_464)">
<path d="M118.029 30.1515L115.834 27.789C114.397 26.243 113.727 24.0935 114.016 21.964L114.458 18.7095C114.964 14.9855 112.542 11.5145 108.984 10.865L105.874 10.297C103.84 9.92553 102.083 8.59703 101.115 6.69703L99.6355 3.79353C97.9425 0.471026 94.0235 -0.854474 90.778 0.797026L87.9415 2.24053C86.0855 3.18503 83.915 3.18503 82.059 2.24053L79.2225 0.797026C75.977 -0.854474 72.058 0.471026 70.365 3.79353L68.885 6.69703C67.917 8.59703 66.1605 9.92553 64.126 10.297L61.0165 10.865C57.4585 11.515 55.0365 14.9855 55.542 18.7095L55.984 21.964C56.2735 24.0935 55.6025 26.243 54.166 27.789L51.971 30.1515C49.459 32.8545 49.459 37.145 51.971 39.848L54.166 42.2105C55.6025 43.7565 56.273 45.9055 55.984 48.0355L55.542 51.29C55.036 55.014 57.458 58.485 61.0165 59.1345L64.126 59.7025C66.1605 60.074 67.917 61.4025 68.885 63.3025L70.365 66.206C72.058 69.5285 75.977 70.854 79.2225 69.2025L82.059 67.759C83.915 66.8145 86.0855 66.8145 87.9415 67.759L90.778 69.2025C94.0235 70.8545 97.9425 69.5285 99.6355 66.206L101.115 63.3025C102.083 61.4025 103.84 60.074 105.874 59.7025L108.984 59.1345C112.542 58.4845 114.964 55.014 114.458 51.29L114.016 48.0355C113.726 45.906 114.397 43.7565 115.834 42.2105L118.029 39.848C120.54 37.145 120.54 32.855 118.029 30.1515ZM61.0795 55.5835C59.765 55.5835 58.6995 54.474 58.6995 53.1055C58.6995 51.737 59.765 50.6275 61.0795 50.6275C62.394 50.6275 63.4595 51.737 63.4595 53.1055C63.4595 54.474 62.394 55.5835 61.0795 55.5835Z" fill="#9F9F9F"/>
<path d="M74.1515 36.2938C74.1515 36.0693 74.0715 35.8943 73.911 35.7688C73.751 35.6433 73.469 35.5133 73.0665 35.3793C72.663 35.2448 72.334 35.1153 72.078 34.9898C71.245 34.5843 70.829 34.0273 70.829 33.3183C70.829 32.9653 70.9325 32.6538 71.14 32.3843C71.3475 32.1148 71.641 31.9048 72.0205 31.7543C72.4 31.6043 72.8265 31.5288 73.3005 31.5288C73.7625 31.5288 74.1765 31.6108 74.5425 31.7738C74.9085 31.9368 75.1935 32.1698 75.396 32.4718C75.599 32.7738 75.7005 33.1183 75.7005 33.5063H74.156C74.156 33.2468 74.076 33.0453 73.916 32.9023C73.7555 32.7593 73.5385 32.6878 73.265 32.6878C72.988 32.6878 72.77 32.7483 72.6095 32.8693C72.449 32.9903 72.369 33.1443 72.369 33.3308C72.369 33.4943 72.4575 33.6423 72.6335 33.7748C72.8105 33.9078 73.1205 34.0448 73.5645 34.1863C74.009 34.3278 74.3735 34.4803 74.6585 34.6438C75.353 35.0403 75.7 35.5873 75.7 36.2843C75.7 36.8413 75.488 37.2788 75.0645 37.5968C74.6405 37.9153 74.0595 38.0738 73.3215 38.0738C72.801 38.0738 72.3295 37.9813 71.9075 37.7958C71.485 37.6108 71.1675 37.3568 70.9545 37.0348C70.741 36.7123 70.634 36.3413 70.634 35.9208H72.187C72.187 36.2623 72.2765 36.5143 72.454 36.6758C72.632 36.8378 72.9215 36.9188 73.321 36.9188C73.577 36.9188 73.779 36.8643 73.928 36.7548C74.077 36.6458 74.1515 36.4918 74.1515 36.2938Z" fill="white"/>
<path d="M78.145 37.9872H76.6005V31.6162H78.145V37.9872Z" fill="white"/>
<path d="M80.7705 36.8057H83.467V37.9867H79.222V31.6162H80.771L80.7705 36.8057Z" fill="white"/>
<path d="M85.7035 36.2542L86.9835 31.6167H88.713L86.551 37.9872H84.8565L82.712 31.6167H84.4285L85.7035 36.2542Z" fill="white"/>
<path d="M93.1655 35.2827H90.7295V36.8057H93.6065V37.9867H89.1805V31.6162H93.615V32.8022H90.7295V34.1457H93.1655V35.2827Z" fill="white"/>
<path d="M96.625 35.7337H95.7865V37.9872H94.2375V31.6162H96.766C97.528 31.6162 98.124 31.7837 98.553 32.1187C98.9825 32.4537 99.1975 32.9272 99.1975 33.5392C99.1975 33.9822 99.107 34.3492 98.926 34.6407C98.7455 34.9322 98.462 35.1682 98.0765 35.3487L99.4185 37.9207V37.9867H97.7595L96.625 35.7337ZM95.7865 34.5522H96.766C97.0605 34.5522 97.2815 34.4757 97.43 34.3222C97.579 34.1687 97.653 33.9547 97.653 33.6797C97.653 33.4047 97.578 33.1892 97.428 33.0327C97.278 32.8762 97.0575 32.7982 96.766 32.7982H95.7865V34.5522Z" fill="white"/>
<path d="M67.3694 19.9917L66.7319 20.8477L69.0524 22.5767L68.5399 23.2642L66.2199 21.5352L65.5934 22.3752L65.0629 21.9797L66.8384 19.5962L67.3694 19.9917Z" fill="white"/>
<path d="M70.609 19.863L69.7815 20.697L70.108 21.3105L69.463 21.96L67.858 18.53L68.4265 17.9575L71.875 19.5305L71.2265 20.184L70.609 19.863ZM69.456 20.0845L69.9945 19.542L68.849 18.9455L69.456 20.0845Z" fill="white"/>
<path d="M74.0869 17.4029C74.0659 17.5989 73.9789 17.8074 73.8259 18.0289C73.6724 18.2499 73.4734 18.4499 73.2284 18.6269C72.8509 18.9004 72.4659 19.0029 72.0729 18.9349C71.6804 18.8679 71.3274 18.6334 71.0139 18.2339L70.8314 17.9859C70.6264 17.7024 70.4974 17.4179 70.4444 17.1344C70.3919 16.8499 70.4169 16.5834 70.5214 16.3334C70.6254 16.0844 70.8004 15.8714 71.0454 15.6939C71.4044 15.4344 71.7424 15.3144 72.0594 15.3354C72.3769 15.3559 72.6699 15.5169 72.9389 15.8194L72.2699 16.3034C72.1299 16.1594 71.9949 16.0819 71.8664 16.0704C71.7379 16.0599 71.6004 16.1059 71.4559 16.2109C71.2809 16.3369 71.1999 16.5084 71.2124 16.7239C71.2239 16.9409 71.3284 17.1869 71.5264 17.4624L71.6524 17.6369C71.8599 17.9239 72.0654 18.1049 72.2684 18.1779C72.4709 18.2514 72.6779 18.2114 72.8884 18.0589C73.0694 17.9284 73.1749 17.7909 73.2054 17.6464L72.8819 17.1989L72.3989 17.5479L72.0544 17.0714L73.2314 16.2199L74.0869 17.4029Z" fill="white"/>
<path d="M75.1164 16.6144L76.4394 15.9234L76.7444 16.5079L74.6619 17.5959L73.0164 14.4429L73.7764 14.0464L75.1164 16.6144Z" fill="white"/>
<path d="M77.8655 16.0857L77.072 16.4032L75.751 13.1012L76.545 12.7837L77.8655 16.0857Z" fill="white"/>
<path d="M81.1724 15.1029L80.3494 15.3244L78.5574 13.5164L79.1324 15.6519L78.3049 15.8749L77.3804 12.4419L78.2079 12.2189L79.9974 14.0284L79.4224 11.8919L80.2474 11.6694L81.1724 15.1029Z" fill="white"/>
<path d="M83.6115 13.2968L82.272 13.4508L82.3685 14.2948L83.9505 14.1133L84.0255 14.7683L81.592 15.0483L81.1865 11.5163L83.6245 11.2358L83.7 11.8928L82.113 12.0753L82.1985 12.8198L83.538 12.6658L83.6115 13.2968Z" fill="white"/>
<path d="M87.5159 14.2674L86.3464 14.1584L86.0804 14.8004L85.1689 14.7154L86.7984 11.2969L87.6009 11.3709L88.5774 15.0339L87.6609 14.9479L87.5159 14.2674ZM86.6124 13.5184L87.3734 13.5899L87.1069 12.3269L86.6124 13.5184Z" fill="white"/>
<path d="M91.5954 14.4832L92.5889 12.4452L93.4074 12.6747L91.7229 15.8952L90.8664 15.6557L90.9544 13.5757L89.9589 15.4017L89.1049 15.1627L89.3344 11.5342L90.1549 11.7637L89.9469 14.0212L91.0184 12.0052L91.7189 12.2022L91.5954 14.4832Z" fill="white"/>
<path d="M94.6109 16.4666L93.5534 15.9551L93.0799 16.4631L92.2559 16.0641L94.9794 13.4321L95.7044 13.7831L95.3369 17.5566L94.5089 17.1551L94.6109 16.4666ZM94.0269 15.4481L94.7149 15.7816L94.9069 14.5046L94.0269 15.4481Z" fill="white"/>
<path d="M97.2354 17.3676L96.8549 17.1026L96.1359 18.1346L95.4329 17.6451L97.4644 14.7266L98.6129 15.5271C98.9589 15.7676 99.1759 16.0331 99.2639 16.3226C99.3524 16.6116 99.2989 16.8961 99.1039 17.1766C98.9629 17.3796 98.8044 17.5196 98.6294 17.5956C98.4544 17.6716 98.2504 17.6901 98.0179 17.6511L97.8064 19.2531L97.7854 19.2836L97.0314 18.7586L97.2354 17.3676ZM97.2319 16.5616L97.6764 16.8716C97.8104 16.9646 97.9354 16.9991 98.0519 16.9756C98.1684 16.9526 98.2704 16.8781 98.3579 16.7521C98.4454 16.6261 98.4799 16.5036 98.4619 16.3846C98.4439 16.2656 98.3684 16.1606 98.2364 16.0681L97.7914 15.7576L97.2319 16.5616Z" fill="white"/>
<path d="M97.9855 19.4612L100.441 16.8887L101.269 17.6792C101.496 17.8967 101.651 18.1432 101.734 18.4192C101.817 18.6952 101.82 18.9752 101.743 19.2612C101.666 19.5462 101.516 19.8062 101.295 20.0407L101.182 20.1587C100.957 20.3942 100.706 20.5577 100.428 20.6492C100.15 20.7407 99.871 20.7532 99.5895 20.6862C99.3085 20.6187 99.0555 20.4797 98.8315 20.2682L97.9855 19.4612ZM100.604 17.9592L99.061 19.5757L99.2765 19.7817C99.454 19.9512 99.651 20.0182 99.8675 19.9827C100.084 19.9472 100.311 19.8047 100.549 19.5547L100.655 19.4432C100.893 19.1952 101.023 18.9622 101.048 18.7452C101.074 18.5282 100.995 18.3322 100.812 18.1582L100.604 17.9592Z" fill="white"/>
<path d="M102.065 22.4904C102.164 22.4139 102.215 22.3184 102.216 22.2059C102.217 22.0934 102.179 21.9249 102.102 21.7029C102.024 21.4809 101.97 21.2919 101.939 21.1369C101.836 20.6339 101.942 20.2614 102.255 20.0199C102.411 19.8994 102.583 19.8384 102.773 19.8374C102.962 19.8359 103.154 19.8924 103.348 20.0079C103.543 20.1224 103.721 20.2839 103.881 20.4914C104.037 20.6934 104.141 20.9029 104.193 21.1194C104.245 21.3354 104.239 21.5394 104.174 21.7314C104.109 21.9234 103.991 22.0859 103.82 22.2179L103.297 21.5409C103.412 21.4529 103.474 21.3489 103.482 21.2304C103.491 21.1114 103.45 20.9914 103.357 20.8719C103.263 20.7514 103.162 20.6754 103.055 20.6474C102.947 20.6184 102.852 20.6354 102.769 20.6994C102.697 20.7549 102.662 20.8449 102.663 20.9669C102.664 21.0899 102.709 21.2724 102.797 21.5149C102.885 21.7579 102.94 21.9699 102.965 22.1504C103.025 22.5894 102.901 22.9284 102.593 23.1659C102.347 23.3569 102.082 23.4129 101.798 23.3359C101.514 23.2589 101.247 23.0589 100.997 22.7359C100.821 22.5074 100.702 22.2699 100.641 22.0214C100.58 21.7734 100.585 21.5474 100.655 21.3439C100.725 21.1409 100.853 20.9674 101.039 20.8244L101.564 21.5039C101.413 21.6209 101.333 21.7454 101.321 21.8789C101.31 22.0119 101.372 22.1659 101.508 22.3414C101.594 22.4534 101.687 22.5234 101.786 22.5514C101.884 22.5779 101.978 22.5584 102.065 22.4904Z" fill="white"/>
<path d="M81.481 58.5253L79.05 58.0283L79.1575 57.5018L80.5185 56.5538C80.8585 56.2958 81.048 56.0743 81.086 55.8898C81.1165 55.7393 81.107 55.6188 81.0575 55.5273C81.0075 55.4353 80.921 55.3768 80.797 55.3518C80.674 55.3268 80.5635 55.3583 80.4655 55.4468C80.368 55.5353 80.303 55.6583 80.2705 55.8143L79.462 55.6488C79.506 55.4358 79.5995 55.2483 79.743 55.0898C79.887 54.9308 80.0645 54.8193 80.275 54.7563C80.4855 54.6928 80.708 54.6853 80.9425 54.7328C81.319 54.8098 81.5915 54.9563 81.7595 55.1718C81.927 55.3873 81.978 55.6578 81.9115 55.9828C81.883 56.1203 81.8305 56.2483 81.753 56.3678C81.6755 56.4878 81.568 56.6078 81.431 56.7288C81.2945 56.8498 81.0815 57.0058 80.794 57.1953L80.2375 57.6228L81.6085 57.9033L81.481 58.5253Z" fill="white"/>
<path d="M84.873 57.3354C84.844 57.8154 84.7135 58.1784 84.483 58.4254C84.2515 58.6719 83.94 58.7834 83.5485 58.7599C83.1535 58.7349 82.856 58.5854 82.656 58.3114C82.456 58.0364 82.3705 57.6609 82.399 57.1844L82.439 56.5364C82.468 56.0569 82.598 55.6934 82.829 55.4464C83.0605 55.2004 83.3725 55.0889 83.766 55.1124C84.159 55.1364 84.4555 55.2864 84.656 55.5609C84.8555 55.8354 84.9415 56.2119 84.9125 56.6894L84.873 57.3354ZM84.0975 56.5324C84.113 56.2774 84.091 56.0844 84.0325 55.9544C83.9735 55.8244 83.872 55.7554 83.727 55.7469C83.586 55.7374 83.4795 55.7904 83.408 55.9029C83.3365 56.0154 83.2915 56.1904 83.272 56.4284L83.217 57.3349C83.201 57.5994 83.2225 57.7954 83.282 57.9224C83.3405 58.0494 83.4425 58.1169 83.587 58.1254C83.7265 58.1339 83.8335 58.0804 83.9075 57.9654C83.9815 57.8504 84.027 57.6649 84.0445 57.4104L84.0975 56.5324Z" fill="white"/>
<path d="M88.1095 58.5796L85.6365 58.7776L85.5935 58.2426L86.6375 56.9536C86.8925 56.6116 87.0125 56.3461 86.9975 56.1581C86.9855 56.0051 86.943 55.8916 86.87 55.8181C86.797 55.7441 86.697 55.7116 86.5705 55.7216C86.4455 55.7316 86.3485 55.7936 86.279 55.9056C86.2095 56.0176 86.1815 56.1536 86.194 56.3126L85.371 56.3786C85.354 56.1611 85.3925 55.9556 85.486 55.7631C85.5795 55.5706 85.7195 55.4146 85.9045 55.2946C86.089 55.1756 86.301 55.1061 86.54 55.0871C86.923 55.0561 87.2245 55.1211 87.446 55.2821C87.667 55.4421 87.7905 55.6881 87.8175 56.0196C87.828 56.1591 87.8135 56.2966 87.772 56.4331C87.7305 56.5691 87.661 56.7146 87.563 56.8686C87.465 57.0231 87.304 57.2311 87.08 57.4936L86.665 58.0591L88.0595 57.9471L88.1095 58.5796Z" fill="white"/>
<path d="M89.208 56.2183L89.5875 56.1338C89.8875 56.0668 90.005 55.8868 89.9395 55.5928C89.9135 55.4783 89.8575 55.3928 89.77 55.3363C89.682 55.2798 89.573 55.2658 89.443 55.2948C89.3365 55.3188 89.2505 55.3703 89.186 55.4503C89.121 55.5293 89.099 55.6148 89.119 55.7078L88.316 55.8863C88.2755 55.7038 88.29 55.5293 88.36 55.3638C88.43 55.1983 88.5455 55.0548 88.7085 54.9348C88.8705 54.8143 89.06 54.7303 89.2765 54.6823C89.6625 54.5958 89.986 54.6163 90.2455 54.7438C90.506 54.8708 90.6705 55.0883 90.739 55.3968C90.772 55.5468 90.758 55.6983 90.696 55.8503C90.634 56.0033 90.525 56.1408 90.3685 56.2623C90.5675 56.2883 90.735 56.3573 90.8705 56.4693C91.0055 56.5823 91.095 56.7388 91.14 56.9388C91.209 57.2488 91.145 57.5228 90.9475 57.7618C90.751 58.0008 90.4585 58.1633 90.0705 58.2498C89.8435 58.3008 89.6225 58.3038 89.409 58.2613C89.195 58.2178 89.021 58.1303 88.8865 57.9998C88.752 57.8683 88.6635 57.7053 88.62 57.5098L89.428 57.3303C89.4515 57.4368 89.515 57.5198 89.6185 57.5778C89.7215 57.6363 89.836 57.6518 89.9615 57.6243C90.103 57.5928 90.207 57.5288 90.274 57.4308C90.3405 57.3333 90.36 57.2233 90.333 57.1013C90.2945 56.9263 90.2225 56.8123 90.119 56.7588C90.015 56.7043 89.8865 56.6953 89.7325 56.7288L89.3415 56.8163L89.208 56.2183Z" fill="white"/>
<mask id="mask0_1458_464" style="mask-type:luminance" maskUnits="userSpaceOnUse" x="54" y="25" width="24" height="33">
<path d="M72.746 57.7577L77.4975 55.7567L75.997 51.7557L74.2465 33.2772L66.281 27.6252L64.125 28.4377L62.4375 25.5317L54.24 39.5017L72.746 57.7577Z" fill="white"/>
</mask>
<g mask="url(#mask0_1458_464)">
<path fill-rule="evenodd" clip-rule="evenodd" d="M94.129 15.0253C93.7485 15.7103 92.219 15.8768 91.181 15.6228C91.7025 15.1523 92.8215 14.7043 93.783 14.9403L94.129 15.0253L93.825 14.8408C92.98 14.3293 92.5135 13.2253 92.4845 12.5273C93.3965 13.0798 94.3525 14.2758 94.129 15.0253ZM85.0225 56.4463C85.3485 56.4463 85.612 56.7078 85.612 57.0313C85.612 57.3538 85.348 57.6158 85.022 57.6163C84.696 57.6168 84.4325 57.3548 84.4325 57.0318C84.433 56.7088 84.6965 56.4463 85.0225 56.4463ZM92.8185 14.4183L92.55 14.1863C91.8035 13.5403 90.602 13.4318 89.922 13.6138C90.7275 14.3108 92.1645 14.8558 92.8185 14.4183ZM77.3045 14.4248C77.958 14.8618 79.3955 14.3158 80.2015 13.6183C79.5215 13.4368 78.32 13.5458 77.573 14.1928L77.3045 14.4248ZM83.5055 57.0393C83.3245 57.7998 81.896 58.3688 80.827 58.4003C81.202 57.8083 82.159 57.0788 83.1495 57.0493L83.5055 57.0393C83.518 56.2573 82.2735 55.3603 81.245 55.0713C81.4625 55.7358 82.2095 56.6748 83.163 56.9433L83.5055 57.0393ZM81.282 56.7458C81.374 55.9693 80.227 54.9523 79.233 54.5623C79.3815 55.2448 80.0295 56.2538 80.951 56.6153L81.282 56.7458L80.9265 56.7203C79.9385 56.6508 78.9125 57.2808 78.479 57.8318C79.546 57.9073 81.0245 57.4838 81.282 56.7458ZM79.0995 56.2313C78.768 56.9403 77.254 57.2138 76.2005 57.0313C76.6875 56.5258 77.772 56.0023 78.748 56.1698L79.0995 56.2313C79.2695 55.4678 78.2315 54.3408 77.283 53.8538C77.361 54.5483 77.904 55.6168 78.783 56.0683L79.0995 56.2313ZM76.981 55.5013C77.2275 54.7583 76.3095 53.5338 75.415 52.9543C75.4225 53.6533 75.8535 54.7703 76.683 55.3078L76.981 55.5013L76.638 55.4058C75.684 55.1403 74.552 55.5543 74.016 56.0083C75.045 56.2943 76.579 56.1743 76.981 55.5013ZM74.9465 54.5628C74.4785 55.1928 72.9405 55.1588 71.9455 54.7718C72.5245 54.3733 73.693 54.0753 74.6155 54.4338L74.9465 54.5628C75.2675 53.8488 74.478 52.5383 73.647 51.8723C73.5835 52.5683 73.899 53.7228 74.6695 54.3408L74.9465 54.5628ZM73.0185 53.4263C73.4105 52.7478 72.758 51.3658 71.999 50.6193C71.865 51.3053 72.062 52.4863 72.7655 53.1773L73.0185 53.4263L72.702 53.2653C71.8215 52.8153 70.6285 52.9953 70.012 53.3343C70.962 53.8193 72.489 54.0063 73.0185 53.4263ZM71.2155 52.1028C70.63 52.6268 69.13 52.2878 68.2335 51.7108C68.8815 51.4353 70.086 51.3753 70.9165 51.9103L71.2155 52.1028L70.989 51.8303C70.359 51.0713 70.283 49.8773 70.486 49.2083C71.1655 50.0268 71.674 51.4668 71.2155 52.1028ZM69.5565 50.6063C68.921 51.0693 67.463 50.5823 66.6295 49.9178C67.3015 49.7088 68.5065 49.7693 69.2785 50.3848L69.5565 50.6063C70.077 50.0188 69.7175 48.5353 69.1245 47.6528C68.855 48.2988 68.8095 49.4948 69.359 50.3123L69.5565 50.6063ZM68.0575 48.9513C67.3785 49.3478 65.9775 48.7178 65.216 47.9738C65.906 47.8328 67.0985 48.0138 67.804 48.7033L68.0575 48.9513C68.6355 48.4188 68.428 46.9068 67.9275 45.9698C67.5935 46.5853 67.427 47.7708 67.8905 48.6388L68.0575 48.9513ZM66.7345 47.1543C66.0185 47.4818 64.689 46.7143 64.007 45.8983C64.7075 45.8268 65.8755 46.1263 66.5075 46.8828L66.7345 47.1543L66.6 46.8273C66.227 45.9163 66.5135 44.7543 66.9075 44.1743C67.3105 45.1568 67.363 46.6823 66.7345 47.1543ZM65.6005 45.2348L65.5005 44.8953C65.222 43.9528 65.624 42.8238 66.0755 42.2868C66.3765 43.3043 66.274 44.8278 65.6005 45.2348L65.402 44.9408C64.85 44.1253 63.7185 43.7113 63.0145 43.7118C63.61 44.5918 64.855 45.4883 65.6005 45.2348ZM64.6675 43.2103C63.9 43.3888 62.7525 42.3728 62.249 41.4373C62.95 41.5063 64.0335 42.0318 64.5 42.8988L64.6675 43.2103C65.3785 42.8728 65.635 41.3678 65.4395 40.3253C64.936 40.8143 64.421 41.8968 64.6025 42.8633L64.6675 43.2103ZM63.9445 41.1043L63.9145 40.7518C63.832 39.7728 64.454 38.7463 65.005 38.3098C65.094 39.3668 64.686 40.8398 63.9445 41.1043L63.809 40.7768C63.433 39.8678 62.409 39.2368 61.7185 39.0983C62.124 40.0793 63.163 41.2048 63.9445 41.1043ZM63.439 38.9358L63.445 38.5823C63.462 37.5993 64.1855 36.6408 64.7775 36.2613C64.759 37.3218 64.204 38.7463 63.439 38.9358L63.3375 38.5968C63.056 37.6548 62.1005 36.9243 61.428 36.7168C61.732 37.7338 62.6515 38.9578 63.439 38.9358ZM63.1565 36.7273C62.3705 36.6708 61.5805 35.3613 61.381 34.3188C62.029 34.5923 62.905 35.4143 63.09 36.3803L63.1565 36.7273C63.9365 36.6158 64.6335 35.2538 64.7595 34.2008C64.132 34.5188 63.3155 35.3998 63.1985 36.3758L63.1565 36.7273ZM63.0995 34.5023C62.323 34.3673 61.67 32.9853 61.578 31.9288C62.1945 32.2653 62.983 33.1703 63.0685 34.1503L63.0995 34.5023C63.8865 34.4688 64.7185 33.1838 64.9505 32.1483C64.294 32.4018 63.392 33.1973 63.1765 34.1573L63.0995 34.5023ZM63.268 32.2828C62.51 32.0703 62 30.6308 62.016 29.5698C62.5955 29.9668 63.2875 30.9458 63.2735 31.9288L63.268 32.2828C64.0545 32.3283 65.0125 31.1323 65.349 30.1253C64.67 30.3118 63.692 31.0138 63.38 31.9468L63.268 32.2828ZM63.6615 30.0903L63.807 29.7678C64.2115 28.8703 65.256 28.2703 65.95 28.1518C65.5135 29.1208 64.4395 30.2143 63.6615 30.0903L63.7025 29.7398C63.8165 28.7633 63.2275 27.7193 62.6905 27.2668C62.568 28.3203 62.929 29.8038 63.6615 30.0903ZM64.2755 27.9493C63.5755 27.5908 63.367 26.0783 63.5965 25.0418C64.084 25.5463 64.5645 26.6438 64.352 27.6038L64.2755 27.9493C65.0365 28.1498 66.2165 27.1688 66.7495 26.2488C66.047 26.2968 64.947 26.7898 64.4535 27.6423L64.2755 27.9493ZM65.1035 25.8793C64.4435 25.4523 64.3895 23.9268 64.723 22.9188C65.157 23.4688 65.5235 24.6093 65.2145 25.5433L65.1035 25.8793C65.8405 26.1553 67.1135 25.2968 67.7375 24.4348C67.0335 24.4128 65.8895 24.7933 65.3115 25.5918L65.1035 25.8793ZM66.1375 23.9028C66.8425 24.2513 68.196 23.5243 68.904 22.7288C68.206 22.6358 67.029 22.9003 66.373 23.6378L66.1375 23.9028L66.282 23.5793C66.684 22.6808 66.435 21.5098 66.059 20.9188C65.6255 21.8888 65.5245 23.4123 66.1375 23.9028ZM67.366 22.0398C66.806 21.4903 67.0615 19.9848 67.5915 19.0628C67.9055 19.6883 68.0345 20.8783 67.543 21.7318L67.366 22.0398L67.628 21.7998C68.355 21.1318 69.5525 20.9863 70.2375 21.1478C69.453 21.8688 68.0325 22.4563 67.366 22.0398ZM68.778 20.3083L69.0625 20.0948C69.854 19.5028 71.06 19.4783 71.725 19.7073C70.8715 20.3468 69.3985 20.7898 68.778 20.3083L68.985 20.0198C69.56 19.2193 69.553 18.0223 69.304 17.3688C68.6835 18.2333 68.2765 19.7058 68.778 20.3083ZM70.3585 18.7268C69.9205 18.0773 70.475 16.6528 71.18 15.8548C71.361 16.5298 71.247 17.7218 70.5935 18.4608L70.3585 18.7268C70.927 19.2678 72.4375 18.9743 73.3515 18.4243C72.713 18.1293 71.5105 18.0338 70.663 18.5438L70.3585 18.7268ZM72.0915 17.3108C71.7215 16.6208 72.4175 15.2588 73.2 14.5358C73.312 15.2258 73.077 16.3998 72.352 17.0703L72.0915 17.3108L72.413 17.1588C73.308 16.7358 74.494 16.9508 75.0995 17.3083C74.1335 17.7648 72.6015 17.9058 72.0915 17.3108ZM73.9585 16.0753L74.294 15.9563C75.227 15.6253 76.3855 15.9573 76.9515 16.3733C75.9445 16.7308 74.406 16.7183 73.9585 16.0753L74.242 15.8613C75.0315 15.2668 75.384 14.1218 75.343 13.4243C74.491 14.0663 73.6605 15.3523 73.9585 16.0753ZM75.9415 15.0328C75.7185 14.2833 76.675 13.0868 77.588 12.5338C77.558 13.2313 77.091 14.3358 76.2455 14.8483L75.9415 15.0328L76.2875 14.9478C77.2495 14.7108 78.368 15.1583 78.889 15.6283C77.8505 15.8833 76.3215 15.7173 75.9415 15.0328ZM86.529 57.0378C86.7095 57.7978 88.1375 58.3658 89.2065 58.3968C88.832 57.8048 87.8755 57.0763 86.885 57.0478L86.529 57.0378C86.517 56.2558 87.7625 55.3578 88.791 55.0678C88.5735 55.7323 87.825 56.6718 86.8715 56.9413L86.529 57.0378ZM88.753 56.7423C88.6615 55.9658 89.8095 54.9478 90.804 54.5568C90.655 55.2398 90.0055 56.2488 89.0845 56.6113L88.753 56.7423L89.1085 56.7163C90.0965 56.6458 91.1225 57.2753 91.555 57.8258C90.488 57.9028 89.0095 57.4808 88.753 56.7423ZM90.9355 56.2263L91.252 56.0628C92.132 55.6103 92.675 54.5418 92.7545 53.8468C91.805 54.3353 90.766 55.4628 90.9355 56.2263L91.2865 56.1648C92.2625 55.9963 93.347 56.5193 93.8335 57.0238C92.78 57.2073 91.266 56.9353 90.9355 56.2263ZM93.055 55.4948C92.809 54.7523 93.728 53.5268 94.6235 52.9463C94.6155 53.6453 94.183 54.7628 93.3535 55.3008L93.055 55.4948L93.398 55.3988C94.352 55.1328 95.484 55.5453 96.0195 55.9993C94.99 56.2858 93.456 56.1673 93.055 55.4948ZM95.09 54.5548C95.5575 55.1843 97.0955 55.1493 98.0905 54.7613C97.512 54.3633 96.3435 54.0663 95.4215 54.4253L95.09 54.5548C94.7695 53.8408 95.56 52.5303 96.392 51.8633C96.4545 52.5593 96.138 53.7143 95.3675 54.3328L95.09 54.5548ZM97.019 53.4168C96.628 52.7388 97.2815 51.3558 98.041 50.6093C98.1745 51.2953 97.9765 52.4763 97.2725 53.1678L97.019 53.4168L97.336 53.2553C98.217 52.8048 99.4095 52.9838 100.026 53.3223C99.075 53.8078 97.548 53.9958 97.019 53.4168ZM98.823 52.0918C99.408 52.6153 100.908 52.2753 101.805 51.6973C101.158 51.4223 99.9535 51.3633 99.122 51.8993L98.823 52.0918L99.05 51.8193C99.68 51.0598 99.7575 49.8658 99.555 49.1968C98.875 50.0153 98.3655 51.4558 98.823 52.0918ZM100.484 50.5933L100.681 50.2993C101.231 49.4813 101.187 48.2853 100.918 47.6393C100.324 48.5228 99.9635 50.0068 100.484 50.5933L100.761 50.3718C101.534 49.7558 102.738 49.6938 103.411 49.9023C102.577 50.5678 101.119 51.0558 100.484 50.5933ZM101.984 48.9373C102.663 49.3333 104.064 48.7018 104.827 47.9578C104.137 47.8173 102.944 47.9993 102.238 48.6893L101.984 48.9373C101.407 48.4053 101.615 46.8928 102.116 45.9553C102.45 46.5703 102.616 47.7558 102.151 48.6243L101.984 48.9373ZM103.308 47.1393C104.024 47.4658 105.354 46.6978 106.037 45.8808C105.337 45.8098 104.169 46.1103 103.536 46.8673L103.308 47.1393L103.443 46.8123C103.817 45.9013 103.532 44.7388 103.137 44.1593C102.734 45.1423 102.68 46.6678 103.308 47.1393ZM104.444 45.2188C105.189 45.4718 106.435 44.5748 107.032 43.6938C106.327 43.6933 105.196 44.1083 104.643 44.9248L104.444 45.2188C103.771 44.8128 103.67 43.2893 103.971 42.2708C104.422 42.8078 104.824 43.9363 104.544 44.8788L104.444 45.2188ZM105.378 43.1938C106.146 43.3718 107.294 42.3548 107.798 41.4188C107.098 41.4883 106.013 42.0148 105.546 42.8823L105.378 43.1938C104.668 42.8573 104.412 41.3523 104.609 40.3093C105.113 40.7978 105.627 41.8803 105.444 42.8468L105.378 43.1938ZM106.103 41.0873C106.885 41.1868 107.924 40.0603 108.331 39.0793C107.64 39.2183 106.615 39.8503 106.239 40.7593L106.103 41.0873C105.362 40.8233 104.955 39.3508 105.045 38.2933C105.595 38.7293 106.217 39.7553 106.133 40.7343L106.103 41.0873ZM106.611 38.9178C107.398 38.9393 108.319 37.7148 108.623 36.6973C107.95 36.9053 106.995 37.6363 106.712 38.5788L106.611 38.9178C105.846 38.7293 105.292 37.3053 105.274 36.2448C105.866 36.6233 106.589 37.5818 106.605 38.5643L106.611 38.9178ZM106.895 36.7093C107.681 36.6523 108.472 35.3418 108.673 34.2998C108.025 34.5738 107.148 35.3963 106.962 36.3623L106.895 36.7093C106.115 36.5983 105.419 35.2368 105.294 34.1838C105.921 34.5013 106.737 35.3818 106.853 36.3578L106.895 36.7093ZM106.954 34.4843L106.877 34.1393C106.662 33.1798 105.761 32.3848 105.105 32.1318C105.336 33.1668 106.167 34.4513 106.954 34.4843L106.985 34.1323C107.072 33.1523 107.861 32.2468 108.478 31.9098C108.385 32.9663 107.73 34.3488 106.954 34.4843ZM106.787 32.2648C107.546 32.0518 108.057 30.6118 108.042 29.5508C107.462 29.9478 106.769 30.9283 106.783 31.9108L106.787 32.2648C106.001 32.3108 105.044 31.1158 104.708 30.1093C105.387 30.2953 106.365 30.9963 106.675 31.9293L106.787 32.2648ZM106.395 30.0728C107.128 29.7853 107.491 28.3018 107.369 27.2483C106.832 27.7013 106.242 28.7458 106.355 29.7223L106.395 30.0728C105.618 30.1978 104.544 29.1043 104.108 28.1363C104.802 28.2543 105.846 28.8533 106.25 29.7503L106.395 30.0728ZM105.784 27.9323C106.484 27.5733 106.694 26.0608 106.465 25.0243C105.977 25.5293 105.496 26.6273 105.708 27.5868L105.784 27.9323C105.022 28.1333 103.843 27.1533 103.311 26.2338C104.014 26.2808 105.113 26.7733 105.606 27.6253L105.784 27.9323ZM104.957 25.8633L104.75 25.5758C104.172 24.7778 103.029 24.3978 102.325 24.4208C102.948 25.2823 104.22 26.1398 104.957 25.8633L104.847 25.5278C104.539 24.5938 104.906 23.4533 105.341 22.9028C105.673 23.9103 105.618 25.4358 104.957 25.8633ZM103.925 23.8873C103.22 24.2363 101.867 23.5103 101.16 22.7153C101.858 22.6218 103.034 22.8853 103.689 23.6223L103.925 23.8873L103.781 23.5643C103.38 22.6658 103.63 21.4948 104.006 20.9038C104.439 21.8733 104.539 23.3963 103.925 23.8873ZM102.698 22.0253C103.259 21.4753 103.005 19.9698 102.475 19.0488C102.161 19.6748 102.031 20.8648 102.522 21.7178L102.698 22.0253L102.436 21.7853C101.71 21.1178 100.512 20.9733 99.827 21.1353C100.611 21.8558 102.031 22.4423 102.698 22.0253ZM101.287 20.2953L101.003 20.0823C100.212 19.4913 99.0065 19.4673 98.341 19.6968C99.1945 20.3353 100.667 20.7768 101.287 20.2953L101.081 20.0073C100.506 19.2073 100.514 18.0103 100.764 17.3563C101.384 18.2198 101.79 19.6923 101.287 20.2953ZM99.7085 18.7143C100.147 18.0643 99.594 16.6403 98.8895 15.8428C98.7075 16.5183 98.8205 17.7098 99.474 18.4483L99.7085 18.7143C99.14 19.2558 97.63 18.9633 96.716 18.4143C97.355 18.1188 98.557 18.0223 99.404 18.5313L99.7085 18.7143ZM97.977 17.3003C98.3475 16.6098 97.6525 15.2483 96.8705 14.5258C96.758 15.2163 96.9915 16.3893 97.7165 17.0593L97.977 17.3003L97.6555 17.1483C96.761 16.7258 95.5745 16.9423 94.969 17.3003C95.9345 17.7558 97.466 17.8958 97.977 17.3003ZM96.111 16.0663C96.4095 15.3428 95.58 14.0578 94.7285 13.4163C94.6865 14.1138 95.0385 15.2588 95.827 15.8523L96.111 16.0663C95.6635 16.7098 94.1245 16.7233 93.118 16.3668C93.6845 15.9503 94.843 15.6173 95.776 15.9473L96.111 16.0663Z" fill="white"/>
</g>
<mask id="mask1_1458_464" style="mask-type:luminance" maskUnits="userSpaceOnUse" x="92" y="22" width="20" height="36">
<path d="M93.0024 30.5267L103.031 27.1567L105.937 28.4377L111.281 22.2192L110.258 35.7502L106.257 49.7547L96.0034 57.7577L92.5024 55.7567L94.0029 51.2552L93.0024 30.5267Z" fill="white"/>
</mask>
<g mask="url(#mask1_1458_464)">
<path fill-rule="evenodd" clip-rule="evenodd" d="M94.1289 15.0253C93.7484 15.7103 92.2189 15.8768 91.1809 15.6228C91.7024 15.1523 92.8214 14.7043 93.7829 14.9403L94.1289 15.0253L93.8249 14.8408C92.9799 14.3293 92.5134 13.2253 92.4844 12.5273C93.3964 13.0798 94.3524 14.2758 94.1289 15.0253ZM85.0224 56.4463C85.3484 56.4463 85.6119 56.7078 85.6119 57.0313C85.6119 57.3538 85.3479 57.6158 85.0219 57.6163C84.6959 57.6168 84.4324 57.3548 84.4324 57.0318C84.4329 56.7088 84.6964 56.4463 85.0224 56.4463ZM92.8184 14.4183L92.5499 14.1863C91.8034 13.5403 90.6019 13.4318 89.9219 13.6138C90.7274 14.3108 92.1644 14.8558 92.8184 14.4183ZM77.3044 14.4248C77.9579 14.8618 79.3954 14.3158 80.2014 13.6183C79.5214 13.4368 78.3199 13.5458 77.5729 14.1928L77.3044 14.4248ZM83.5054 57.0393C83.3244 57.7998 81.8959 58.3688 80.8269 58.4003C81.2019 57.8083 82.1589 57.0788 83.1494 57.0493L83.5054 57.0393C83.5179 56.2573 82.2734 55.3603 81.2449 55.0713C81.4624 55.7358 82.2094 56.6748 83.1629 56.9433L83.5054 57.0393ZM81.2819 56.7458C81.3739 55.9693 80.2269 54.9523 79.2329 54.5623C79.3814 55.2448 80.0294 56.2538 80.9509 56.6153L81.2819 56.7458L80.9264 56.7203C79.9384 56.6508 78.9124 57.2808 78.4789 57.8318C79.5459 57.9073 81.0244 57.4838 81.2819 56.7458ZM79.0994 56.2313C78.7679 56.9403 77.2539 57.2138 76.2004 57.0313C76.6874 56.5258 77.7719 56.0023 78.7479 56.1698L79.0994 56.2313C79.2694 55.4678 78.2314 54.3408 77.2829 53.8538C77.3609 54.5483 77.9039 55.6168 78.7829 56.0683L79.0994 56.2313ZM76.9809 55.5013C77.2274 54.7583 76.3094 53.5338 75.4149 52.9543C75.4224 53.6533 75.8534 54.7703 76.6829 55.3078L76.9809 55.5013L76.6379 55.4058C75.6839 55.1403 74.5519 55.5543 74.0159 56.0083C75.0449 56.2943 76.5789 56.1743 76.9809 55.5013ZM74.9464 54.5628C74.4784 55.1928 72.9404 55.1588 71.9454 54.7718C72.5244 54.3733 73.6929 54.0753 74.6154 54.4338L74.9464 54.5628C75.2674 53.8488 74.4779 52.5383 73.6469 51.8723C73.5834 52.5683 73.8989 53.7228 74.6694 54.3408L74.9464 54.5628ZM73.0184 53.4263C73.4104 52.7478 72.7579 51.3658 71.9989 50.6193C71.8649 51.3053 72.0619 52.4863 72.7654 53.1773L73.0184 53.4263L72.7019 53.2653C71.8214 52.8153 70.6284 52.9953 70.0119 53.3343C70.9619 53.8193 72.4889 54.0063 73.0184 53.4263ZM71.2154 52.1028C70.6299 52.6268 69.1299 52.2878 68.2334 51.7108C68.8814 51.4353 70.0859 51.3753 70.9164 51.9103L71.2154 52.1028L70.9889 51.8303C70.3589 51.0713 70.2829 49.8773 70.4859 49.2083C71.1654 50.0268 71.6739 51.4668 71.2154 52.1028ZM69.5564 50.6063C68.9209 51.0693 67.4629 50.5823 66.6294 49.9178C67.3014 49.7088 68.5064 49.7693 69.2784 50.3848L69.5564 50.6063C70.0769 50.0188 69.7174 48.5353 69.1244 47.6528C68.8549 48.2988 68.8094 49.4948 69.3589 50.3123L69.5564 50.6063ZM68.0574 48.9513C67.3784 49.3478 65.9774 48.7178 65.2159 47.9738C65.9059 47.8328 67.0984 48.0138 67.8039 48.7033L68.0574 48.9513C68.6354 48.4188 68.4279 46.9068 67.9274 45.9698C67.5934 46.5853 67.4269 47.7708 67.8904 48.6388L68.0574 48.9513ZM66.7344 47.1543C66.0184 47.4818 64.6889 46.7143 64.0069 45.8983C64.7074 45.8268 65.8754 46.1263 66.5074 46.8828L66.7344 47.1543L66.5999 46.8273C66.2269 45.9163 66.5134 44.7543 66.9074 44.1743C67.3104 45.1568 67.3629 46.6823 66.7344 47.1543ZM65.6004 45.2348L65.5004 44.8953C65.2219 43.9528 65.6239 42.8238 66.0754 42.2868C66.3764 43.3043 66.2739 44.8278 65.6004 45.2348L65.4019 44.9408C64.8499 44.1253 63.7184 43.7113 63.0144 43.7118C63.6099 44.5918 64.8549 45.4883 65.6004 45.2348ZM64.6674 43.2103C63.8999 43.3888 62.7524 42.3728 62.2489 41.4373C62.9499 41.5063 64.0334 42.0318 64.4999 42.8988L64.6674 43.2103C65.3784 42.8728 65.6349 41.3678 65.4394 40.3253C64.9359 40.8143 64.4209 41.8968 64.6024 42.8633L64.6674 43.2103ZM63.9444 41.1043L63.9144 40.7518C63.8319 39.7728 64.4539 38.7463 65.0049 38.3098C65.0939 39.3668 64.6859 40.8398 63.9444 41.1043L63.8089 40.7768C63.4329 39.8678 62.4089 39.2368 61.7184 39.0983C62.1239 40.0793 63.1629 41.2048 63.9444 41.1043ZM63.4389 38.9358L63.4449 38.5823C63.4619 37.5993 64.1854 36.6408 64.7774 36.2613C64.7589 37.3218 64.2039 38.7463 63.4389 38.9358L63.3374 38.5968C63.0559 37.6548 62.1004 36.9243 61.4279 36.7168C61.7319 37.7338 62.6514 38.9578 63.4389 38.9358ZM63.1564 36.7273C62.3704 36.6708 61.5804 35.3613 61.3809 34.3188C62.0289 34.5923 62.9049 35.4143 63.0899 36.3803L63.1564 36.7273C63.9364 36.6158 64.6334 35.2538 64.7594 34.2008C64.1319 34.5188 63.3154 35.3998 63.1984 36.3758L63.1564 36.7273ZM63.0994 34.5023C62.3229 34.3673 61.6699 32.9853 61.5779 31.9288C62.1944 32.2653 62.9829 33.1703 63.0684 34.1503L63.0994 34.5023C63.8864 34.4688 64.7184 33.1838 64.9504 32.1483C64.2939 32.4018 63.3919 33.1973 63.1764 34.1573L63.0994 34.5023ZM63.2679 32.2828C62.5099 32.0703 61.9999 30.6308 62.0159 29.5698C62.5954 29.9668 63.2874 30.9458 63.2734 31.9288L63.2679 32.2828C64.0544 32.3283 65.0124 31.1323 65.3489 30.1253C64.6699 30.3118 63.6919 31.0138 63.3799 31.9468L63.2679 32.2828ZM63.6614 30.0903L63.8069 29.7678C64.2114 28.8703 65.2559 28.2703 65.9499 28.1518C65.5134 29.1208 64.4394 30.2143 63.6614 30.0903L63.7024 29.7398C63.8164 28.7633 63.2274 27.7193 62.6904 27.2668C62.5679 28.3203 62.9289 29.8038 63.6614 30.0903ZM64.2754 27.9493C63.5754 27.5908 63.3669 26.0783 63.5964 25.0418C64.0839 25.5463 64.5644 26.6438 64.3519 27.6038L64.2754 27.9493C65.0364 28.1498 66.2164 27.1688 66.7494 26.2488C66.0469 26.2968 64.9469 26.7898 64.4534 27.6423L64.2754 27.9493ZM65.1034 25.8793C64.4434 25.4523 64.3894 23.9268 64.7229 22.9188C65.1569 23.4688 65.5234 24.6093 65.2144 25.5433L65.1034 25.8793C65.8404 26.1553 67.1134 25.2968 67.7374 24.4348C67.0334 24.4128 65.8894 24.7933 65.3114 25.5918L65.1034 25.8793ZM66.1374 23.9028C66.8424 24.2513 68.1959 23.5243 68.9039 22.7288C68.2059 22.6358 67.0289 22.9003 66.3729 23.6378L66.1374 23.9028L66.2819 23.5793C66.6839 22.6808 66.4349 21.5098 66.0589 20.9188C65.6254 21.8888 65.5244 23.4123 66.1374 23.9028ZM67.3659 22.0398C66.8059 21.4903 67.0614 19.9848 67.5914 19.0628C67.9054 19.6883 68.0344 20.8783 67.5429 21.7318L67.3659 22.0398L67.6279 21.7998C68.3549 21.1318 69.5524 20.9863 70.2374 21.1478C69.4529 21.8688 68.0324 22.4563 67.3659 22.0398ZM68.7779 20.3083L69.0624 20.0948C69.8539 19.5028 71.0599 19.4783 71.7249 19.7073C70.8714 20.3468 69.3984 20.7898 68.7779 20.3083L68.9849 20.0198C69.5599 19.2193 69.5529 18.0223 69.3039 17.3688C68.6834 18.2333 68.2764 19.7058 68.7779 20.3083ZM70.3584 18.7268C69.9204 18.0773 70.4749 16.6528 71.1799 15.8548C71.3609 16.5298 71.2469 17.7218 70.5934 18.4608L70.3584 18.7268C70.9269 19.2678 72.4374 18.9743 73.3514 18.4243C72.7129 18.1293 71.5104 18.0338 70.6629 18.5438L70.3584 18.7268ZM72.0914 17.3108C71.7214 16.6208 72.4174 15.2588 73.1999 14.5358C73.3119 15.2258 73.0769 16.3998 72.3519 17.0703L72.0914 17.3108L72.4129 17.1588C73.3079 16.7358 74.4939 16.9508 75.0994 17.3083C74.1334 17.7648 72.6014 17.9058 72.0914 17.3108ZM73.9584 16.0753L74.2939 15.9563C75.2269 15.6253 76.3854 15.9573 76.9514 16.3733C75.9444 16.7308 74.4059 16.7183 73.9584 16.0753L74.2419 15.8613C75.0314 15.2668 75.3839 14.1218 75.3429 13.4243C74.4909 14.0663 73.6604 15.3523 73.9584 16.0753ZM75.9414 15.0328C75.7184 14.2833 76.6749 13.0868 77.5879 12.5338C77.5579 13.2313 77.0909 14.3358 76.2454 14.8483L75.9414 15.0328L76.2874 14.9478C77.2494 14.7108 78.3679 15.1583 78.8889 15.6283C77.8504 15.8833 76.3214 15.7173 75.9414 15.0328ZM86.5289 57.0378C86.7094 57.7978 88.1374 58.3658 89.2064 58.3968C88.8319 57.8048 87.8754 57.0763 86.8849 57.0478L86.5289 57.0378C86.5169 56.2558 87.7624 55.3578 88.7909 55.0678C88.5734 55.7323 87.8249 56.6718 86.8714 56.9413L86.5289 57.0378ZM88.7529 56.7423C88.6614 55.9658 89.8094 54.9478 90.8039 54.5568C90.6549 55.2398 90.0054 56.2488 89.0844 56.6113L88.7529 56.7423L89.1084 56.7163C90.0964 56.6458 91.1224 57.2753 91.5549 57.8258C90.4879 57.9028 89.0094 57.4808 88.7529 56.7423ZM90.9354 56.2263L91.2519 56.0628C92.1319 55.6103 92.6749 54.5418 92.7544 53.8468C91.8049 54.3353 90.7659 55.4628 90.9354 56.2263L91.2864 56.1648C92.2624 55.9963 93.3469 56.5193 93.8334 57.0238C92.7799 57.2073 91.2659 56.9353 90.9354 56.2263ZM93.0549 55.4948C92.8089 54.7523 93.7279 53.5268 94.6234 52.9463C94.6154 53.6453 94.1829 54.7628 93.3534 55.3008L93.0549 55.4948L93.3979 55.3988C94.3519 55.1328 95.4839 55.5453 96.0194 55.9993C94.9899 56.2858 93.4559 56.1673 93.0549 55.4948ZM95.0899 54.5548C95.5574 55.1843 97.0954 55.1493 98.0904 54.7613C97.5119 54.3633 96.3434 54.0663 95.4214 54.4253L95.0899 54.5548C94.7694 53.8408 95.5599 52.5303 96.3919 51.8633C96.4544 52.5593 96.1379 53.7143 95.3674 54.3328L95.0899 54.5548ZM97.0189 53.4168C96.6279 52.7388 97.2814 51.3558 98.0409 50.6093C98.1744 51.2953 97.9764 52.4763 97.2724 53.1678L97.0189 53.4168L97.3359 53.2553C98.2169 52.8048 99.4094 52.9838 100.026 53.3223C99.0749 53.8078 97.5479 53.9958 97.0189 53.4168ZM98.8229 52.0918C99.4079 52.6153 100.908 52.2753 101.805 51.6973C101.158 51.4223 99.9534 51.3633 99.1219 51.8993L98.8229 52.0918L99.0499 51.8193C99.6799 51.0598 99.7574 49.8658 99.5549 49.1968C98.8749 50.0153 98.3654 51.4558 98.8229 52.0918ZM100.484 50.5933L100.681 50.2993C101.231 49.4813 101.187 48.2853 100.918 47.6393C100.324 48.5228 99.9634 50.0068 100.484 50.5933L100.761 50.3718C101.534 49.7558 102.738 49.6938 103.411 49.9023C102.577 50.5678 101.119 51.0558 100.484 50.5933ZM101.984 48.9373C102.663 49.3333 104.064 48.7018 104.827 47.9578C104.137 47.8173 102.944 47.9993 102.238 48.6893L101.984 48.9373C101.407 48.4053 101.615 46.8928 102.116 45.9553C102.45 46.5703 102.616 47.7558 102.151 48.6243L101.984 48.9373ZM103.308 47.1393C104.024 47.4658 105.354 46.6978 106.037 45.8808C105.337 45.8098 104.169 46.1103 103.536 46.8673L103.308 47.1393L103.443 46.8123C103.817 45.9013 103.532 44.7388 103.137 44.1593C102.734 45.1423 102.68 46.6678 103.308 47.1393ZM104.444 45.2188C105.189 45.4718 106.435 44.5748 107.032 43.6938C106.327 43.6933 105.196 44.1083 104.643 44.9248L104.444 45.2188C103.771 44.8128 103.67 43.2893 103.971 42.2708C104.422 42.8078 104.824 43.9363 104.544 44.8788L104.444 45.2188ZM105.378 43.1938C106.146 43.3718 107.294 42.3548 107.798 41.4188C107.098 41.4883 106.013 42.0148 105.546 42.8823L105.378 43.1938C104.668 42.8573 104.412 41.3523 104.609 40.3093C105.113 40.7978 105.627 41.8803 105.444 42.8468L105.378 43.1938ZM106.103 41.0873C106.885 41.1868 107.924 40.0603 108.331 39.0793C107.64 39.2183 106.615 39.8503 106.239 40.7593L106.103 41.0873C105.362 40.8233 104.955 39.3508 105.045 38.2933C105.595 38.7293 106.217 39.7553 106.133 40.7343L106.103 41.0873ZM106.611 38.9178C107.398 38.9393 108.319 37.7148 108.623 36.6973C107.95 36.9053 106.995 37.6363 106.712 38.5788L106.611 38.9178C105.846 38.7293 105.292 37.3053 105.274 36.2448C105.866 36.6233 106.589 37.5818 106.605 38.5643L106.611 38.9178ZM106.895 36.7093C107.681 36.6523 108.472 35.3418 108.673 34.2998C108.025 34.5738 107.148 35.3963 106.962 36.3623L106.895 36.7093C106.115 36.5983 105.419 35.2368 105.294 34.1838C105.921 34.5013 106.737 35.3818 106.853 36.3578L106.895 36.7093ZM106.954 34.4843L106.877 34.1393C106.662 33.1798 105.761 32.3848 105.105 32.1318C105.336 33.1668 106.167 34.4513 106.954 34.4843L106.985 34.1323C107.072 33.1523 107.861 32.2468 108.478 31.9098C108.385 32.9663 107.73 34.3488 106.954 34.4843ZM106.787 32.2648C107.546 32.0518 108.057 30.6118 108.042 29.5508C107.462 29.9478 106.769 30.9283 106.783 31.9108L106.787 32.2648C106.001 32.3108 105.044 31.1158 104.708 30.1093C105.387 30.2953 106.365 30.9963 106.675 31.9293L106.787 32.2648ZM106.395 30.0728C107.128 29.7853 107.491 28.3018 107.369 27.2483C106.832 27.7013 106.242 28.7458 106.355 29.7223L106.395 30.0728C105.618 30.1978 104.544 29.1043 104.108 28.1363C104.802 28.2543 105.846 28.8533 106.25 29.7503L106.395 30.0728ZM105.784 27.9323C106.484 27.5733 106.694 26.0608 106.465 25.0243C105.977 25.5293 105.496 26.6273 105.708 27.5868L105.784 27.9323C105.022 28.1333 103.843 27.1533 103.311 26.2338C104.014 26.2808 105.113 26.7733 105.606 27.6253L105.784 27.9323ZM104.957 25.8633L104.75 25.5758C104.172 24.7778 103.029 24.3978 102.325 24.4208C102.948 25.2823 104.22 26.1398 104.957 25.8633L104.847 25.5278C104.539 24.5938 104.906 23.4533 105.341 22.9028C105.673 23.9103 105.618 25.4358 104.957 25.8633ZM103.925 23.8873C103.22 24.2363 101.867 23.5103 101.16 22.7153C101.858 22.6218 103.034 22.8853 103.689 23.6223L103.925 23.8873L103.781 23.5643C103.38 22.6658 103.63 21.4948 104.006 20.9038C104.439 21.8733 104.539 23.3963 103.925 23.8873ZM102.698 22.0253C103.259 21.4753 103.005 19.9698 102.475 19.0488C102.161 19.6748 102.031 20.8648 102.522 21.7178L102.698 22.0253L102.436 21.7853C101.71 21.1178 100.512 20.9733 99.8269 21.1353C100.611 21.8558 102.031 22.4423 102.698 22.0253ZM101.287 20.2953L101.003 20.0823C100.212 19.4913 99.0064 19.4673 98.3409 19.6968C99.1944 20.3353 100.667 20.7768 101.287 20.2953L101.081 20.0073C100.506 19.2073 100.514 18.0103 100.764 17.3563C101.384 18.2198 101.79 19.6923 101.287 20.2953ZM99.7084 18.7143C100.147 18.0643 99.5939 16.6403 98.8894 15.8428C98.7074 16.5183 98.8204 17.7098 99.4739 18.4483L99.7084 18.7143C99.1399 19.2558 97.6299 18.9633 96.7159 18.4143C97.3549 18.1188 98.5569 18.0223 99.4039 18.5313L99.7084 18.7143ZM97.9769 17.3003C98.3474 16.6098 97.6524 15.2483 96.8704 14.5258C96.7579 15.2163 96.9914 16.3893 97.7164 17.0593L97.9769 17.3003L97.6554 17.1483C96.7609 16.7258 95.5744 16.9423 94.9689 17.3003C95.9344 17.7558 97.4659 17.8958 97.9769 17.3003ZM96.1109 16.0663C96.4094 15.3428 95.5799 14.0578 94.7284 13.4163C94.6864 14.1138 95.0384 15.2588 95.8269 15.8523L96.1109 16.0663C95.6634 16.7098 94.1244 16.7233 93.1179 16.3668C93.6844 15.9503 94.8429 15.6173 95.7759 15.9473L96.1109 16.0663Z" fill="white"/>
</g>
<path fill-rule="evenodd" clip-rule="evenodd" d="M106.094 28.6714L106.11 28.3169C106.155 27.3304 105.496 26.3204 104.932 25.8994C104.884 26.9634 105.346 28.4289 106.094 28.6714Z" fill="white"/>
<path fill-rule="evenodd" clip-rule="evenodd" d="M63.991 28.6714L63.975 28.3169C63.93 27.3304 64.589 26.3204 65.153 25.8994C65.2015 26.9634 64.739 28.4289 63.991 28.6714Z" fill="white"/>
</g>
<g clip-path="url(#clip1_1458_464)">
<path d="M68.029 30.1515L65.834 27.789C64.3975 26.243 63.727 24.0935 64.016 21.964L64.458 18.7095C64.964 14.9855 62.542 11.5145 58.984 10.865L55.8745 10.297C53.84 9.92553 52.0835 8.59703 51.1155 6.69703L49.6355 3.79353C47.9425 0.471026 44.0235 -0.854474 40.778 0.797026L37.9415 2.24053C36.0855 3.18503 33.915 3.18503 32.059 2.24053L29.2225 0.797026C25.977 -0.854474 22.058 0.471026 20.365 3.79353L18.885 6.69703C17.917 8.59703 16.1605 9.92553 14.126 10.297L11.0165 10.865C7.45848 11.515 5.03648 14.9855 5.54198 18.7095L5.98398 21.964C6.27348 24.0935 5.60248 26.243 4.16598 27.789L1.97098 30.1515C-0.541025 32.8545 -0.541025 37.145 1.97098 39.848L4.16598 42.2105C5.60248 43.7565 6.27298 45.9055 5.98398 48.0355L5.54198 51.29C5.03597 55.014 7.45798 58.485 11.0165 59.1345L14.126 59.7025C16.1605 60.074 17.917 61.4025 18.885 63.3025L20.365 66.206C22.058 69.5285 25.977 70.854 29.2225 69.2025L32.059 67.759C33.915 66.8145 36.0855 66.8145 37.9415 67.759L40.778 69.2025C44.0235 70.8545 47.9425 69.5285 49.6355 66.206L51.1155 63.3025C52.0835 61.4025 53.84 60.074 55.8745 59.7025L58.984 59.1345C62.542 58.4845 64.964 55.014 64.458 51.29L64.016 48.0355C63.7265 45.906 64.3975 43.7565 65.834 42.2105L68.029 39.848C70.5405 37.145 70.5405 32.855 68.029 30.1515ZM11.0795 55.5835C9.76498 55.5835 8.69948 54.474 8.69948 53.1055C8.69948 51.737 9.76498 50.6275 11.0795 50.6275C12.394 50.6275 13.4595 51.737 13.4595 53.1055C13.4595 54.474 12.394 55.5835 11.0795 55.5835Z" fill="#E4C655"/>
<path d="M29.1755 37.1994C28.937 37.4619 28.5885 37.6734 28.13 37.8339C27.671 37.9944 27.1675 38.0744 26.6205 38.0744C25.779 38.0744 25.107 37.8194 24.604 37.3089C24.101 36.7984 23.8315 36.0884 23.7965 35.1779L23.792 34.6264C23.792 33.9994 23.904 33.4514 24.1275 32.9834C24.351 32.5154 24.671 32.1549 25.087 31.9029C25.5035 31.6504 25.9855 31.5244 26.5325 31.5244C27.333 31.5244 27.9545 31.7059 28.397 32.0694C28.84 32.4324 29.098 32.9744 29.1715 33.6949H27.6805C27.6275 33.3389 27.5125 33.0854 27.3365 32.9334C27.1595 32.7819 26.9095 32.7059 26.5865 32.7059C26.198 32.7059 25.898 32.8694 25.686 33.1959C25.474 33.5224 25.3665 33.9894 25.3635 34.5959V34.9809C25.3635 35.6164 25.4735 36.0944 25.6925 36.4139C25.9115 36.7334 26.2565 36.8929 26.727 36.8929C27.13 36.8929 27.43 36.8039 27.627 36.6259V35.6369H26.55V34.5824H29.1755V37.1994Z" fill="white"/>
<path d="M35.5165 34.9333C35.5165 35.5548 35.4005 36.1043 35.168 36.5828C34.9355 37.0608 34.6055 37.4288 34.1775 37.6873C33.75 37.9458 33.262 38.0743 32.7145 38.0743C32.1675 38.0743 31.6825 37.9498 31.2585 37.7003C30.8345 37.4508 30.5045 37.0943 30.268 36.6303C30.0315 36.1663 29.907 35.6343 29.8955 35.0333V34.6748C29.8955 34.0508 30.0105 33.4998 30.2415 33.0233C30.4725 32.5463 30.8035 32.1783 31.234 31.9183C31.665 31.6588 32.156 31.5288 32.7055 31.5288C33.25 31.5288 33.7355 31.6573 34.162 31.9143C34.5885 32.1708 34.92 32.5363 35.1565 33.0103C35.393 33.4843 35.5135 34.0278 35.5165 34.6403V34.9333ZM33.9415 34.6663C33.9415 34.0333 33.8345 33.5528 33.621 33.2248C33.408 32.8968 33.103 32.7328 32.7055 32.7328C31.929 32.7328 31.5185 33.3103 31.4745 34.4653L31.47 34.9338C31.47 35.5583 31.5745 36.0378 31.783 36.3728C31.992 36.7083 32.3025 36.8763 32.714 36.8763C33.1055 36.8763 33.407 36.7113 33.619 36.3818C33.831 36.0523 33.9385 35.5788 33.9415 34.9598V34.6663Z" fill="white"/>
<path d="M37.864 36.8057H40.5605V37.9867H36.3155V31.6162H37.8645L37.864 36.8057Z" fill="white"/>
<path d="M41.2135 37.9872V31.6162H43.2835C43.851 31.6162 44.3615 31.7437 44.8145 31.9992C45.2675 32.2547 45.6215 32.6147 45.876 33.0802C46.1305 33.5457 46.2595 34.0667 46.262 34.6442V34.9372C46.262 35.5207 46.1375 36.0437 45.889 36.5062C45.6405 36.9687 45.2905 37.3297 44.8385 37.5912C44.3865 37.8527 43.8835 37.9842 43.3275 37.9872H41.2135ZM42.762 32.8022V36.8057H43.3005C43.7445 36.8057 44.0855 36.6492 44.324 36.3352C44.5625 36.0217 44.6815 35.5557 44.6815 34.9372V34.6617C44.6815 34.0467 44.5625 33.5827 44.324 33.2702C44.0855 32.9582 43.7385 32.8022 43.283 32.8022H42.762Z" fill="white"/>
<path d="M17.3694 19.9917L16.7319 20.8477L19.0524 22.5767L18.5399 23.2642L16.2199 21.5352L15.5934 22.3752L15.0629 21.9797L16.8384 19.5962L17.3694 19.9917Z" fill="white"/>
<path d="M20.609 19.863L19.7815 20.697L20.108 21.3105L19.463 21.96L17.858 18.53L18.4265 17.9575L21.875 19.5305L21.2265 20.184L20.609 19.863ZM19.456 20.0845L19.9945 19.542L18.849 18.9455L19.456 20.0845Z" fill="white"/>
<path d="M24.0869 17.4029C24.0659 17.5989 23.9789 17.8074 23.8259 18.0289C23.6724 18.2499 23.4734 18.4499 23.2284 18.6269C22.8509 18.9004 22.4659 19.0029 22.0729 18.9349C21.6804 18.8679 21.3274 18.6334 21.0139 18.2339L20.8314 17.9859C20.6264 17.7024 20.4974 17.4179 20.4444 17.1344C20.3919 16.8499 20.4169 16.5834 20.5214 16.3334C20.6254 16.0844 20.8004 15.8714 21.0454 15.6939C21.4044 15.4344 21.7424 15.3144 22.0594 15.3354C22.3769 15.3559 22.6699 15.5169 22.9389 15.8194L22.2699 16.3034C22.1299 16.1594 21.9949 16.0819 21.8664 16.0704C21.7379 16.0599 21.6004 16.1059 21.4559 16.2109C21.2809 16.3369 21.1999 16.5084 21.2124 16.7239C21.2239 16.9409 21.3284 17.1869 21.5264 17.4624L21.6524 17.6369C21.8599 17.9239 22.0654 18.1049 22.2684 18.1779C22.4709 18.2514 22.6779 18.2114 22.8884 18.0589C23.0694 17.9284 23.1749 17.7909 23.2054 17.6464L22.8819 17.1989L22.3989 17.5479L22.0544 17.0714L23.2314 16.2199L24.0869 17.4029Z" fill="white"/>
<path d="M25.1164 16.6144L26.4394 15.9234L26.7444 16.5079L24.6619 17.5959L23.0164 14.4429L23.7764 14.0464L25.1164 16.6144Z" fill="white"/>
<path d="M27.8655 16.0857L27.072 16.4032L25.751 13.1012L26.545 12.7837L27.8655 16.0857Z" fill="white"/>
<path d="M31.1724 15.1029L30.3494 15.3244L28.5574 13.5164L29.1324 15.6519L28.3049 15.8749L27.3804 12.4419L28.2079 12.2189L29.9974 14.0284L29.4224 11.8919L30.2474 11.6694L31.1724 15.1029Z" fill="white"/>
<path d="M33.6115 13.2968L32.272 13.4508L32.3685 14.2948L33.9505 14.1133L34.0255 14.7683L31.592 15.0483L31.1865 11.5163L33.6245 11.2358L33.7 11.8928L32.113 12.0753L32.1985 12.8198L33.538 12.6658L33.6115 13.2968Z" fill="white"/>
<path d="M37.5159 14.2674L36.3464 14.1584L36.0804 14.8004L35.1689 14.7154L36.7984 11.2969L37.6009 11.3709L38.5774 15.0339L37.6609 14.9479L37.5159 14.2674ZM36.6124 13.5184L37.3734 13.5899L37.1069 12.3269L36.6124 13.5184Z" fill="white"/>
<path d="M41.5954 14.4832L42.5889 12.4452L43.4074 12.6747L41.7229 15.8952L40.8664 15.6557L40.9544 13.5757L39.9589 15.4017L39.1049 15.1627L39.3344 11.5342L40.1549 11.7637L39.9469 14.0212L41.0184 12.0052L41.7189 12.2022L41.5954 14.4832Z" fill="white"/>
<path d="M44.6109 16.4666L43.5534 15.9551L43.0799 16.4631L42.2559 16.0641L44.9794 13.4321L45.7044 13.7831L45.3369 17.5566L44.5089 17.1551L44.6109 16.4666ZM44.0269 15.4481L44.7149 15.7816L44.9069 14.5046L44.0269 15.4481Z" fill="white"/>
<path d="M47.2354 17.3676L46.8549 17.1026L46.1359 18.1346L45.4329 17.6451L47.4644 14.7266L48.6129 15.5271C48.9589 15.7676 49.1759 16.0331 49.2639 16.3226C49.3524 16.6116 49.2989 16.8961 49.1039 17.1766C48.9629 17.3796 48.8044 17.5196 48.6294 17.5956C48.4544 17.6716 48.2504 17.6901 48.0179 17.6511L47.8064 19.2531L47.7854 19.2836L47.0314 18.7586L47.2354 17.3676ZM47.2319 16.5616L47.6764 16.8716C47.8104 16.9646 47.9354 16.9991 48.0519 16.9756C48.1684 16.9526 48.2704 16.8781 48.3579 16.7521C48.4454 16.6261 48.4799 16.5036 48.4619 16.3846C48.4439 16.2656 48.3684 16.1606 48.2364 16.0681L47.7914 15.7576L47.2319 16.5616Z" fill="white"/>
<path d="M47.9855 19.4612L50.441 16.8887L51.269 17.6792C51.4965 17.8967 51.6515 18.1432 51.7345 18.4192C51.8175 18.6952 51.8205 18.9752 51.7435 19.2612C51.666 19.5462 51.516 19.8062 51.295 20.0407L51.182 20.1587C50.957 20.3942 50.706 20.5577 50.4285 20.6492C50.15 20.7407 49.871 20.7532 49.5895 20.6862C49.3085 20.6187 49.0555 20.4797 48.8315 20.2682L47.9855 19.4612ZM50.604 17.9592L49.061 19.5757L49.2765 19.7817C49.454 19.9512 49.651 20.0182 49.8675 19.9827C50.084 19.9472 50.3115 19.8047 50.5495 19.5547L50.6555 19.4432C50.8935 19.1952 51.0235 18.9622 51.0485 18.7452C51.074 18.5282 50.995 18.3322 50.812 18.1582L50.604 17.9592Z" fill="white"/>
<path d="M52.0654 22.4904C52.1644 22.4139 52.2149 22.3184 52.2159 22.2059C52.2169 22.0934 52.1794 21.9249 52.1019 21.7029C52.0244 21.4809 51.9704 21.2919 51.9394 21.1369C51.8364 20.6339 51.9419 20.2614 52.2549 20.0199C52.4109 19.8994 52.5834 19.8384 52.7729 19.8374C52.9619 19.8359 53.1539 19.8924 53.3484 20.0079C53.5434 20.1224 53.7209 20.2839 53.8809 20.4914C54.0369 20.6934 54.1414 20.9029 54.1934 21.1194C54.2454 21.3354 54.2389 21.5394 54.1739 21.7314C54.1094 21.9234 53.9914 22.0859 53.8199 22.2179L53.2969 21.5409C53.4119 21.4529 53.4739 21.3489 53.4824 21.2304C53.4914 21.1114 53.4499 20.9914 53.3569 20.8719C53.2634 20.7514 53.1624 20.6754 53.0549 20.6474C52.9469 20.6184 52.8519 20.6354 52.7694 20.6994C52.6969 20.7549 52.6619 20.8449 52.6629 20.9669C52.6639 21.0899 52.7089 21.2724 52.7969 21.5149C52.8849 21.7579 52.9404 21.9699 52.9649 22.1504C53.0249 22.5894 52.9009 22.9284 52.5929 23.1659C52.3469 23.3569 52.0824 23.4129 51.7984 23.3359C51.5144 23.2589 51.2469 23.0589 50.9974 22.7359C50.8209 22.5074 50.7024 22.2699 50.6414 22.0214C50.5804 21.7734 50.5849 21.5474 50.6549 21.3439C50.7254 21.1409 50.8529 20.9674 51.0389 20.8244L51.5644 21.5039C51.4134 21.6209 51.3329 21.7454 51.3214 21.8789C51.3104 22.0119 51.3724 22.1659 51.5079 22.3414C51.5944 22.4534 51.6869 22.5234 51.7859 22.5514C51.8844 22.5779 51.9779 22.5584 52.0654 22.4904Z" fill="white"/>
<path d="M31.481 58.5253L29.05 58.0283L29.1575 57.5018L30.5185 56.5538C30.8585 56.2958 31.048 56.0743 31.086 55.8898C31.1165 55.7393 31.107 55.6188 31.0575 55.5273C31.0075 55.4353 30.921 55.3768 30.797 55.3518C30.674 55.3268 30.5635 55.3583 30.4655 55.4468C30.368 55.5353 30.303 55.6583 30.2705 55.8143L29.462 55.6488C29.506 55.4358 29.5995 55.2483 29.743 55.0898C29.887 54.9308 30.0645 54.8193 30.275 54.7563C30.4855 54.6928 30.708 54.6853 30.9425 54.7328C31.319 54.8098 31.5915 54.9563 31.7595 55.1718C31.927 55.3873 31.978 55.6578 31.9115 55.9828C31.883 56.1203 31.8305 56.2483 31.753 56.3678C31.6755 56.4878 31.568 56.6078 31.431 56.7288C31.2945 56.8498 31.0815 57.0058 30.794 57.1953L30.2375 57.6228L31.6085 57.9033L31.481 58.5253Z" fill="white"/>
<path d="M34.873 57.3354C34.844 57.8154 34.7135 58.1784 34.483 58.4254C34.2515 58.6719 33.94 58.7834 33.5485 58.7599C33.1535 58.7349 32.856 58.5854 32.656 58.3114C32.456 58.0364 32.3705 57.6609 32.399 57.1844L32.439 56.5364C32.468 56.0569 32.598 55.6934 32.829 55.4464C33.0605 55.2004 33.3725 55.0889 33.766 55.1124C34.159 55.1364 34.4555 55.2864 34.656 55.5609C34.8555 55.8354 34.9415 56.2119 34.9125 56.6894L34.873 57.3354ZM34.0975 56.5324C34.113 56.2774 34.091 56.0844 34.0325 55.9544C33.9735 55.8244 33.872 55.7554 33.727 55.7469C33.586 55.7374 33.4795 55.7904 33.408 55.9029C33.3365 56.0154 33.2915 56.1904 33.272 56.4284L33.217 57.3349C33.201 57.5994 33.2225 57.7954 33.282 57.9224C33.3405 58.0494 33.4425 58.1169 33.587 58.1254C33.7265 58.1339 33.8335 58.0804 33.9075 57.9654C33.9815 57.8504 34.027 57.6649 34.0445 57.4104L34.0975 56.5324Z" fill="white"/>
<path d="M38.1095 58.5796L35.6365 58.7776L35.5935 58.2426L36.6375 56.9536C36.8925 56.6116 37.0125 56.3461 36.9975 56.1581C36.9855 56.0051 36.943 55.8916 36.87 55.8181C36.797 55.7441 36.697 55.7116 36.5705 55.7216C36.4455 55.7316 36.3485 55.7936 36.279 55.9056C36.2095 56.0176 36.1815 56.1536 36.194 56.3126L35.371 56.3786C35.354 56.1611 35.3925 55.9556 35.486 55.7631C35.5795 55.5706 35.7195 55.4146 35.9045 55.2946C36.089 55.1756 36.301 55.1061 36.54 55.0871C36.923 55.0561 37.2245 55.1211 37.446 55.2821C37.667 55.4421 37.7905 55.6881 37.8175 56.0196C37.828 56.1591 37.8135 56.2966 37.772 56.4331C37.7305 56.5691 37.661 56.7146 37.563 56.8686C37.465 57.0231 37.304 57.2311 37.08 57.4936L36.665 58.0591L38.0595 57.9471L38.1095 58.5796Z" fill="white"/>
<path d="M39.208 56.2183L39.5875 56.1338C39.8875 56.0668 40.005 55.8868 39.9395 55.5928C39.9135 55.4783 39.8575 55.3928 39.77 55.3363C39.682 55.2798 39.573 55.2658 39.443 55.2948C39.3365 55.3188 39.2505 55.3703 39.186 55.4503C39.121 55.5293 39.099 55.6148 39.119 55.7078L38.316 55.8863C38.2755 55.7038 38.29 55.5293 38.36 55.3638C38.43 55.1983 38.5455 55.0548 38.7085 54.9348C38.8705 54.8143 39.06 54.7303 39.2765 54.6823C39.6625 54.5958 39.986 54.6163 40.2455 54.7438C40.506 54.8708 40.6705 55.0883 40.739 55.3968C40.772 55.5468 40.758 55.6983 40.696 55.8503C40.634 56.0033 40.525 56.1408 40.3685 56.2623C40.5675 56.2883 40.735 56.3573 40.8705 56.4693C41.0055 56.5823 41.095 56.7388 41.14 56.9388C41.209 57.2488 41.145 57.5228 40.9475 57.7618C40.751 58.0008 40.4585 58.1633 40.0705 58.2498C39.8435 58.3008 39.6225 58.3038 39.409 58.2613C39.195 58.2178 39.021 58.1303 38.8865 57.9998C38.752 57.8683 38.6635 57.7053 38.62 57.5098L39.428 57.3303C39.4515 57.4368 39.515 57.5198 39.6185 57.5778C39.7215 57.6363 39.836 57.6518 39.9615 57.6243C40.103 57.5928 40.207 57.5288 40.274 57.4308C40.3405 57.3333 40.36 57.2233 40.333 57.1013C40.2945 56.9263 40.2225 56.8123 40.119 56.7588C40.015 56.7043 39.8865 56.6953 39.7325 56.7288L39.3415 56.8163L39.208 56.2183Z" fill="white"/>
<mask id="mask2_1458_464" style="mask-type:luminance" maskUnits="userSpaceOnUse" x="4" y="25" width="24" height="33">
<path d="M22.746 57.7577L27.4975 55.7567L25.997 51.7557L24.2465 33.2772L16.281 27.6252L14.125 28.4377L12.4375 25.5317L4.23999 39.5017L22.746 57.7577Z" fill="white"/>
</mask>
<g mask="url(#mask2_1458_464)">
<path fill-rule="evenodd" clip-rule="evenodd" d="M44.129 15.0253C43.7485 15.7103 42.219 15.8768 41.181 15.6228C41.7025 15.1523 42.8215 14.7043 43.783 14.9403L44.129 15.0253L43.825 14.8408C42.98 14.3293 42.5135 13.2253 42.4845 12.5273C43.3965 13.0798 44.3525 14.2758 44.129 15.0253ZM35.0225 56.4463C35.3485 56.4463 35.612 56.7078 35.612 57.0313C35.612 57.3538 35.348 57.6158 35.022 57.6163C34.696 57.6168 34.4325 57.3548 34.4325 57.0318C34.433 56.7088 34.6965 56.4463 35.0225 56.4463ZM42.8185 14.4183L42.55 14.1863C41.8035 13.5403 40.602 13.4318 39.922 13.6138C40.7275 14.3108 42.1645 14.8558 42.8185 14.4183ZM27.3045 14.4248C27.958 14.8618 29.3955 14.3158 30.2015 13.6183C29.5215 13.4368 28.32 13.5458 27.573 14.1928L27.3045 14.4248ZM33.5055 57.0393C33.3245 57.7998 31.896 58.3688 30.827 58.4003C31.202 57.8083 32.159 57.0788 33.1495 57.0493L33.5055 57.0393C33.518 56.2573 32.2735 55.3603 31.245 55.0713C31.4625 55.7358 32.2095 56.6748 33.163 56.9433L33.5055 57.0393ZM31.282 56.7458C31.374 55.9693 30.227 54.9523 29.233 54.5623C29.3815 55.2448 30.0295 56.2538 30.951 56.6153L31.282 56.7458L30.9265 56.7203C29.9385 56.6508 28.9125 57.2808 28.479 57.8318C29.546 57.9073 31.0245 57.4838 31.282 56.7458ZM29.0995 56.2313C28.768 56.9403 27.254 57.2138 26.2005 57.0313C26.6875 56.5258 27.772 56.0023 28.748 56.1698L29.0995 56.2313C29.2695 55.4678 28.2315 54.3408 27.283 53.8538C27.361 54.5483 27.904 55.6168 28.783 56.0683L29.0995 56.2313ZM26.981 55.5013C27.2275 54.7583 26.3095 53.5338 25.415 52.9543C25.4225 53.6533 25.8535 54.7703 26.683 55.3078L26.981 55.5013L26.638 55.4058C25.684 55.1403 24.552 55.5543 24.016 56.0083C25.045 56.2943 26.579 56.1743 26.981 55.5013ZM24.9465 54.5628C24.4785 55.1928 22.9405 55.1588 21.9455 54.7718C22.5245 54.3733 23.693 54.0753 24.6155 54.4338L24.9465 54.5628C25.2675 53.8488 24.478 52.5383 23.647 51.8723C23.5835 52.5683 23.899 53.7228 24.6695 54.3408L24.9465 54.5628ZM23.0185 53.4263C23.4105 52.7478 22.758 51.3658 21.999 50.6193C21.865 51.3053 22.062 52.4863 22.7655 53.1773L23.0185 53.4263L22.702 53.2653C21.8215 52.8153 20.6285 52.9953 20.012 53.3343C20.962 53.8193 22.489 54.0063 23.0185 53.4263ZM21.2155 52.1028C20.63 52.6268 19.13 52.2878 18.2335 51.7108C18.8815 51.4353 20.086 51.3753 20.9165 51.9103L21.2155 52.1028L20.989 51.8303C20.359 51.0713 20.283 49.8773 20.486 49.2083C21.1655 50.0268 21.674 51.4668 21.2155 52.1028ZM19.5565 50.6063C18.921 51.0693 17.463 50.5823 16.6295 49.9178C17.3015 49.7088 18.5065 49.7693 19.2785 50.3848L19.5565 50.6063C20.077 50.0188 19.7175 48.5353 19.1245 47.6528C18.855 48.2988 18.8095 49.4948 19.359 50.3123L19.5565 50.6063ZM18.0575 48.9513C17.3785 49.3478 15.9775 48.7178 15.216 47.9738C15.906 47.8328 17.0985 48.0138 17.804 48.7033L18.0575 48.9513C18.6355 48.4188 18.428 46.9068 17.9275 45.9698C17.5935 46.5853 17.427 47.7708 17.8905 48.6388L18.0575 48.9513ZM16.7345 47.1543C16.0185 47.4818 14.689 46.7143 14.007 45.8983C14.7075 45.8268 15.8755 46.1263 16.5075 46.8828L16.7345 47.1543L16.6 46.8273C16.227 45.9163 16.5135 44.7543 16.9075 44.1743C17.3105 45.1568 17.363 46.6823 16.7345 47.1543ZM15.6005 45.2348L15.5005 44.8953C15.222 43.9528 15.624 42.8238 16.0755 42.2868C16.3765 43.3043 16.274 44.8278 15.6005 45.2348L15.402 44.9408C14.85 44.1253 13.7185 43.7113 13.0145 43.7118C13.61 44.5918 14.855 45.4883 15.6005 45.2348ZM14.6675 43.2103C13.9 43.3888 12.7525 42.3728 12.249 41.4373C12.95 41.5063 14.0335 42.0318 14.5 42.8988L14.6675 43.2103C15.3785 42.8728 15.635 41.3678 15.4395 40.3253C14.936 40.8143 14.421 41.8968 14.6025 42.8633L14.6675 43.2103ZM13.9445 41.1043L13.9145 40.7518C13.832 39.7728 14.454 38.7463 15.005 38.3098C15.094 39.3668 14.686 40.8398 13.9445 41.1043L13.809 40.7768C13.433 39.8678 12.409 39.2368 11.7185 39.0983C12.124 40.0793 13.163 41.2048 13.9445 41.1043ZM13.439 38.9358L13.445 38.5823C13.462 37.5993 14.1855 36.6408 14.7775 36.2613C14.759 37.3218 14.204 38.7463 13.439 38.9358L13.3375 38.5968C13.056 37.6548 12.1005 36.9243 11.428 36.7168C11.732 37.7338 12.6515 38.9578 13.439 38.9358ZM13.1565 36.7273C12.3705 36.6708 11.5805 35.3613 11.381 34.3188C12.029 34.5923 12.905 35.4143 13.09 36.3803L13.1565 36.7273C13.9365 36.6158 14.6335 35.2538 14.7595 34.2008C14.132 34.5188 13.3155 35.3998 13.1985 36.3758L13.1565 36.7273ZM13.0995 34.5023C12.323 34.3673 11.67 32.9853 11.578 31.9288C12.1945 32.2653 12.983 33.1703 13.0685 34.1503L13.0995 34.5023C13.8865 34.4688 14.7185 33.1838 14.9505 32.1483C14.294 32.4018 13.392 33.1973 13.1765 34.1573L13.0995 34.5023ZM13.268 32.2828C12.51 32.0703 12 30.6308 12.016 29.5698C12.5955 29.9668 13.2875 30.9458 13.2735 31.9288L13.268 32.2828C14.0545 32.3283 15.0125 31.1323 15.349 30.1253C14.67 30.3118 13.692 31.0138 13.38 31.9468L13.268 32.2828ZM13.6615 30.0903L13.807 29.7678C14.2115 28.8703 15.256 28.2703 15.95 28.1518C15.5135 29.1208 14.4395 30.2143 13.6615 30.0903L13.7025 29.7398C13.8165 28.7633 13.2275 27.7193 12.6905 27.2668C12.568 28.3203 12.929 29.8038 13.6615 30.0903ZM14.2755 27.9493C13.5755 27.5908 13.367 26.0783 13.5965 25.0418C14.084 25.5463 14.5645 26.6438 14.352 27.6038L14.2755 27.9493C15.0365 28.1498 16.2165 27.1688 16.7495 26.2488C16.047 26.2968 14.947 26.7898 14.4535 27.6423L14.2755 27.9493ZM15.1035 25.8793C14.4435 25.4523 14.3895 23.9268 14.723 22.9188C15.157 23.4688 15.5235 24.6093 15.2145 25.5433L15.1035 25.8793C15.8405 26.1553 17.1135 25.2968 17.7375 24.4348C17.0335 24.4128 15.8895 24.7933 15.3115 25.5918L15.1035 25.8793ZM16.1375 23.9028C16.8425 24.2513 18.196 23.5243 18.904 22.7288C18.206 22.6358 17.029 22.9003 16.373 23.6378L16.1375 23.9028L16.282 23.5793C16.684 22.6808 16.435 21.5098 16.059 20.9188C15.6255 21.8888 15.5245 23.4123 16.1375 23.9028ZM17.366 22.0398C16.806 21.4903 17.0615 19.9848 17.5915 19.0628C17.9055 19.6883 18.0345 20.8783 17.543 21.7318L17.366 22.0398L17.628 21.7998C18.355 21.1318 19.5525 20.9863 20.2375 21.1478C19.453 21.8688 18.0325 22.4563 17.366 22.0398ZM18.778 20.3083L19.0625 20.0948C19.854 19.5028 21.06 19.4783 21.725 19.7073C20.8715 20.3468 19.3985 20.7898 18.778 20.3083L18.985 20.0198C19.56 19.2193 19.553 18.0223 19.304 17.3688C18.6835 18.2333 18.2765 19.7058 18.778 20.3083ZM20.3585 18.7268C19.9205 18.0773 20.475 16.6528 21.18 15.8548C21.361 16.5298 21.247 17.7218 20.5935 18.4608L20.3585 18.7268C20.927 19.2678 22.4375 18.9743 23.3515 18.4243C22.713 18.1293 21.5105 18.0338 20.663 18.5438L20.3585 18.7268ZM22.0915 17.3108C21.7215 16.6208 22.4175 15.2588 23.2 14.5358C23.312 15.2258 23.077 16.3998 22.352 17.0703L22.0915 17.3108L22.413 17.1588C23.308 16.7358 24.494 16.9508 25.0995 17.3083C24.1335 17.7648 22.6015 17.9058 22.0915 17.3108ZM23.9585 16.0753L24.294 15.9563C25.227 15.6253 26.3855 15.9573 26.9515 16.3733C25.9445 16.7308 24.406 16.7183 23.9585 16.0753L24.242 15.8613C25.0315 15.2668 25.384 14.1218 25.343 13.4243C24.491 14.0663 23.6605 15.3523 23.9585 16.0753ZM25.9415 15.0328C25.7185 14.2833 26.675 13.0868 27.588 12.5338C27.558 13.2313 27.091 14.3358 26.2455 14.8483L25.9415 15.0328L26.2875 14.9478C27.2495 14.7108 28.368 15.1583 28.889 15.6283C27.8505 15.8833 26.3215 15.7173 25.9415 15.0328ZM36.529 57.0378C36.7095 57.7978 38.1375 58.3658 39.2065 58.3968C38.832 57.8048 37.8755 57.0763 36.885 57.0478L36.529 57.0378C36.517 56.2558 37.7625 55.3578 38.791 55.0678C38.5735 55.7323 37.825 56.6718 36.8715 56.9413L36.529 57.0378ZM38.753 56.7423C38.6615 55.9658 39.8095 54.9478 40.804 54.5568C40.655 55.2398 40.0055 56.2488 39.0845 56.6113L38.753 56.7423L39.1085 56.7163C40.0965 56.6458 41.1225 57.2753 41.555 57.8258C40.488 57.9028 39.0095 57.4808 38.753 56.7423ZM40.9355 56.2263L41.252 56.0628C42.132 55.6103 42.675 54.5418 42.7545 53.8468C41.805 54.3353 40.766 55.4628 40.9355 56.2263L41.2865 56.1648C42.2625 55.9963 43.347 56.5193 43.8335 57.0238C42.78 57.2073 41.266 56.9353 40.9355 56.2263ZM43.055 55.4948C42.809 54.7523 43.728 53.5268 44.6235 52.9463C44.6155 53.6453 44.183 54.7628 43.3535 55.3008L43.055 55.4948L43.398 55.3988C44.352 55.1328 45.484 55.5453 46.0195 55.9993C44.99 56.2858 43.456 56.1673 43.055 55.4948ZM45.09 54.5548C45.5575 55.1843 47.0955 55.1493 48.0905 54.7613C47.512 54.3633 46.3435 54.0663 45.4215 54.4253L45.09 54.5548C44.7695 53.8408 45.56 52.5303 46.392 51.8633C46.4545 52.5593 46.138 53.7143 45.3675 54.3328L45.09 54.5548ZM47.019 53.4168C46.628 52.7388 47.2815 51.3558 48.041 50.6093C48.1745 51.2953 47.9765 52.4763 47.2725 53.1678L47.019 53.4168L47.336 53.2553C48.217 52.8048 49.4095 52.9838 50.026 53.3223C49.075 53.8078 47.548 53.9958 47.019 53.4168ZM48.823 52.0918C49.408 52.6153 50.9085 52.2753 51.8055 51.6973C51.158 51.4223 49.9535 51.3633 49.122 51.8993L48.823 52.0918L49.05 51.8193C49.68 51.0598 49.7575 49.8658 49.555 49.1968C48.875 50.0153 48.3655 51.4558 48.823 52.0918ZM50.484 50.5933L50.6815 50.2993C51.2315 49.4813 51.187 48.2853 50.918 47.6393C50.3245 48.5228 49.9635 50.0068 50.484 50.5933L50.7615 50.3718C51.534 49.7558 52.7385 49.6938 53.411 49.9023C52.5775 50.5678 51.119 51.0558 50.484 50.5933ZM51.984 48.9373C52.663 49.3333 54.0645 48.7018 54.827 47.9578C54.137 47.8173 52.9445 47.9993 52.2385 48.6893L51.984 48.9373C51.407 48.4053 51.6155 46.8928 52.1165 45.9553C52.45 46.5703 52.616 47.7558 52.1515 48.6243L51.984 48.9373ZM53.3085 47.1393C54.024 47.4658 55.3545 46.6978 56.0375 45.8808C55.337 45.8098 54.169 46.1103 53.5365 46.8673L53.3085 47.1393L53.443 46.8123C53.817 45.9013 53.532 44.7388 53.1375 44.1593C52.734 45.1423 52.68 46.6678 53.3085 47.1393ZM54.444 45.2188C55.1895 45.4718 56.4355 44.5748 57.032 43.6938C56.3275 43.6933 55.196 44.1083 54.643 44.9248L54.444 45.2188C53.771 44.8128 53.67 43.2893 53.9715 42.2708C54.4225 42.8078 54.824 43.9363 54.5445 44.8788L54.444 45.2188ZM55.3785 43.1938C56.146 43.3718 57.2945 42.3548 57.7985 41.4188C57.098 41.4883 56.0135 42.0148 55.5465 42.8823L55.3785 43.1938C54.668 42.8573 54.4125 41.3523 54.6095 40.3093C55.113 40.7978 55.627 41.8803 55.4445 42.8468L55.3785 43.1938ZM56.1035 41.0873C56.885 41.1868 57.9245 40.0603 58.331 39.0793C57.6405 39.2183 56.6155 39.8503 56.239 40.7593L56.1035 41.0873C55.362 40.8233 54.955 39.3508 55.0455 38.2933C55.5955 38.7293 56.217 39.7553 56.1335 40.7343L56.1035 41.0873ZM56.611 38.9178C57.3985 38.9393 58.319 37.7148 58.6235 36.6973C57.9505 36.9053 56.995 37.6363 56.7125 38.5788L56.611 38.9178C55.8465 38.7293 55.2925 37.3053 55.2745 36.2448C55.8665 36.6233 56.589 37.5818 56.605 38.5643L56.611 38.9178ZM56.8955 36.7093C57.6815 36.6523 58.4725 35.3418 58.673 34.2998C58.025 34.5738 57.148 35.3963 56.962 36.3623L56.8955 36.7093C56.1155 36.5983 55.4195 35.2368 55.2945 34.1838C55.9215 34.5013 56.7375 35.3818 56.8535 36.3578L56.8955 36.7093ZM56.9545 34.4843L56.877 34.1393C56.6625 33.1798 55.761 32.3848 55.105 32.1318C55.3365 33.1668 56.1675 34.4513 56.9545 34.4843L56.9855 34.1323C57.072 33.1523 57.861 32.2468 58.478 31.9098C58.385 32.9663 57.7305 34.3488 56.9545 34.4843ZM56.7875 32.2648C57.546 32.0518 58.057 30.6118 58.0425 29.5508C57.4625 29.9478 56.7695 30.9283 56.783 31.9108L56.7875 32.2648C56.001 32.3108 55.044 31.1158 54.7085 30.1093C55.3875 30.2953 56.365 30.9963 56.6755 31.9293L56.7875 32.2648ZM56.3955 30.0728C57.1285 29.7853 57.491 28.3018 57.369 27.2483C56.832 27.7013 56.242 28.7458 56.355 29.7223L56.3955 30.0728C55.618 30.1978 54.5445 29.1043 54.108 28.1363C54.8025 28.2543 55.8465 28.8533 56.25 29.7503L56.3955 30.0728ZM55.784 27.9323C56.484 27.5733 56.694 26.0608 56.4655 25.0243C55.9775 25.5293 55.4965 26.6273 55.708 27.5868L55.784 27.9323C55.0225 28.1333 53.8435 27.1533 53.3115 26.2338C54.014 26.2808 55.1135 26.7733 55.6065 27.6253L55.784 27.9323ZM54.9575 25.8633L54.75 25.5758C54.1725 24.7778 53.029 24.3978 52.325 24.4208C52.948 25.2823 54.2205 26.1398 54.9575 25.8633L54.847 25.5278C54.539 24.5938 54.9065 23.4533 55.341 22.9028C55.673 23.9103 55.618 25.4358 54.9575 25.8633ZM53.9255 23.8873C53.22 24.2363 51.867 23.5103 51.16 22.7153C51.858 22.6218 53.0345 22.8853 53.6895 23.6223L53.9255 23.8873L53.7815 23.5643C53.38 22.6658 53.63 21.4948 54.0065 20.9038C54.439 21.8733 54.539 23.3963 53.9255 23.8873ZM52.698 22.0253C53.259 21.4753 53.005 19.9698 52.4755 19.0488C52.161 19.6748 52.0315 20.8648 52.522 21.7178L52.698 22.0253L52.4365 21.7853C51.71 21.1178 50.5125 20.9733 49.827 21.1353C50.6115 21.8558 52.0315 22.4423 52.698 22.0253ZM51.2875 20.2953L51.0035 20.0823C50.2125 19.4913 49.0065 19.4673 48.341 19.6968C49.1945 20.3353 50.667 20.7768 51.2875 20.2953L51.081 20.0073C50.5065 19.2073 50.5145 18.0103 50.764 17.3563C51.384 18.2198 51.79 19.6923 51.2875 20.2953ZM49.7085 18.7143C50.147 18.0643 49.594 16.6403 48.8895 15.8428C48.7075 16.5183 48.8205 17.7098 49.474 18.4483L49.7085 18.7143C49.14 19.2558 47.63 18.9633 46.716 18.4143C47.355 18.1188 48.557 18.0223 49.404 18.5313L49.7085 18.7143ZM47.977 17.3003C48.3475 16.6098 47.6525 15.2483 46.8705 14.5258C46.758 15.2163 46.9915 16.3893 47.7165 17.0593L47.977 17.3003L47.6555 17.1483C46.761 16.7258 45.5745 16.9423 44.969 17.3003C45.9345 17.7558 47.466 17.8958 47.977 17.3003ZM46.111 16.0663C46.4095 15.3428 45.58 14.0578 44.7285 13.4163C44.6865 14.1138 45.0385 15.2588 45.827 15.8523L46.111 16.0663C45.6635 16.7098 44.1245 16.7233 43.118 16.3668C43.6845 15.9503 44.843 15.6173 45.776 15.9473L46.111 16.0663Z" fill="white"/>
</g>
<mask id="mask3_1458_464" style="mask-type:luminance" maskUnits="userSpaceOnUse" x="42" y="22" width="20" height="36">
<path d="M43.0024 30.5267L53.0309 27.1567L55.9374 28.4377L61.2809 22.2192L60.2579 35.7502L56.2569 49.7547L46.0034 57.7577L42.5024 55.7567L44.0029 51.2552L43.0024 30.5267Z" fill="white"/>
</mask>
<g mask="url(#mask3_1458_464)">
<path fill-rule="evenodd" clip-rule="evenodd" d="M44.1289 15.0253C43.7484 15.7103 42.2189 15.8768 41.1809 15.6228C41.7024 15.1523 42.8214 14.7043 43.7829 14.9403L44.1289 15.0253L43.8249 14.8408C42.9799 14.3293 42.5134 13.2253 42.4844 12.5273C43.3964 13.0798 44.3524 14.2758 44.1289 15.0253ZM35.0224 56.4463C35.3484 56.4463 35.6119 56.7078 35.6119 57.0313C35.6119 57.3538 35.3479 57.6158 35.0219 57.6163C34.6959 57.6168 34.4324 57.3548 34.4324 57.0318C34.4329 56.7088 34.6964 56.4463 35.0224 56.4463ZM42.8184 14.4183L42.5499 14.1863C41.8034 13.5403 40.6019 13.4318 39.9219 13.6138C40.7274 14.3108 42.1644 14.8558 42.8184 14.4183ZM27.3044 14.4248C27.9579 14.8618 29.3954 14.3158 30.2014 13.6183C29.5214 13.4368 28.3199 13.5458 27.5729 14.1928L27.3044 14.4248ZM33.5054 57.0393C33.3244 57.7998 31.8959 58.3688 30.8269 58.4003C31.2019 57.8083 32.1589 57.0788 33.1494 57.0493L33.5054 57.0393C33.5179 56.2573 32.2734 55.3603 31.2449 55.0713C31.4624 55.7358 32.2094 56.6748 33.1629 56.9433L33.5054 57.0393ZM31.2819 56.7458C31.3739 55.9693 30.2269 54.9523 29.2329 54.5623C29.3814 55.2448 30.0294 56.2538 30.9509 56.6153L31.2819 56.7458L30.9264 56.7203C29.9384 56.6508 28.9124 57.2808 28.4789 57.8318C29.5459 57.9073 31.0244 57.4838 31.2819 56.7458ZM29.0994 56.2313C28.7679 56.9403 27.2539 57.2138 26.2004 57.0313C26.6874 56.5258 27.7719 56.0023 28.7479 56.1698L29.0994 56.2313C29.2694 55.4678 28.2314 54.3408 27.2829 53.8538C27.3609 54.5483 27.9039 55.6168 28.7829 56.0683L29.0994 56.2313ZM26.9809 55.5013C27.2274 54.7583 26.3094 53.5338 25.4149 52.9543C25.4224 53.6533 25.8534 54.7703 26.6829 55.3078L26.9809 55.5013L26.6379 55.4058C25.6839 55.1403 24.5519 55.5543 24.0159 56.0083C25.0449 56.2943 26.5789 56.1743 26.9809 55.5013ZM24.9464 54.5628C24.4784 55.1928 22.9404 55.1588 21.9454 54.7718C22.5244 54.3733 23.6929 54.0753 24.6154 54.4338L24.9464 54.5628C25.2674 53.8488 24.4779 52.5383 23.6469 51.8723C23.5834 52.5683 23.8989 53.7228 24.6694 54.3408L24.9464 54.5628ZM23.0184 53.4263C23.4104 52.7478 22.7579 51.3658 21.9989 50.6193C21.8649 51.3053 22.0619 52.4863 22.7654 53.1773L23.0184 53.4263L22.7019 53.2653C21.8214 52.8153 20.6284 52.9953 20.0119 53.3343C20.9619 53.8193 22.4889 54.0063 23.0184 53.4263ZM21.2154 52.1028C20.6299 52.6268 19.1299 52.2878 18.2334 51.7108C18.8814 51.4353 20.0859 51.3753 20.9164 51.9103L21.2154 52.1028L20.9889 51.8303C20.3589 51.0713 20.2829 49.8773 20.4859 49.2083C21.1654 50.0268 21.6739 51.4668 21.2154 52.1028ZM19.5564 50.6063C18.9209 51.0693 17.4629 50.5823 16.6294 49.9178C17.3014 49.7088 18.5064 49.7693 19.2784 50.3848L19.5564 50.6063C20.0769 50.0188 19.7174 48.5353 19.1244 47.6528C18.8549 48.2988 18.8094 49.4948 19.3589 50.3123L19.5564 50.6063ZM18.0574 48.9513C17.3784 49.3478 15.9774 48.7178 15.2159 47.9738C15.9059 47.8328 17.0984 48.0138 17.8039 48.7033L18.0574 48.9513C18.6354 48.4188 18.4279 46.9068 17.9274 45.9698C17.5934 46.5853 17.4269 47.7708 17.8904 48.6388L18.0574 48.9513ZM16.7344 47.1543C16.0184 47.4818 14.6889 46.7143 14.0069 45.8983C14.7074 45.8268 15.8754 46.1263 16.5074 46.8828L16.7344 47.1543L16.5999 46.8273C16.2269 45.9163 16.5134 44.7543 16.9074 44.1743C17.3104 45.1568 17.3629 46.6823 16.7344 47.1543ZM15.6004 45.2348L15.5004 44.8953C15.2219 43.9528 15.6239 42.8238 16.0754 42.2868C16.3764 43.3043 16.2739 44.8278 15.6004 45.2348L15.4019 44.9408C14.8499 44.1253 13.7184 43.7113 13.0144 43.7118C13.6099 44.5918 14.8549 45.4883 15.6004 45.2348ZM14.6674 43.2103C13.8999 43.3888 12.7524 42.3728 12.2489 41.4373C12.9499 41.5063 14.0334 42.0318 14.4999 42.8988L14.6674 43.2103C15.3784 42.8728 15.6349 41.3678 15.4394 40.3253C14.9359 40.8143 14.4209 41.8968 14.6024 42.8633L14.6674 43.2103ZM13.9444 41.1043L13.9144 40.7518C13.8319 39.7728 14.4539 38.7463 15.0049 38.3098C15.0939 39.3668 14.6859 40.8398 13.9444 41.1043L13.8089 40.7768C13.4329 39.8678 12.4089 39.2368 11.7184 39.0983C12.1239 40.0793 13.1629 41.2048 13.9444 41.1043ZM13.4389 38.9358L13.4449 38.5823C13.4619 37.5993 14.1854 36.6408 14.7774 36.2613C14.7589 37.3218 14.2039 38.7463 13.4389 38.9358L13.3374 38.5968C13.0559 37.6548 12.1004 36.9243 11.4279 36.7168C11.7319 37.7338 12.6514 38.9578 13.4389 38.9358ZM13.1564 36.7273C12.3704 36.6708 11.5804 35.3613 11.3809 34.3188C12.0289 34.5923 12.9049 35.4143 13.0899 36.3803L13.1564 36.7273C13.9364 36.6158 14.6334 35.2538 14.7594 34.2008C14.1319 34.5188 13.3154 35.3998 13.1984 36.3758L13.1564 36.7273ZM13.0994 34.5023C12.3229 34.3673 11.6699 32.9853 11.5779 31.9288C12.1944 32.2653 12.9829 33.1703 13.0684 34.1503L13.0994 34.5023C13.8864 34.4688 14.7184 33.1838 14.9504 32.1483C14.2939 32.4018 13.3919 33.1973 13.1764 34.1573L13.0994 34.5023ZM13.2679 32.2828C12.5099 32.0703 11.9999 30.6308 12.0159 29.5698C12.5954 29.9668 13.2874 30.9458 13.2734 31.9288L13.2679 32.2828C14.0544 32.3283 15.0124 31.1323 15.3489 30.1253C14.6699 30.3118 13.6919 31.0138 13.3799 31.9468L13.2679 32.2828ZM13.6614 30.0903L13.8069 29.7678C14.2114 28.8703 15.2559 28.2703 15.9499 28.1518C15.5134 29.1208 14.4394 30.2143 13.6614 30.0903L13.7024 29.7398C13.8164 28.7633 13.2274 27.7193 12.6904 27.2668C12.5679 28.3203 12.9289 29.8038 13.6614 30.0903ZM14.2754 27.9493C13.5754 27.5908 13.3669 26.0783 13.5964 25.0418C14.0839 25.5463 14.5644 26.6438 14.3519 27.6038L14.2754 27.9493C15.0364 28.1498 16.2164 27.1688 16.7494 26.2488C16.0469 26.2968 14.9469 26.7898 14.4534 27.6423L14.2754 27.9493ZM15.1034 25.8793C14.4434 25.4523 14.3894 23.9268 14.7229 22.9188C15.1569 23.4688 15.5234 24.6093 15.2144 25.5433L15.1034 25.8793C15.8404 26.1553 17.1134 25.2968 17.7374 24.4348C17.0334 24.4128 15.8894 24.7933 15.3114 25.5918L15.1034 25.8793ZM16.1374 23.9028C16.8424 24.2513 18.1959 23.5243 18.9039 22.7288C18.2059 22.6358 17.0289 22.9003 16.3729 23.6378L16.1374 23.9028L16.2819 23.5793C16.6839 22.6808 16.4349 21.5098 16.0589 20.9188C15.6254 21.8888 15.5244 23.4123 16.1374 23.9028ZM17.3659 22.0398C16.8059 21.4903 17.0614 19.9848 17.5914 19.0628C17.9054 19.6883 18.0344 20.8783 17.5429 21.7318L17.3659 22.0398L17.6279 21.7998C18.3549 21.1318 19.5524 20.9863 20.2374 21.1478C19.4529 21.8688 18.0324 22.4563 17.3659 22.0398ZM18.7779 20.3083L19.0624 20.0948C19.8539 19.5028 21.0599 19.4783 21.7249 19.7073C20.8714 20.3468 19.3984 20.7898 18.7779 20.3083L18.9849 20.0198C19.5599 19.2193 19.5529 18.0223 19.3039 17.3688C18.6834 18.2333 18.2764 19.7058 18.7779 20.3083ZM20.3584 18.7268C19.9204 18.0773 20.4749 16.6528 21.1799 15.8548C21.3609 16.5298 21.2469 17.7218 20.5934 18.4608L20.3584 18.7268C20.9269 19.2678 22.4374 18.9743 23.3514 18.4243C22.7129 18.1293 21.5104 18.0338 20.6629 18.5438L20.3584 18.7268ZM22.0914 17.3108C21.7214 16.6208 22.4174 15.2588 23.1999 14.5358C23.3119 15.2258 23.0769 16.3998 22.3519 17.0703L22.0914 17.3108L22.4129 17.1588C23.3079 16.7358 24.4939 16.9508 25.0994 17.3083C24.1334 17.7648 22.6014 17.9058 22.0914 17.3108ZM23.9584 16.0753L24.2939 15.9563C25.2269 15.6253 26.3854 15.9573 26.9514 16.3733C25.9444 16.7308 24.4059 16.7183 23.9584 16.0753L24.2419 15.8613C25.0314 15.2668 25.3839 14.1218 25.3429 13.4243C24.4909 14.0663 23.6604 15.3523 23.9584 16.0753ZM25.9414 15.0328C25.7184 14.2833 26.6749 13.0868 27.5879 12.5338C27.5579 13.2313 27.0909 14.3358 26.2454 14.8483L25.9414 15.0328L26.2874 14.9478C27.2494 14.7108 28.3679 15.1583 28.8889 15.6283C27.8504 15.8833 26.3214 15.7173 25.9414 15.0328ZM36.5289 57.0378C36.7094 57.7978 38.1374 58.3658 39.2064 58.3968C38.8319 57.8048 37.8754 57.0763 36.8849 57.0478L36.5289 57.0378C36.5169 56.2558 37.7624 55.3578 38.7909 55.0678C38.5734 55.7323 37.8249 56.6718 36.8714 56.9413L36.5289 57.0378ZM38.7529 56.7423C38.6614 55.9658 39.8094 54.9478 40.8039 54.5568C40.6549 55.2398 40.0054 56.2488 39.0844 56.6113L38.7529 56.7423L39.1084 56.7163C40.0964 56.6458 41.1224 57.2753 41.5549 57.8258C40.4879 57.9028 39.0094 57.4808 38.7529 56.7423ZM40.9354 56.2263L41.2519 56.0628C42.1319 55.6103 42.6749 54.5418 42.7544 53.8468C41.8049 54.3353 40.7659 55.4628 40.9354 56.2263L41.2864 56.1648C42.2624 55.9963 43.3469 56.5193 43.8334 57.0238C42.7799 57.2073 41.2659 56.9353 40.9354 56.2263ZM43.0549 55.4948C42.8089 54.7523 43.7279 53.5268 44.6234 52.9463C44.6154 53.6453 44.1829 54.7628 43.3534 55.3008L43.0549 55.4948L43.3979 55.3988C44.3519 55.1328 45.4839 55.5453 46.0194 55.9993C44.9899 56.2858 43.4559 56.1673 43.0549 55.4948ZM45.0899 54.5548C45.5574 55.1843 47.0954 55.1493 48.0904 54.7613C47.5119 54.3633 46.3434 54.0663 45.4214 54.4253L45.0899 54.5548C44.7694 53.8408 45.5599 52.5303 46.3919 51.8633C46.4544 52.5593 46.1379 53.7143 45.3674 54.3328L45.0899 54.5548ZM47.0189 53.4168C46.6279 52.7388 47.2814 51.3558 48.0409 50.6093C48.1744 51.2953 47.9764 52.4763 47.2724 53.1678L47.0189 53.4168L47.3359 53.2553C48.2169 52.8048 49.4094 52.9838 50.0259 53.3223C49.0749 53.8078 47.5479 53.9958 47.0189 53.4168ZM48.8229 52.0918C49.4079 52.6153 50.9084 52.2753 51.8054 51.6973C51.1579 51.4223 49.9534 51.3633 49.1219 51.8993L48.8229 52.0918L49.0499 51.8193C49.6799 51.0598 49.7574 49.8658 49.5549 49.1968C48.8749 50.0153 48.3654 51.4558 48.8229 52.0918ZM50.4839 50.5933L50.6814 50.2993C51.2314 49.4813 51.1869 48.2853 50.9179 47.6393C50.3244 48.5228 49.9634 50.0068 50.4839 50.5933L50.7614 50.3718C51.5339 49.7558 52.7384 49.6938 53.4109 49.9023C52.5774 50.5678 51.1189 51.0558 50.4839 50.5933ZM51.9839 48.9373C52.6629 49.3333 54.0644 48.7018 54.8269 47.9578C54.1369 47.8173 52.9444 47.9993 52.2384 48.6893L51.9839 48.9373C51.4069 48.4053 51.6154 46.8928 52.1164 45.9553C52.4499 46.5703 52.6159 47.7558 52.1514 48.6243L51.9839 48.9373ZM53.3084 47.1393C54.0239 47.4658 55.3544 46.6978 56.0374 45.8808C55.3369 45.8098 54.1689 46.1103 53.5364 46.8673L53.3084 47.1393L53.4429 46.8123C53.8169 45.9013 53.5319 44.7388 53.1374 44.1593C52.7339 45.1423 52.6799 46.6678 53.3084 47.1393ZM54.4439 45.2188C55.1894 45.4718 56.4354 44.5748 57.0319 43.6938C56.3274 43.6933 55.1959 44.1083 54.6429 44.9248L54.4439 45.2188C53.7709 44.8128 53.6699 43.2893 53.9714 42.2708C54.4224 42.8078 54.8239 43.9363 54.5444 44.8788L54.4439 45.2188ZM55.3784 43.1938C56.1459 43.3718 57.2944 42.3548 57.7984 41.4188C57.0979 41.4883 56.0134 42.0148 55.5464 42.8823L55.3784 43.1938C54.6679 42.8573 54.4124 41.3523 54.6094 40.3093C55.1129 40.7978 55.6269 41.8803 55.4444 42.8468L55.3784 43.1938ZM56.1034 41.0873C56.8849 41.1868 57.9244 40.0603 58.3309 39.0793C57.6404 39.2183 56.6154 39.8503 56.2389 40.7593L56.1034 41.0873C55.3619 40.8233 54.9549 39.3508 55.0454 38.2933C55.5954 38.7293 56.2169 39.7553 56.1334 40.7343L56.1034 41.0873ZM56.6109 38.9178C57.3984 38.9393 58.3189 37.7148 58.6234 36.6973C57.9504 36.9053 56.9949 37.6363 56.7124 38.5788L56.6109 38.9178C55.8464 38.7293 55.2924 37.3053 55.2744 36.2448C55.8664 36.6233 56.5889 37.5818 56.6049 38.5643L56.6109 38.9178ZM56.8954 36.7093C57.6814 36.6523 58.4724 35.3418 58.6729 34.2998C58.0249 34.5738 57.1479 35.3963 56.9619 36.3623L56.8954 36.7093C56.1154 36.5983 55.4194 35.2368 55.2944 34.1838C55.9214 34.5013 56.7374 35.3818 56.8534 36.3578L56.8954 36.7093ZM56.9544 34.4843L56.8769 34.1393C56.6624 33.1798 55.7609 32.3848 55.1049 32.1318C55.3364 33.1668 56.1674 34.4513 56.9544 34.4843L56.9854 34.1323C57.0719 33.1523 57.8609 32.2468 58.4779 31.9098C58.3849 32.9663 57.7304 34.3488 56.9544 34.4843ZM56.7874 32.2648C57.5459 32.0518 58.0569 30.6118 58.0424 29.5508C57.4624 29.9478 56.7694 30.9283 56.7829 31.9108L56.7874 32.2648C56.0009 32.3108 55.0439 31.1158 54.7084 30.1093C55.3874 30.2953 56.3649 30.9963 56.6754 31.9293L56.7874 32.2648ZM56.3954 30.0728C57.1284 29.7853 57.4909 28.3018 57.3689 27.2483C56.8319 27.7013 56.2419 28.7458 56.3549 29.7223L56.3954 30.0728C55.6179 30.1978 54.5444 29.1043 54.1079 28.1363C54.8024 28.2543 55.8464 28.8533 56.2499 29.7503L56.3954 30.0728ZM55.7839 27.9323C56.4839 27.5733 56.6939 26.0608 56.4654 25.0243C55.9774 25.5293 55.4964 26.6273 55.7079 27.5868L55.7839 27.9323C55.0224 28.1333 53.8434 27.1533 53.3114 26.2338C54.0139 26.2808 55.1134 26.7733 55.6064 27.6253L55.7839 27.9323ZM54.9574 25.8633L54.7499 25.5758C54.1724 24.7778 53.0289 24.3978 52.3249 24.4208C52.9479 25.2823 54.2204 26.1398 54.9574 25.8633L54.8469 25.5278C54.5389 24.5938 54.9064 23.4533 55.3409 22.9028C55.6729 23.9103 55.6179 25.4358 54.9574 25.8633ZM53.9254 23.8873C53.2199 24.2363 51.8669 23.5103 51.1599 22.7153C51.8579 22.6218 53.0344 22.8853 53.6894 23.6223L53.9254 23.8873L53.7814 23.5643C53.3799 22.6658 53.6299 21.4948 54.0064 20.9038C54.4389 21.8733 54.5389 23.3963 53.9254 23.8873ZM52.6979 22.0253C53.2589 21.4753 53.0049 19.9698 52.4754 19.0488C52.1609 19.6748 52.0314 20.8648 52.5219 21.7178L52.6979 22.0253L52.4364 21.7853C51.7099 21.1178 50.5124 20.9733 49.8269 21.1353C50.6114 21.8558 52.0314 22.4423 52.6979 22.0253ZM51.2874 20.2953L51.0034 20.0823C50.2124 19.4913 49.0064 19.4673 48.3409 19.6968C49.1944 20.3353 50.6669 20.7768 51.2874 20.2953L51.0809 20.0073C50.5064 19.2073 50.5144 18.0103 50.7639 17.3563C51.3839 18.2198 51.7899 19.6923 51.2874 20.2953ZM49.7084 18.7143C50.1469 18.0643 49.5939 16.6403 48.8894 15.8428C48.7074 16.5183 48.8204 17.7098 49.4739 18.4483L49.7084 18.7143C49.1399 19.2558 47.6299 18.9633 46.7159 18.4143C47.3549 18.1188 48.5569 18.0223 49.4039 18.5313L49.7084 18.7143ZM47.9769 17.3003C48.3474 16.6098 47.6524 15.2483 46.8704 14.5258C46.7579 15.2163 46.9914 16.3893 47.7164 17.0593L47.9769 17.3003L47.6554 17.1483C46.7609 16.7258 45.5744 16.9423 44.9689 17.3003C45.9344 17.7558 47.4659 17.8958 47.9769 17.3003ZM46.1109 16.0663C46.4094 15.3428 45.5799 14.0578 44.7284 13.4163C44.6864 14.1138 45.0384 15.2588 45.8269 15.8523L46.1109 16.0663C45.6634 16.7098 44.1244 16.7233 43.1179 16.3668C43.6844 15.9503 44.8429 15.6173 45.7759 15.9473L46.1109 16.0663Z" fill="white"/>
</g>
<path fill-rule="evenodd" clip-rule="evenodd" d="M56.0945 28.6714L56.1105 28.3169C56.1555 27.3304 55.4965 26.3204 54.9325 25.8994C54.884 26.9634 55.3465 28.4289 56.0945 28.6714Z" fill="white"/>
<path fill-rule="evenodd" clip-rule="evenodd" d="M13.991 28.6714L13.975 28.3169C13.93 27.3304 14.589 26.3204 15.153 25.8994C15.2015 26.9634 14.739 28.4289 13.991 28.6714Z" fill="white"/>
</g>
<defs>
<clipPath id="clip0_1458_464">
<rect width="70" height="70" fill="white" transform="translate(50)"/>
</clipPath>
<clipPath id="clip1_1458_464">
<rect width="70" height="70" fill="white"/>
</clipPath>
</defs>
</svg>
