<svg width="206" height="42" viewBox="0 0 206 42" fill="none" xmlns="http://www.w3.org/2000/svg">
<path fill-rule="evenodd" clip-rule="evenodd" d="M10.207 6.25879H43.889V39.9408H10.207V6.25879ZM36.3485 10.6471C36.6426 10.0299 37.2335 9.5211 38.0076 9.5211C39.0231 9.46827 39.9248 10.244 40.0052 11.4089C40.0052 11.5674 39.9303 12.1318 39.8748 12.2681L35.9462 18.6545C35.5494 19.3273 35.6299 19.8389 35.7908 20.4061L41.7143 35.5949H17.3935C15.2294 35.5949 13.5425 33.8433 13.5425 31.658L13.4648 11.5619C13.5453 8.8983 17.2575 8.8983 17.3935 11.484V30.4208C17.3935 31.0158 17.9234 31.658 18.5643 31.658H36.4012L31.8095 20.6702C31.6513 20.3199 31.5959 19.9417 31.5959 19.5108C31.5959 19.027 31.8095 18.3013 32.1036 17.6535L36.3485 10.6471ZM30.2891 11.484C30.2891 10.1633 29.3319 9.52388 28.3775 9.52944C27.4231 9.535 26.4715 10.1912 26.4715 11.484V25.0381C26.4715 27.0038 23.8246 26.8453 23.8246 25.0381V11.484C23.8246 8.8983 20.007 8.8983 20.007 11.484V25.1409C20.007 28.2632 22.3292 30.3401 25.1064 30.3401C27.9613 30.3401 30.2891 28.2632 30.2891 25.1409V11.484Z" fill="#010101"/>
<path fill-rule="evenodd" clip-rule="evenodd" d="M57.3612 9.52136V23.7436C57.3612 27.2984 56.9922 29.2727 54.0514 29.2727C53.4993 29.2727 53.1302 29.2727 52.5781 29.0758V35.1984C53.6824 35.5949 54.4175 35.5949 55.3387 35.5949C63.6175 35.5949 63.9865 29.4724 63.9865 25.9147V15.6439H68.7696V35.1984H75.395V9.51855H57.3612V9.52136Z" fill="#010101"/>
<path fill-rule="evenodd" clip-rule="evenodd" d="M76.4844 9.51855L85.2181 28.3755L82.0112 35.5949H88.9627L99.3012 9.51855H92.3497L88.6079 20.5505L84.1482 9.51855H76.4844Z" fill="#010101"/>
<path fill-rule="evenodd" clip-rule="evenodd" d="M101.473 35.5949H108.048V24.3631L114.805 35.5949H123.203L113.894 22.1555L123.018 9.51855H115.171L108.048 20.5505V9.51855H101.473V35.5949Z" fill="#010101"/>
<path fill-rule="evenodd" clip-rule="evenodd" d="M134.521 36.6815C143.151 36.6815 147.107 29.9408 147.107 22.9998C147.107 16.262 143.151 9.51855 134.521 9.51855C126.07 9.51855 122.117 16.2592 122.117 22.9998C122.114 29.938 126.07 36.6815 134.521 36.6815ZM134.521 30.5336C131.645 30.5336 128.768 27.9565 128.768 22.9998C128.768 18.0431 131.642 15.6636 134.521 15.6636C137.577 15.6636 140.456 18.0431 140.456 22.9998C140.456 27.9565 137.577 30.5336 134.521 30.5336Z" fill="#010101"/>
<path fill-rule="evenodd" clip-rule="evenodd" d="M150.367 9.91342V35.5955H156.707L165.758 20.1879V35.5955H172.098V9.91342H165.758L156.707 25.321V9.91342H150.367ZM161.414 8.53243C164.131 8.53243 166.847 7.5452 168.114 4.58069L164.314 3C163.77 4.97446 162.14 5.17416 161.417 5.17416C160.873 5.17416 159.063 4.97446 158.703 3L154.902 4.58069C155.981 7.54239 158.877 8.53243 161.414 8.53243Z" fill="#010101"/>
<path fill-rule="evenodd" clip-rule="evenodd" d="M177.967 9.52136V23.7436C177.967 27.2984 177.598 29.2727 174.657 29.2727C174.105 29.2727 173.736 29.2727 173.184 29.0758V35.1984C174.288 35.5949 175.023 35.5949 175.944 35.5949C184.223 35.5949 184.592 29.4724 184.592 25.9147V15.6439H189.375V35.1984H196V9.51855H177.967V9.52136Z" fill="#010101"/>
</svg>
