<svg width="1453" height="543" viewBox="0 0 1453 543" fill="none" xmlns="http://www.w3.org/2000/svg">
<mask id="mask0_511_39285" style="mask-type:alpha" maskUnits="userSpaceOnUse" x="0" y="0" width="1453" height="543">
<path d="M1024.47 415.454C996.86 415.454 974.475 393.068 974.475 365.454V364.525C974.475 353.544 978.09 342.868 984.762 334.146L1222.02 23.9893C1229.95 13.6213 1242.26 7.53998 1255.31 7.53998C1289.9 7.53998 1309.61 47.0709 1288.79 74.6913L1086 343.688C1084.23 346.032 1081.18 347.019 1078.37 346.155C1070.72 343.801 1072.42 332.514 1080.43 332.514H1411.04C1433.94 332.514 1452.51 351.081 1452.51 373.984C1452.51 396.887 1433.94 415.454 1411.04 415.454H1024.47ZM1311.51 535.34C1285.28 535.34 1264.01 514.073 1264.01 487.838V415.454L1267.03 332.514V272.194C1267.03 246.792 1287.62 226.2 1313.02 226.2C1338.42 226.2 1359.01 246.792 1359.01 272.194V487.838C1359.01 514.073 1337.75 535.34 1311.51 535.34Z" fill="#010101"/>
<path d="M717.472 542.88C675.75 542.88 638.05 532.324 604.372 511.212C571.196 490.1 545.057 459.437 525.956 419.224C506.854 378.508 497.304 329.247 497.304 271.44C497.304 213.633 506.854 164.623 525.956 124.41C545.057 83.694 571.196 52.78 604.372 31.668C638.05 10.556 675.75 0 717.472 0C759.696 0 797.396 10.556 830.572 31.668C863.748 52.78 889.886 83.694 908.988 124.41C928.592 164.623 938.394 213.633 938.394 271.44C938.394 329.247 928.592 378.508 908.988 419.224C889.886 459.437 863.748 490.1 830.572 511.212C797.396 532.324 759.696 542.88 717.472 542.88ZM717.472 457.678C742.102 457.678 763.466 451.143 781.562 438.074C799.658 424.502 813.732 403.893 823.786 376.246C834.342 348.599 839.62 313.664 839.62 271.44C839.62 228.713 834.342 193.778 823.786 166.634C813.732 138.987 799.658 118.629 781.562 105.56C763.466 91.988 742.102 85.202 717.472 85.202C693.846 85.202 672.734 91.988 654.136 105.56C636.04 118.629 621.714 138.987 611.158 166.634C601.104 193.778 596.078 228.713 596.078 271.44C596.078 313.664 601.104 348.599 611.158 376.246C621.714 403.893 636.04 424.502 654.136 438.074C672.734 451.143 693.846 457.678 717.472 457.678Z" fill="#010101"/>
<path d="M50.6357 415.454C23.0215 415.454 0.635742 393.068 0.635742 365.454V364.525C0.635742 353.544 4.25085 342.868 10.9228 334.146L248.183 23.9893C256.114 13.6213 268.422 7.53998 281.476 7.53998C316.066 7.53998 335.77 47.0708 314.948 74.6912L112.157 343.688C110.389 346.032 107.342 347.019 104.536 346.155C96.8841 343.801 98.5812 332.514 106.587 332.514H437.202C460.105 332.514 478.672 351.081 478.672 373.984C478.672 396.887 460.105 415.454 437.202 415.454H50.6357ZM337.674 535.34C311.439 535.34 290.172 514.073 290.172 487.838V415.454L293.188 332.514V272.194C293.188 246.792 313.78 226.2 339.182 226.2C364.584 226.2 385.176 246.792 385.176 272.194V487.838C385.176 514.073 363.908 535.34 337.674 535.34Z" fill="#010101"/>
</mask>
<g mask="url(#mask0_511_39285)">
<path fill-rule="evenodd" clip-rule="evenodd" d="M-63 13.84C-63 5.8319 -56.5081 -0.659973 -48.5 -0.659973H1522.59C1530.6 -0.659973 1537.09 5.8319 1537.09 13.84C1537.09 21.8482 1530.6 28.34 1522.59 28.34H-48.5C-56.5081 28.34 -63 21.8482 -63 13.84Z" fill="black"/>
<path fill-rule="evenodd" clip-rule="evenodd" d="M-63 69.84C-63 61.8319 -56.5081 55.34 -48.5 55.34H1522.59C1530.6 55.34 1537.09 61.8319 1537.09 69.84C1537.09 77.8482 1530.6 84.34 1522.59 84.34H-48.5C-56.5081 84.34 -63 77.8482 -63 69.84Z" fill="black"/>
<path fill-rule="evenodd" clip-rule="evenodd" d="M-63 128.84C-63 120.832 -56.5081 114.34 -48.5 114.34H1522.59C1530.6 114.34 1537.09 120.832 1537.09 128.84C1537.09 136.848 1530.6 143.34 1522.59 143.34H-48.5C-56.5081 143.34 -63 136.848 -63 128.84Z" fill="black"/>
<path fill-rule="evenodd" clip-rule="evenodd" d="M-63 185.84C-63 177.832 -56.5081 171.34 -48.5 171.34H1522.59C1530.6 171.34 1537.09 177.832 1537.09 185.84C1537.09 193.848 1530.6 200.34 1522.59 200.34H-48.5C-56.5081 200.34 -63 193.848 -63 185.84Z" fill="black"/>
<path fill-rule="evenodd" clip-rule="evenodd" d="M-63 240.84C-63 232.832 -56.5081 226.34 -48.5 226.34H1522.59C1530.6 226.34 1537.09 232.832 1537.09 240.84C1537.09 248.848 1530.6 255.34 1522.59 255.34H-48.5C-56.5081 255.34 -63 248.848 -63 240.84Z" fill="black"/>
<path fill-rule="evenodd" clip-rule="evenodd" d="M-63 299.84C-63 291.832 -56.5081 285.34 -48.5 285.34H1522.59C1530.6 285.34 1537.09 291.832 1537.09 299.84C1537.09 307.848 1530.6 314.34 1522.59 314.34H-48.5C-56.5081 314.34 -63 307.848 -63 299.84Z" fill="black"/>
<path fill-rule="evenodd" clip-rule="evenodd" d="M-63 356.84C-63 348.832 -56.5081 342.34 -48.5 342.34H1522.59C1530.6 342.34 1537.09 348.832 1537.09 356.84C1537.09 364.848 1530.6 371.34 1522.59 371.34H-48.5C-56.5081 371.34 -63 364.848 -63 356.84Z" fill="black"/>
<path fill-rule="evenodd" clip-rule="evenodd" d="M-63 413.84C-63 405.832 -56.5081 399.34 -48.5 399.34H1522.59C1530.6 399.34 1537.09 405.832 1537.09 413.84C1537.09 421.848 1530.6 428.34 1522.59 428.34H-48.5C-56.5081 428.34 -63 421.848 -63 413.84Z" fill="black"/>
<path fill-rule="evenodd" clip-rule="evenodd" d="M-63 472.84C-63 464.832 -56.5081 458.34 -48.5 458.34H1522.59C1530.6 458.34 1537.09 464.832 1537.09 472.84C1537.09 480.848 1530.6 487.34 1522.59 487.34H-48.5C-56.5081 487.34 -63 480.848 -63 472.84Z" fill="black"/>
<path fill-rule="evenodd" clip-rule="evenodd" d="M-63 527.84C-63 519.832 -56.5081 513.34 -48.5 513.34H1522.59C1530.6 513.34 1537.09 519.832 1537.09 527.84C1537.09 535.848 1530.6 542.34 1522.59 542.34H-48.5C-56.5081 542.34 -63 535.848 -63 527.84Z" fill="black"/>
</g>
</svg>
