<svg width="230" height="230" viewBox="0 0 230 230" fill="none" xmlns="http://www.w3.org/2000/svg">
<rect width="230" height="230" rx="115" fill="black"/>
<path fill-rule="evenodd" clip-rule="evenodd" d="M46.6392 67.4421C46.6392 61.3634 51.5677 56.4355 57.6474 56.4355H172.353C178.433 56.4355 183.361 61.3634 183.361 67.4421C183.361 73.5209 178.433 78.4487 172.353 78.4487H57.6474C51.5677 78.4487 46.6392 73.5209 46.6392 67.4421ZM57.6474 101.668C63.7271 101.668 68.6556 106.595 68.6556 112.674V134.686L94.9049 106.088C101.97 98.3908 114.809 103.389 114.809 113.836V134.48L140.568 106.138C147.614 98.3862 160.511 103.369 160.511 113.845V136.507L164.595 132.451C168.908 128.166 175.878 128.189 180.162 132.501C184.447 136.814 184.425 143.783 180.112 148.067L158.032 169.999C150.802 177.182 138.494 172.061 138.494 161.87V141.152L112.735 169.493C105.69 177.246 92.793 172.262 92.793 161.787V140.946L66.5437 169.543C59.4786 177.241 46.6392 172.243 46.6392 161.795V112.674C46.6392 106.595 51.5677 101.668 57.6474 101.668Z" fill="white"/>
</svg>
