<svg width="25" height="24" viewBox="0 0 25 24" fill="none" xmlns="http://www.w3.org/2000/svg">
<path d="M7.4882 12.2976C7.4882 11.6513 7.03944 11.2656 6.24751 11.2656C5.92446 11.2656 5.70559 11.2968 5.59082 11.328V13.4033C5.72651 13.4341 5.8933 13.4446 6.12206 13.4446C6.96698 13.4446 7.4882 13.0172 7.4882 12.2976Z" fill="#868B94"/>
<path d="M12.3899 11.2852C12.035 11.2852 11.8062 11.3164 11.6702 11.3477V15.9456C11.8059 15.9774 12.0249 15.9774 12.2231 15.9774C13.6618 15.9875 14.6002 15.1954 14.6002 13.5167C14.6107 12.0564 13.7555 11.2852 12.3899 11.2852Z" fill="#868B94"/>
<path d="M21.7822 8.58469H21.2059V5.80404C21.2059 5.7867 21.2032 5.76923 21.2009 5.75167C21.2 5.64125 21.1648 5.5328 21.0892 5.44687L16.4619 0.160958C16.4605 0.159608 16.4592 0.159128 16.4582 0.157647C16.4306 0.126841 16.3985 0.10122 16.3645 0.0790412C16.3544 0.0722874 16.3443 0.066623 16.3337 0.0607842C16.3043 0.0447058 16.273 0.0313725 16.2409 0.0217429C16.2322 0.0193028 16.2243 0.0157298 16.2156 0.013464C16.1807 0.00518517 16.1444 0 16.1076 0H4.73537C4.21607 0 3.79419 0.422352 3.79419 0.941218V8.58447H3.21803C2.47515 8.58447 1.8728 9.18656 1.8728 9.9297V16.9251C1.8728 17.6677 2.47515 18.2702 3.21803 18.2702H3.79424V23.0588C3.79424 23.5776 4.21611 24 4.73541 24H20.2648C20.7836 24 21.206 23.5776 21.206 23.0588V18.2702H21.7823C22.5249 18.2702 23.1274 17.6677 23.1274 16.9251V9.92992C23.1274 9.18682 22.5249 8.58469 21.7822 8.58469ZM4.73537 0.941393H15.637V5.75676C15.637 6.01676 15.8479 6.22735 16.1076 6.22735H20.2648V8.58499H4.73537V0.941393ZM16.2891 13.465C16.2891 14.8104 15.7992 15.738 15.1205 16.3118C14.381 16.9269 13.2547 17.2187 11.8788 17.2187C11.0553 17.2187 10.4716 17.1665 10.0749 17.1146V10.212C10.6587 10.1183 11.4203 10.0662 12.2232 10.0662C13.5571 10.0662 14.4227 10.3062 15.1007 10.8168C15.8302 11.359 16.2891 12.2242 16.2891 13.465ZM4.01642 17.1459V10.212C4.50622 10.129 5.19471 10.0662 6.16439 10.0662C7.14438 10.0662 7.84312 10.2539 8.31214 10.6295C8.76059 10.9838 9.06224 11.5678 9.06224 12.256C9.06224 12.9444 8.83349 13.5282 8.4161 13.9242C7.87397 14.4352 7.07122 14.6647 6.13258 14.6647C5.92439 14.6647 5.73606 14.6541 5.59075 14.6332V17.1461H4.01642V17.1459ZM20.2648 22.804H4.73537V18.2702H20.2648V22.804H20.2648ZM21.6285 11.4216H18.9275V13.0273H21.4509V14.3203H18.9275V17.1459H17.333V10.1183H21.6285V11.4216Z" fill="#868B94"/>
</svg>
